<svg class="main-svg" xmlns="http://www.w3.org/2000/svg" xmlns:xlink="http://www.w3.org/1999/xlink" width="2200" height="1000" style="" viewBox="0 0 1100 500"><rect x="0" y="0" width="1100" height="500" style="fill: rgb(255, 255, 255); fill-opacity: 1;"/><defs id="defs-f1afa7"><g class="clips"><clipPath id="clipf1afa7xyplot" class="plotclip"><rect width="1025" height="385"/></clipPath><clipPath class="axesclip" id="clipf1afa7x"><rect x="60" y="0" width="1025" height="500"/></clipPath><clipPath class="axesclip" id="clipf1afa7y"><rect x="0" y="50" width="1100" height="385"/></clipPath><clipPath class="axesclip" id="clipf1afa7xy"><rect x="60" y="50" width="1025" height="385"/></clipPath></g><g class="gradients"/><g class="patterns"/></defs><g class="bglayer"/><g class="layer-below"><g class="imagelayer"/><g class="shapelayer"/></g><g class="cartesianlayer"><g class="subplot xy"><g class="layer-subplot"><g class="shapelayer"/><g class="imagelayer"/></g><g class="minor-gridlayer"><g class="x"/><g class="y"/></g><g class="gridlayer"><g class="x"><path class="xgrid crisp" transform="translate(189.83,0)" d="M0,50v385" style="stroke: rgb(0, 0, 0); stroke-opacity: 0.05; stroke-width: 1px;"/><path class="xgrid crisp" transform="translate(326.5,0)" d="M0,50v385" style="stroke: rgb(0, 0, 0); stroke-opacity: 0.05; stroke-width: 1px;"/><path class="xgrid crisp" transform="translate(463.17,0)" d="M0,50v385" style="stroke: rgb(0, 0, 0); stroke-opacity: 0.05; stroke-width: 1px;"/><path class="xgrid crisp" transform="translate(599.83,0)" d="M0,50v385" style="stroke: rgb(0, 0, 0); stroke-opacity: 0.05; stroke-width: 1px;"/><path class="xgrid crisp" transform="translate(736.5,0)" d="M0,50v385" style="stroke: rgb(0, 0, 0); stroke-opacity: 0.05; stroke-width: 1px;"/><path class="xgrid crisp" transform="translate(873.17,0)" d="M0,50v385" style="stroke: rgb(0, 0, 0); stroke-opacity: 0.05; stroke-width: 1px;"/><path class="xgrid crisp" transform="translate(1009.83,0)" d="M0,50v385" style="stroke: rgb(0, 0, 0); stroke-opacity: 0.05; stroke-width: 1px;"/></g><g class="y"><path class="ygrid crisp" transform="translate(0,384.37)" d="M60,0h1025" style="stroke: rgb(0, 0, 0); stroke-opacity: 0.05; stroke-width: 1px;"/><path class="ygrid crisp" transform="translate(0,333.73)" d="M60,0h1025" style="stroke: rgb(0, 0, 0); stroke-opacity: 0.05; stroke-width: 1px;"/><path class="ygrid crisp" transform="translate(0,283.1)" d="M60,0h1025" style="stroke: rgb(0, 0, 0); stroke-opacity: 0.05; stroke-width: 1px;"/><path class="ygrid crisp" transform="translate(0,232.47)" d="M60,0h1025" style="stroke: rgb(0, 0, 0); stroke-opacity: 0.05; stroke-width: 1px;"/><path class="ygrid crisp" transform="translate(0,181.84)" d="M60,0h1025" style="stroke: rgb(0, 0, 0); stroke-opacity: 0.05; stroke-width: 1px;"/><path class="ygrid crisp" transform="translate(0,131.2)" d="M60,0h1025" style="stroke: rgb(0, 0, 0); stroke-opacity: 0.05; stroke-width: 1px;"/><path class="ygrid crisp" transform="translate(0,80.57)" d="M60,0h1025" style="stroke: rgb(0, 0, 0); stroke-opacity: 0.05; stroke-width: 1px;"/></g></g><g class="zerolinelayer"><path class="yzl zl crisp" transform="translate(0,435)" d="M60,0h1025" style="stroke: rgb(0, 0, 0); stroke-opacity: 0.05; stroke-width: 2px;"/></g><g class="layer-between"><g class="shapelayer"/><g class="imagelayer"/></g><path class="xlines-below"/><path class="ylines-below"/><g class="overlines-below"/><g class="xaxislayer-below"/><g class="yaxislayer-below"/><g class="overaxes-below"/><g class="overplot"><g class="xy" transform="translate(60,50)" clip-path="url(#clipf1afa7xyplot)"><g class="scatterlayer mlayer"><g class="trace scatter trace11abaf" style="stroke-miterlimit: 2; opacity: 1;"><g class="fills"/><g class="errorbars"/><g class="lines"><path class="js-line" d="M0,46.62L6.83,32.9L13.67,27.52L20.5,23.86L27.33,24.86L47.83,24.97L54.67,23.84L61.5,25.54L68.33,23.39L75.17,24.54L82,23.89L95.67,24.61L102.5,24.58L150.33,25.55L157.17,25.14L184.5,25.7L191.33,26.22L198.17,25.71L205,26.09L232.33,26.24L239.17,25.57L252.83,25.53L259.67,25.93L280.17,25.74L287,26.31L334.83,26.85L341.67,26.51L362.17,27.45L369,26.94L403.17,27.7L410,27.65L423.67,28.65L430.5,28L444.17,27.81L451,28.24L492,28.61L498.83,28.58L533,28.88L539.83,28.92L553.5,29.06L560.33,29.09L608.17,30.36L615,29.99L621.83,30.5L628.67,29.87L635.5,30.51L642.33,30.19L656,31.05L662.83,31.22L710.67,31.38L717.5,31.93L724.33,31.17L731.17,31.57L758.5,32.72L765.33,32.56L806.33,32.54L813.17,33L867.83,33.75L874.67,34.25L936.17,35.09L943,34.52L956.67,35.66L963.5,35.07L970.33,35.02L977.17,35.8L1004.5,36.2L1011.33,36.68L1018.17,37.35L1025,62.97" style="vector-effect: none; fill: none; stroke: rgb(124, 181, 236); stroke-opacity: 1; stroke-width: 2px; opacity: 1;"/></g><g class="points"/><g class="text"/></g><g class="trace scatter trace2797a8" style="stroke-miterlimit: 2; opacity: 1;"><g class="fills"/><g class="errorbars"/><g class="lines"><path class="js-line" d="M0,49.21L6.83,33.7L13.67,26.99L20.5,23.78L27.33,24.01L34.17,24.57L41,24.37L47.83,24.88L54.67,23.94L61.5,24.72L68.33,23.73L75.17,24.43L82,23.86L88.83,24.65L95.67,24.58L116.17,24.7L123,25.14L143.5,24.83L150.33,25.67L164,25.14L170.83,26.34L205,26.37L211.83,27.12L225.5,26.65L232.33,26.99L239.17,25.63L246,25.33L266.5,25.72L273.33,25.93L307.5,25.76L314.33,26.25L348.5,26.84L355.33,26.43L430.5,27.8L437.33,27.6L464.67,28.63L471.5,28.22L485.17,28.94L492,29.17L505.67,29.71L512.5,28.87L567.17,30.44L574,30.51L628.67,32.52L635.5,32.48L642.33,33.15L649.17,32.51L662.83,33.78L669.67,32.93L676.5,32.91L683.33,33.81L710.67,35.42L717.5,34.51L724.33,35.23L731.17,34.9L738,35.98L744.83,35.63L758.5,36.97L765.33,37.33L806.33,38.24L813.17,39.39L826.83,39.1L833.67,40.01L840.5,39.76L847.33,40.54L861,39.88L867.83,40.75L874.67,40.63L881.5,41.38L895.17,41.31L902,42.62L908.83,42.07L915.67,42.61L929.33,43.32L936.17,43.61L956.67,43.99L963.5,44.57L984,46.54L990.83,45.94L1004.5,46.27L1011.33,47.05L1018.17,48.43L1025,92.9" style="vector-effect: none; fill: none; stroke: rgb(67, 67, 72); stroke-opacity: 1; stroke-width: 2px; opacity: 1;"/></g><g class="points"/><g class="text"/></g><g class="trace scatter trace7db195" style="stroke-miterlimit: 2; opacity: 1;"><g class="fills"/><g class="errorbars"/><g class="lines"><path class="js-line" d="M0,53.07L6.83,39.09L13.67,32.71L20.5,29.27L27.33,30.93L41,28.64L47.83,29.79L54.67,28.85L61.5,30.78L68.33,28.96L75.17,30.35L82,29.35L88.83,29.9L123,31.74L129.83,31.19L157.17,32.56L164,32.63L170.83,33.65L177.67,33.65L211.83,35.24L218.67,34.92L232.33,35.71L239.17,33.43L293.83,34.54L300.67,35.16L334.83,35.84L341.67,35.52L389.5,37.52L396.33,37.2L403.17,37.57L410,37.18L430.5,37.76L437.33,37.74L464.67,38.49L471.5,38.67L492,39.34L498.83,38.86L519.33,40.4L526.17,39.89L539.83,39.85L546.67,41.12L553.5,40.62L560.33,41.31L580.83,41.64L587.67,41.85L601.33,41.77L608.17,42.81L621.83,42.46L628.67,42.48L635.5,43.71L642.33,43.48L649.17,44.23L656,44.22L703.83,45.9L710.67,46.51L724.33,46.29L731.17,46.59L772.17,48.49L779,48.42L792.67,49.88L799.5,49.19L813.17,49.39L820,49.99L833.67,51.88L840.5,51.35L854.17,52.34L861,51.83L888.33,53.94L895.17,54.47L902,54.19L908.83,55.37L929.33,55.33L936.17,56.24L943,55.3L949.83,56.53L956.67,56L963.5,56.89L990.83,58.36L997.67,58.5L1004.5,58.86L1011.33,61.2L1018.17,60.58L1025,120.6" style="vector-effect: none; fill: none; stroke: rgb(144, 237, 125); stroke-opacity: 1; stroke-width: 2px; opacity: 1;"/></g><g class="points"/><g class="text"/></g><g class="trace scatter traceff2882" style="stroke-miterlimit: 2; opacity: 1;"><g class="fills"/><g class="errorbars"/><g class="lines"><path class="js-line" d="M0,43.25L6.83,28.44L13.67,22.76L20.5,19.54L27.33,20.59L34.17,21.29L41,21.23L47.83,21.18L54.67,19.25L61.5,20.95L68.33,19.75L75.17,20.44L82,20.03L123,20.78L129.83,20.53L218.67,21.96L225.5,21.86L259.67,22.22L266.5,22.22L375.83,23.77L382.67,23.56L396.33,23.63L403.17,23.93L430.5,23.8L437.33,23.87L498.83,24.26L505.67,24.52L526.17,24.58L533,24.72L574,24.67L580.83,25.06L608.17,25.29L615,25.15L731.17,26.58L738,26.18L772.17,26.86L779,26.9L792.67,27.16L799.5,27.08L820,27.27L826.83,27.48L847.33,27.62L854.17,27.88L977.17,28.6L984,28.88L997.67,28.81L1004.5,28.92L1011.33,42.61" style="vector-effect: none; fill: none; stroke: rgb(247, 163, 92); stroke-opacity: 1; stroke-width: 2px; opacity: 1;"/></g><g class="points"/><g class="text"/></g><g class="trace scatter tracef09e3f" style="stroke-miterlimit: 2; opacity: 1;"><g class="fills"/><g class="errorbars"/><g class="lines"><path class="js-line" d="M0,57.8L6.83,42.25L13.67,35.25L20.5,30.17L27.33,30.85L34.17,32.85L41,32.36L47.83,32.85L54.67,30.85L61.5,32.3L68.33,29.72L75.17,31.07L82,30.58L102.5,31.16L109.33,30.91L143.5,31.39L150.33,31.45L164,31.6L170.83,33.31L205,33.7L211.83,34.42L252.83,34.88L259.67,35.07L300.67,35.35L307.5,35.46L328,35.91L334.83,35.75L348.5,36.23L355.33,36.12L382.67,36.55L389.5,36.39L396.33,37.04L403.17,36.86L423.67,36.94L430.5,37.18L580.83,39.66L587.67,40.41L608.17,40.59L615,40.64L628.67,40.92L635.5,40.51L649.17,41.61L656,41.22L662.83,41.86L669.67,41.23L683.33,42.3L690.17,41.79L697,41.98L703.83,43.17L738,43.55L744.83,44.03L751.67,44.44L758.5,44.02L772.17,45.67L779,45.26L806.33,46.03L813.17,47.06L826.83,46.47L833.67,47.41L854.17,47.47L861,47.94L888.33,48.9L895.17,48.84L902,49.55L908.83,49.42L929.33,50.38L936.17,50.3L949.83,50.94L956.67,51.47L963.5,52.25L970.33,51.86L977.17,52.91L984,53.17L990.83,52.29L997.67,53.09L1004.5,53.62L1011.33,80.99" style="vector-effect: none; fill: none; stroke: rgb(128, 133, 233); stroke-opacity: 1; stroke-width: 2px; opacity: 1;"/></g><g class="points"/><g class="text"/></g></g></g></g><path class="xlines-above crisp" d="M0,0" style="fill: none;"/><path class="ylines-above crisp" d="M0,0" style="fill: none;"/><g class="overlines-above"/><g class="xaxislayer-above"><g class="xtick"><text text-anchor="middle" x="0" y="451" transform="translate(189.83,0)" style="font-family: 'Lucida Grande', 'Open Sans', verdana, arial, sans-serif; font-size: 10px; fill: rgb(0, 0, 0); fill-opacity: 1; white-space: pre; opacity: 1;">20</text></g><g class="xtick"><text text-anchor="middle" x="0" y="451" style="font-family: 'Lucida Grande', 'Open Sans', verdana, arial, sans-serif; font-size: 10px; fill: rgb(0, 0, 0); fill-opacity: 1; white-space: pre; opacity: 1;" transform="translate(326.5,0)">40</text></g><g class="xtick"><text text-anchor="middle" x="0" y="451" style="font-family: 'Lucida Grande', 'Open Sans', verdana, arial, sans-serif; font-size: 10px; fill: rgb(0, 0, 0); fill-opacity: 1; white-space: pre; opacity: 1;" transform="translate(463.17,0)">60</text></g><g class="xtick"><text text-anchor="middle" x="0" y="451" style="font-family: 'Lucida Grande', 'Open Sans', verdana, arial, sans-serif; font-size: 10px; fill: rgb(0, 0, 0); fill-opacity: 1; white-space: pre; opacity: 1;" transform="translate(599.83,0)">80</text></g><g class="xtick"><text text-anchor="middle" x="0" y="451" style="font-family: 'Lucida Grande', 'Open Sans', verdana, arial, sans-serif; font-size: 10px; fill: rgb(0, 0, 0); fill-opacity: 1; white-space: pre; opacity: 1;" transform="translate(736.5,0)">100</text></g><g class="xtick"><text text-anchor="middle" x="0" y="451" style="font-family: 'Lucida Grande', 'Open Sans', verdana, arial, sans-serif; font-size: 10px; fill: rgb(0, 0, 0); fill-opacity: 1; white-space: pre; opacity: 1;" transform="translate(873.17,0)">120</text></g><g class="xtick"><text text-anchor="middle" x="0" y="451" style="font-family: 'Lucida Grande', 'Open Sans', verdana, arial, sans-serif; font-size: 10px; fill: rgb(0, 0, 0); fill-opacity: 1; white-space: pre; opacity: 1;" transform="translate(1009.83,0)">140</text></g></g><g class="yaxislayer-above"><g class="ytick"><text text-anchor="end" x="54" y="3.5" transform="translate(0,435)" style="font-family: 'Lucida Grande', 'Open Sans', verdana, arial, sans-serif; font-size: 10px; fill: rgb(0, 0, 0); fill-opacity: 1; white-space: pre; opacity: 1;">0</text></g><g class="ytick"><text text-anchor="end" x="54" y="3.5" style="font-family: 'Lucida Grande', 'Open Sans', verdana, arial, sans-serif; font-size: 10px; fill: rgb(0, 0, 0); fill-opacity: 1; white-space: pre; opacity: 1;" transform="translate(0,384.37)">5</text></g><g class="ytick"><text text-anchor="end" x="54" y="3.5" style="font-family: 'Lucida Grande', 'Open Sans', verdana, arial, sans-serif; font-size: 10px; fill: rgb(0, 0, 0); fill-opacity: 1; white-space: pre; opacity: 1;" transform="translate(0,333.73)">10</text></g><g class="ytick"><text text-anchor="end" x="54" y="3.5" style="font-family: 'Lucida Grande', 'Open Sans', verdana, arial, sans-serif; font-size: 10px; fill: rgb(0, 0, 0); fill-opacity: 1; white-space: pre; opacity: 1;" transform="translate(0,283.1)">15</text></g><g class="ytick"><text text-anchor="end" x="54" y="3.5" style="font-family: 'Lucida Grande', 'Open Sans', verdana, arial, sans-serif; font-size: 10px; fill: rgb(0, 0, 0); fill-opacity: 1; white-space: pre; opacity: 1;" transform="translate(0,232.47)">20</text></g><g class="ytick"><text text-anchor="end" x="54" y="3.5" style="font-family: 'Lucida Grande', 'Open Sans', verdana, arial, sans-serif; font-size: 10px; fill: rgb(0, 0, 0); fill-opacity: 1; white-space: pre; opacity: 1;" transform="translate(0,181.84)">25</text></g><g class="ytick"><text text-anchor="end" x="54" y="3.5" style="font-family: 'Lucida Grande', 'Open Sans', verdana, arial, sans-serif; font-size: 10px; fill: rgb(0, 0, 0); fill-opacity: 1; white-space: pre; opacity: 1;" transform="translate(0,131.2)">30</text></g><g class="ytick"><text text-anchor="end" x="54" y="3.5" style="font-family: 'Lucida Grande', 'Open Sans', verdana, arial, sans-serif; font-size: 10px; fill: rgb(0, 0, 0); fill-opacity: 1; white-space: pre; opacity: 1;" transform="translate(0,80.57)">35</text></g></g><g class="overaxes-above"/></g></g><g class="polarlayer"/><g class="smithlayer"/><g class="ternarylayer"/><g class="geolayer"/><g class="funnelarealayer"/><g class="pielayer"/><g class="iciclelayer"/><g class="treemaplayer"/><g class="sunburstlayer"/><g class="glimages"/><defs id="topdefs-f1afa7"><g class="clips"/></defs><g class="layer-above"><g class="imagelayer"/><g class="shapelayer"/></g><g class="infolayer"><g class="g-gtitle"><text class="gtitle" x="550" y="25" text-anchor="middle" dy="0em" style="opacity: 1; font-family: 'Lucida Grande', 'Open Sans', verdana, arial, sans-serif; font-size: 20px; fill: rgb(42, 63, 95); fill-opacity: 1; white-space: pre;"><tspan class="line" dy="0em" x="550" y="25">Fastp: Sequence Quality</tspan><tspan class="line" dy="1.3em" x="550" y="25">​<tspan style="font-size:70%" dy="-0.6em">Read 1: Before filtering, 5 samples</tspan><tspan dy="0.42em">​</tspan></tspan></text></g><g class="g-xtitle"><text class="xtitle" x="572.5" y="472.3" text-anchor="middle" style="opacity: 0.3; font-family: 'Lucida Grande', 'Open Sans', verdana, arial, sans-serif; font-size: 14px; fill: rgb(0, 0, 0); fill-opacity: 1; white-space: pre;">Read Position</text></g><g class="g-ytitle"><text class="ytitle" transform="rotate(-90,26.865625,242.5)" x="26.865625" y="242.5" text-anchor="middle" style="opacity: 0.3; font-family: 'Lucida Grande', 'Open Sans', verdana, arial, sans-serif; font-size: 14px; fill: rgb(0, 0, 0); fill-opacity: 1; white-space: pre;">R1 Before filtering: Sequence Quality</text></g></g></svg>