<svg class="main-svg" xmlns="http://www.w3.org/2000/svg" xmlns:xlink="http://www.w3.org/1999/xlink" width="2200" height="1000" style="" viewBox="0 0 1100 500"><rect x="0" y="0" width="1100" height="500" style="fill: rgb(255, 255, 255); fill-opacity: 1;"/><defs id="defs-04420e"><g class="clips"><clipPath id="clip04420exyplot" class="plotclip"><rect width="1017" height="385"/></clipPath><clipPath class="axesclip" id="clip04420ex"><rect x="68" y="0" width="1017" height="500"/></clipPath><clipPath class="axesclip" id="clip04420ey"><rect x="0" y="50" width="1100" height="385"/></clipPath><clipPath class="axesclip" id="clip04420exy"><rect x="68" y="50" width="1017" height="385"/></clipPath></g><g class="gradients"/><g class="patterns"/></defs><g class="bglayer"/><g class="layer-below"><g class="imagelayer"/><g class="shapelayer"/></g><g class="cartesianlayer"><g class="subplot xy"><g class="layer-subplot"><g class="shapelayer"/><g class="imagelayer"/></g><g class="minor-gridlayer"><g class="x"/><g class="y"/></g><g class="gridlayer"><g class="x"><path class="xgrid crisp" transform="translate(251.89,0)" d="M0,50v385" style="stroke: rgb(0, 0, 0); stroke-opacity: 0.05; stroke-width: 1px;"/><path class="xgrid crisp" transform="translate(439.52,0)" d="M0,50v385" style="stroke: rgb(0, 0, 0); stroke-opacity: 0.05; stroke-width: 1px;"/><path class="xgrid crisp" transform="translate(627.16,0)" d="M0,50v385" style="stroke: rgb(0, 0, 0); stroke-opacity: 0.05; stroke-width: 1px;"/><path class="xgrid crisp" transform="translate(814.8,0)" d="M0,50v385" style="stroke: rgb(0, 0, 0); stroke-opacity: 0.05; stroke-width: 1px;"/><path class="xgrid crisp" transform="translate(1002.44,0)" d="M0,50v385" style="stroke: rgb(0, 0, 0); stroke-opacity: 0.05; stroke-width: 1px;"/></g><g class="y"><path class="ygrid crisp" transform="translate(0,376.47)" d="M68,0h1017" style="stroke: rgb(0, 0, 0); stroke-opacity: 0.05; stroke-width: 1px;"/><path class="ygrid crisp" transform="translate(0,317.94)" d="M68,0h1017" style="stroke: rgb(0, 0, 0); stroke-opacity: 0.05; stroke-width: 1px;"/><path class="ygrid crisp" transform="translate(0,259.40999999999997)" d="M68,0h1017" style="stroke: rgb(0, 0, 0); stroke-opacity: 0.05; stroke-width: 1px;"/><path class="ygrid crisp" transform="translate(0,200.87)" d="M68,0h1017" style="stroke: rgb(0, 0, 0); stroke-opacity: 0.05; stroke-width: 1px;"/><path class="ygrid crisp" transform="translate(0,142.34)" d="M68,0h1017" style="stroke: rgb(0, 0, 0); stroke-opacity: 0.05; stroke-width: 1px;"/><path class="ygrid crisp" transform="translate(0,83.81)" d="M68,0h1017" style="stroke: rgb(0, 0, 0); stroke-opacity: 0.05; stroke-width: 1px;"/></g></g><g class="zerolinelayer"><path class="yzl zl crisp" transform="translate(0,435)" d="M68,0h1017" style="stroke: rgb(0, 0, 0); stroke-opacity: 0.05; stroke-width: 2px;"/></g><g class="layer-between"><g class="shapelayer"/><g class="imagelayer"/></g><path class="xlines-below"/><path class="ylines-below"/><g class="overlines-below"/><g class="xaxislayer-below"/><g class="yaxislayer-below"/><g class="overaxes-below"/><g class="overplot"><g class="xy" transform="translate(68,50)" clip-path="url(#clip04420exyplot)"><g class="scatterlayer mlayer"><g class="trace scatter trace69d138" style="stroke-miterlimit: 2; opacity: 1;"><g class="fills"/><g class="errorbars"/><g class="lines"><path class="js-line" d="M0,385L112.58,385L116.34,383.87L120.09,382.75L123.84,383.87L127.59,382.75L131.35,359.1L135.1,361.35L138.85,374.87L142.61,371.49L146.36,371.49L150.11,359.1L153.86,354.6L157.62,362.48L161.37,342.21L165.12,336.58L168.87,341.08L176.38,365.86L180.13,362.48L183.89,370.36L187.64,356.85L191.39,361.35L195.14,352.34L198.9,341.08L202.65,338.83L210.15,332.07L213.91,355.72L217.66,361.35L221.41,356.85L225.17,353.47L228.92,341.08L232.67,345.59L236.42,319.69L240.18,354.6L243.93,345.59L247.68,344.46L251.44,352.34L255.19,359.1L258.94,359.1L262.69,355.72L266.45,336.58L270.2,342.21L273.95,335.45L277.7,323.07L281.46,326.44L285.21,324.19L288.96,335.45L296.47,356.85L300.22,350.09L303.97,333.2L307.73,328.7L311.48,307.3L315.23,309.55L318.99,321.94L322.74,317.43L326.49,320.81L330.24,332.07L334,336.58L337.75,335.45L341.5,338.83L345.25,315.18L349.01,321.94L352.76,308.43L356.51,291.53L360.27,310.68L364.02,284.78L367.77,307.3L371.52,334.33L375.28,336.58L379.03,337.7L382.78,312.93L386.54,301.67L390.29,298.29L394.04,305.05L397.79,266.76L401.55,309.55L405.3,302.8L409.05,315.18L412.8,293.79L416.56,302.8L420.31,315.18L427.82,285.9L431.57,281.4L435.32,264.51L439.07,290.41L442.83,301.67L446.58,281.4L450.33,312.93L454.08,310.68L457.84,318.56L461.59,296.04L465.34,298.29L469.1,285.9L472.85,255.5L476.6,274.64L480.35,257.75L484.11,297.17L487.86,290.41L491.61,318.56L495.37,311.8L499.12,280.27L502.87,290.41L506.62,241.99L510.38,252.12L514.13,227.35L521.63,290.41L525.39,281.4L529.14,281.4L532.89,282.53L536.65,271.27L540.4,284.78L544.15,243.11L547.9,241.99L551.66,270.14L555.41,232.98L559.16,238.61L562.92,240.86L566.67,307.3L570.42,252.12L574.17,279.15L577.93,280.27L589.18,235.23L592.94,232.98L596.69,235.23L600.44,260L604.2,266.76L607.95,249.87L611.7,281.4L615.45,256.63L619.21,243.11L622.96,226.22L630.46,211.58L634.22,230.73L637.97,210.46L641.72,261.13L645.48,223.97L649.23,237.48L652.98,256.63L656.73,225.1L660.49,236.36L664.24,201.45L667.99,212.71L671.75,168.79L675.5,213.84L679.25,212.71L683,228.47L686.76,229.6L690.51,222.84L694.26,232.98L698.01,234.1L701.77,228.47L709.27,169.92L713.03,178.93L716.78,204.83L720.53,201.45L724.28,195.82L728.04,202.57L731.79,200.32L735.54,212.71L743.05,205.95L746.8,178.93L750.55,183.43L754.31,225.1L758.06,184.56L761.81,186.81L765.56,222.84L769.32,194.69L773.07,222.84L776.82,171.04L780.58,182.3L784.33,158.66L788.08,169.92L791.83,174.42L795.59,180.05L799.34,154.15L803.09,192.44L806.85,218.34L810.6,211.58L814.35,167.67L818.1,186.81L821.86,192.44L825.61,168.79L829.36,132.76L833.11,198.07L836.87,149.65L840.62,177.8L844.37,165.41L848.13,173.3L851.88,214.96L855.63,207.08L859.38,185.68L863.14,184.56L866.89,172.17L874.39,196.94L878.15,239.74L881.9,177.8L885.65,200.32L889.41,205.95L893.16,187.94L896.91,187.94L900.66,200.32L904.42,167.67L908.17,178.93L911.92,203.7L915.68,207.08L919.43,192.44L923.18,183.43L926.93,214.96L930.69,185.68L934.44,167.67L938.19,166.54L941.94,187.94L945.7,204.83L949.45,199.2L953.2,199.2L956.96,209.33L960.71,217.21L964.46,231.85L968.21,195.82L971.97,221.72L975.72,212.71L979.47,210.46L983.23,192.44L986.98,198.07L990.73,226.22L994.48,218.34L998.24,212.71L1001.99,237.48L1005.74,226.22L1009.49,237.48L1013.25,227.35L1017,300.54" style="vector-effect: none; fill: none; stroke: rgb(124, 181, 236); stroke-opacity: 1; stroke-width: 2px; opacity: 1;"/></g><g class="points"/><g class="text"/></g><g class="trace scatter trace175b51" style="stroke-miterlimit: 2; opacity: 1;"><g class="fills"/><g class="errorbars"/><g class="lines"><path class="js-line" d="M0,385L127.59,385L131.35,337.26L135.1,353.63L138.85,363.18L142.61,365.91L146.36,353.63L150.11,348.18L153.86,333.17L157.62,333.17L161.37,330.45L165.12,307.26L168.87,327.72L172.63,329.08L176.38,360.45L180.13,352.27L183.89,359.09L187.64,341.36L191.39,315.44L195.14,311.35L198.9,305.9L202.65,290.89L206.4,299.08L210.15,315.44L213.91,342.72L217.66,363.18L221.41,345.45L225.17,323.63L228.92,323.63L232.67,292.26L236.42,311.35L240.18,294.98L243.93,289.53L247.68,307.26L251.44,330.45L255.19,334.54L258.94,344.08L262.69,319.53L266.45,303.17L270.2,299.08L273.95,282.71L277.7,285.44L281.46,293.62L285.21,296.35L288.96,312.72L292.72,309.99L296.47,329.08L300.22,327.72L303.97,307.26L307.73,303.17L311.48,282.71L315.23,260.89L318.99,278.62L322.74,258.16L326.49,305.9L330.24,288.17L334,322.26L337.75,308.62L341.5,304.53L345.25,297.71L349.01,285.44L352.76,271.8L356.51,249.98L360.27,263.62L364.02,262.25L367.77,299.08L371.52,299.08L375.28,318.17L379.03,305.9L382.78,312.72L386.54,277.25L390.29,239.07L394.04,241.79L397.79,229.52L401.55,234.97L405.3,258.16L409.05,297.71L412.8,316.81L416.56,299.08L420.31,286.8L424.06,270.44L427.82,233.61L431.57,224.06L435.32,226.79L439.07,228.16L442.83,240.43L446.58,281.35L450.33,251.34L454.08,294.98L457.84,281.35L461.59,251.34L465.34,254.07L469.1,177.69L472.85,211.79L476.6,215.88L480.35,214.52L484.11,260.89L487.86,262.25L491.61,266.34L499.12,248.61L502.87,211.79L506.62,230.88L510.38,188.6L514.13,179.06L517.88,202.24L521.63,214.52L525.39,271.8L529.14,234.97L532.89,289.53L536.65,255.43L540.4,209.06L544.15,230.88L547.9,173.6L551.66,217.24L555.41,174.96L562.92,233.61L566.67,274.53L570.42,259.52L574.17,248.61L577.93,237.7L581.68,236.34L585.43,184.51L589.18,188.6L592.94,181.78L596.69,192.7L600.44,219.97L604.2,233.61L607.95,230.88L611.7,225.43L615.45,237.7L619.21,240.43L622.96,200.88L626.71,153.14L630.46,195.42L634.22,185.88L637.97,194.06L641.72,236.34L645.48,224.06L649.23,264.98L656.73,230.88L660.49,230.88L664.24,159.96L667.99,213.15L671.75,170.87L675.5,215.88L679.25,239.07L683,239.07L686.76,230.88L690.51,245.89L694.26,211.79L698.01,271.8L701.77,219.97L705.52,196.79L709.27,192.7L713.03,189.97L716.78,204.97L720.53,210.43L724.28,233.61L728.04,237.7L731.79,219.97L735.54,226.79L739.3,229.52L743.05,189.97L746.8,222.7L750.55,170.87L754.31,230.88L758.06,195.42L761.81,244.52L765.56,245.89L769.32,239.07L773.07,255.43L776.82,221.34L780.58,240.43L784.33,181.78L788.08,203.61L791.83,230.88L795.59,209.06L799.34,252.71L803.09,277.25L806.85,241.79L810.6,251.34L818.1,199.51L821.86,230.88L825.61,232.25L829.36,232.25L833.11,239.07L836.87,222.7L840.62,267.71L844.37,256.8L848.13,240.43L851.88,267.71L859.38,255.43L863.14,241.79L866.89,232.25L870.64,243.16L874.39,239.07L878.15,286.8L881.9,270.44L885.65,296.35L889.41,262.25L893.16,249.98L896.91,255.43L900.66,239.07L904.42,241.79L908.17,240.43L911.92,256.8L915.68,260.89L919.43,284.07L923.18,259.52L926.93,258.16L930.69,282.71L938.19,264.98L941.94,267.71L945.7,254.07L949.45,275.89L953.2,273.16L956.96,266.34L960.71,303.17L964.46,284.07L968.21,255.43L971.97,262.25L975.72,282.71L979.47,278.62L983.23,294.98L986.98,274.53L990.73,274.53L994.48,300.44L998.24,290.89L1001.99,297.71L1009.49,269.07L1013.25,316.81L1017,342.72" style="vector-effect: none; fill: none; stroke: rgb(67, 67, 72); stroke-opacity: 1; stroke-width: 2px; opacity: 1;"/></g><g class="points"/><g class="text"/></g><g class="trace scatter trace344fc6" style="stroke-miterlimit: 2; opacity: 1;"><g class="fills"/><g class="errorbars"/><g class="lines"><path class="js-line" d="M0,385L127.59,385L131.35,328.48L135.1,335.59L138.85,347.63L142.61,345.16L146.36,329.72L150.11,326.63L153.86,315.82L157.62,316.75L161.37,298.52L165.12,294.2L168.87,303.47L172.63,308.72L176.38,342.07L180.13,340.84L183.89,326.63L187.64,313.35L191.39,308.1L195.14,299.14L198.9,292.97L202.65,296.36L206.4,282.16L210.15,308.41L213.91,316.44L217.66,322.61L221.41,322.61L225.17,306.86L228.92,281.85L232.67,282.16L236.42,285.24L240.18,263.01L243.93,265.79L251.44,300.38L255.19,313.35L258.94,318.29L262.69,302.54L266.45,289.57L270.2,263.63L273.95,267.33L277.7,250.35L281.46,242.62L285.21,275.05L288.96,280.3L292.72,296.67L296.47,308.41L300.22,294.82L303.97,282.16L307.73,278.14L311.48,250.35L315.23,254.98L318.99,248.8L322.74,238.92L326.49,248.49L330.24,284.94L334,284.63L337.75,305.94L341.5,277.83L345.25,273.2L352.76,240.15L356.51,239.54L360.27,236.45L364.02,238.92L367.77,261.46L371.52,277.83L375.28,288.33L379.03,285.55L382.78,273.2L386.54,253.12L390.29,233.36L394.04,233.98L397.79,227.18L401.55,222.55L409.05,259.61L412.8,273.2L416.56,266.71L420.31,278.14L427.82,238.92L431.57,229.04L435.32,206.49L439.07,223.78L442.83,243.86L446.58,238.3L450.33,254.98L454.08,258.37L457.84,260.54L461.59,249.11L465.34,252.51L469.1,208.34L472.85,242.62L476.6,207.42L480.35,235.83L484.11,237.06L491.61,260.23L495.37,273.82L499.12,246.64L502.87,246.64L506.62,244.79L510.38,209.58L514.13,210.5L517.88,229.96L521.63,217.92L525.39,237.06L529.14,259.92L532.89,266.71L536.65,266.1L540.4,262.08L547.9,223.78L551.66,216.68L555.41,223.17L559.16,216.37L562.92,192.59L566.67,288.33L570.42,245.71L574.17,255.29L577.93,264.86L581.68,247.26L585.43,237.37L589.18,222.55L592.94,215.75L596.69,231.81L600.44,221.93L604.2,221.62L607.95,223.78L611.7,254.98L615.45,248.18L619.21,237.68L622.96,239.84L626.71,231.51L630.46,219.77L634.22,219.46L637.97,228.42L641.72,229.34L645.48,243.55L649.23,250.96L652.98,249.42L656.73,259.61L664.24,231.2L667.99,225.33L671.75,232.43L675.5,227.49L679.25,237.06L683,251.58L686.76,236.14L690.51,241.39L694.26,274.74L698.01,238.92L701.77,249.42L705.52,246.95L709.27,233.67L713.03,238.3L716.78,233.05L720.53,239.54L724.28,253.74L728.04,263.01L731.79,250.04L735.54,244.17L739.3,257.45L743.05,249.42L746.8,250.35L750.55,250.04L754.31,243.86L758.06,246.02L761.81,264.86L765.56,243.24L773.07,258.99L776.82,268.57L780.58,271.96L784.33,263.63L791.83,208.65L795.59,242.32L799.34,243.55L803.09,261.46L806.85,269.8L810.6,249.73L814.35,267.95L818.1,261.46L821.86,254.36L825.61,258.68L829.36,255.29L833.11,240.15L836.87,242.62L840.62,252.2L848.13,264.86L851.88,266.4L855.63,267.33L859.38,262.7L863.14,258.68L866.89,247.26L870.64,260.54L874.39,252.82L878.15,257.45L881.9,259.3L885.65,258.07L889.41,275.05L893.16,258.07L896.91,274.13L900.66,260.85L904.42,258.68L908.17,248.18L911.92,247.26L915.68,262.39L919.43,266.4L923.18,261.15L926.93,259.61L930.69,272.89L934.44,267.33L938.19,272.58L941.94,265.17L945.7,271.66L949.45,246.95L953.2,283.39L956.96,270.11L960.71,264.24L964.46,276.91L968.21,258.68L971.97,272.89L975.72,262.08L979.47,259.92L983.23,267.95L986.98,271.04L990.73,261.15L994.48,274.13L998.24,266.1L1001.99,272.27L1013.25,306.86L1017,349.79" style="vector-effect: none; fill: none; stroke: rgb(144, 237, 125); stroke-opacity: 1; stroke-width: 2px; opacity: 1;"/></g><g class="points"/><g class="text"/></g><g class="trace scatter tracec88af0" style="stroke-miterlimit: 2; opacity: 1;"><g class="fills"/><g class="errorbars"/><g class="lines"><path class="js-line" d="M0,385L112.58,385L116.34,383.55L135.1,380.64L138.85,382.09L142.61,382.82L146.36,377L150.11,379.91L153.86,380.64L157.62,382.09L161.37,373.37L165.12,379.18L168.87,379.91L172.63,380.64L176.38,379.18L180.13,380.64L183.89,379.91L187.64,382.82L191.39,379.91L195.14,382.09L198.9,381.36L202.65,376.27L206.4,374.82L210.15,378.46L213.91,379.18L217.66,380.64L221.41,375.55L225.17,379.18L228.92,378.46L232.67,377.73L236.42,374.09L243.93,374.09L247.68,378.46L251.44,376.27L255.19,377L262.69,376.27L266.45,373.37L273.95,368.28L277.7,369.73L285.21,368.28L288.96,364.64L292.72,373.37L296.47,374.82L300.22,371.18L303.97,376.27L307.73,373.37L311.48,369L322.74,361L326.49,370.46L330.24,368.28L334,368.28L337.75,371.18L341.5,369.73L345.25,362.46L349.01,362.46L352.76,361L356.51,363.91L360.27,366.82L364.02,361.73L367.77,356.64L371.52,366.09L375.28,355.19L379.03,362.46L382.78,356.64L386.54,353.01L390.29,350.1L394.04,364.64L397.79,350.82L401.55,346.46L405.3,361L409.05,357.37L412.8,355.91L416.56,362.46L420.31,353.01L424.06,353.01L427.82,350.1L431.57,343.55L435.32,353.01L439.07,343.55L442.83,339.92L446.58,355.91L450.33,345.01L454.08,351.55L457.84,355.91L461.59,350.82L465.34,325.37L469.1,338.46L472.85,323.92L476.6,334.1L480.35,326.1L484.11,329.01L487.86,342.1L491.61,341.37L495.37,342.83L499.12,342.83L502.87,333.37L506.62,321.74L510.38,322.47L514.13,329.74L517.88,328.28L521.63,323.19L525.39,320.28L529.14,323.92L532.89,329.74L536.65,325.37L540.4,321.01L544.15,319.56L547.9,305.74L551.66,312.29L555.41,311.56L559.16,309.38L562.92,298.47L566.67,317.38L570.42,309.38L574.17,321.74L581.68,288.29L585.43,298.47L589.18,280.29L592.94,281.75L596.69,289.02L600.44,291.2L604.2,311.56L607.95,273.75L611.7,299.2L615.45,287.56L619.21,270.11L622.96,278.84L626.71,279.57L630.46,261.39L634.22,254.84L637.97,270.11L641.72,275.93L645.48,270.11L649.23,274.48L652.98,259.21L656.73,261.39L660.49,252.66L664.24,244.66L667.99,243.94L671.75,262.11L675.5,235.94L679.25,236.66L683,266.48L686.76,250.48L690.51,246.84L694.26,217.03L698.01,235.94L701.77,216.3L705.52,202.49L709.27,187.22L713.03,194.49L716.78,206.85L720.53,226.48L724.28,210.49L728.04,216.3L731.79,214.85L735.54,214.85L739.3,190.85L743.05,180.67L746.8,151.59L750.55,181.4L754.31,172.68L758.06,179.95L761.81,179.95L765.56,177.04L769.32,174.86L773.07,177.77L776.82,158.13L780.58,150.86L784.33,163.22L788.08,153.77L791.83,148.68L795.59,131.96L799.34,145.77L803.09,148.68L806.85,138.5L810.6,162.5L814.35,133.41L818.1,121.05L821.86,104.33L825.61,112.32L829.36,129.05L833.11,127.59L836.87,101.42L840.62,107.96L844.37,127.59L848.13,113.78L851.88,115.23L855.63,127.59L859.38,117.41L863.14,67.97L866.89,96.33L870.64,68.7L874.39,67.97L878.15,68.7L881.9,95.6L885.65,73.06L889.41,87.6L893.16,94.87L896.91,78.88L900.66,94.15L904.42,62.15L908.17,51.24L911.92,54.88L915.68,41.06L919.43,70.15L923.18,70.15L926.93,43.97L930.69,75.97L938.19,69.42L941.94,58.52L945.7,42.52L949.45,49.06L953.2,54.15L956.96,37.43L960.71,73.79L964.46,22.89L971.97,45.43L975.72,31.61L979.47,25.07L983.23,38.88L986.98,19.98L990.73,19.25L994.48,57.79L998.24,46.88L1001.99,38.88" style="vector-effect: none; fill: none; stroke: rgb(247, 163, 92); stroke-opacity: 1; stroke-width: 2px; opacity: 1;"/></g><g class="points"/><g class="text"/></g><g class="trace scatter trace63b68e" style="stroke-miterlimit: 2; opacity: 1;"><g class="fills"/><g class="errorbars"/><g class="lines"><path class="js-line" d="M0,385L112.58,385L116.34,373.47L120.09,378.08L123.84,378.08L131.35,373.47L135.1,380.39L138.85,380.39L142.61,373.47L146.36,380.39L150.11,361.93L153.86,371.16L157.62,373.47L161.37,359.62L165.12,371.16L168.87,361.93L172.63,368.85L176.38,378.08L180.13,373.47L183.89,373.47L187.64,364.24L191.39,373.47L195.14,366.54L198.9,364.24L202.65,350.4L206.4,357.32L210.15,361.93L213.91,366.54L217.66,352.7L221.41,359.62L225.17,350.4L228.92,357.32L232.67,373.47L236.42,357.32L240.18,345.78L243.93,341.17L247.68,348.09L251.44,348.09L255.19,359.62L258.94,357.32L262.69,361.93L266.45,350.4L270.2,311.18L273.95,341.17L277.7,338.86L281.46,329.63L285.21,343.48L288.96,329.63L292.72,355.01L296.47,350.4L300.22,350.4L303.97,352.7L307.73,338.86L311.48,341.17L315.23,348.09L318.99,318.1L322.74,331.94L330.24,331.94L334,364.24L337.75,334.25L341.5,331.94L345.25,329.63L349.01,338.86L352.76,318.1L356.51,334.25L360.27,338.86L364.02,315.79L367.77,331.94L371.52,325.02L375.28,334.25L379.03,355.01L382.78,322.71L386.54,313.48L390.29,336.55L394.04,338.86L397.79,331.94L401.55,318.1L405.3,308.87L409.05,315.79L412.8,322.71L416.56,334.25L420.31,313.48L424.06,313.48L427.82,306.56L431.57,313.48L435.32,322.71L439.07,313.48L442.83,311.18L446.58,301.95L454.08,334.25L457.84,297.34L461.59,320.41L465.34,292.72L469.1,318.1L472.85,318.1L476.6,292.72L480.35,301.95L484.11,292.72L487.86,318.1L495.37,313.48L499.12,306.56L506.62,297.34L510.38,297.34L514.13,288.11L517.88,274.27L521.63,304.26L525.39,290.42L529.14,281.19L532.89,299.64L540.4,253.5L544.15,290.42L547.9,269.65L551.66,301.95L555.41,244.28L559.16,248.89L562.92,299.64L566.67,292.72L570.42,269.65L574.17,235.05L577.93,308.87L581.68,283.49L585.43,297.34L589.18,278.88L592.94,274.27L596.69,255.81L600.44,267.35L604.2,271.96L607.95,246.58L611.7,276.57L615.45,276.57L619.21,248.89L622.96,288.11L626.71,260.43L630.46,265.04L634.22,228.13L637.97,246.58L641.72,216.59L645.48,239.66L649.23,241.97L652.98,255.81L656.73,232.74L660.49,276.57L664.24,188.91L667.99,246.58L671.75,241.97L675.5,228.13L679.25,195.83L683,244.28L686.76,221.21L690.51,221.21L694.26,223.51L698.01,223.51L701.77,200.44L705.52,246.58L709.27,228.13L713.03,184.3L716.78,195.83L720.53,241.97L724.28,209.67L728.04,225.82L731.79,225.82L735.54,237.36L739.3,205.06L743.05,186.6L746.8,181.99L750.55,214.29L754.31,211.98L761.81,181.99L765.56,209.67L769.32,191.22L773.07,161.23L776.82,200.44L780.58,228.13L784.33,168.15L788.08,184.3L791.83,165.84L795.59,181.99L799.34,156.61L803.09,177.38L806.85,202.75L810.6,235.05L814.35,211.98L818.1,198.14L821.86,177.38L825.61,175.07L829.36,181.99L833.11,131.24L836.87,156.61L840.62,168.15L844.37,140.46L848.13,186.6L851.88,161.23L855.63,152L859.38,142.77L863.14,156.61L866.89,184.3L870.64,133.54L874.39,98.94L878.15,156.61L881.9,138.16L885.65,138.16L889.41,147.39L893.16,122.01L896.91,108.17L900.66,128.93L904.42,140.46L908.17,105.86L911.92,133.54L915.68,131.24L919.43,108.17L923.18,94.33L930.69,149.69L934.44,168.15L938.19,138.16L941.94,147.39L945.7,126.62L949.45,140.46L953.2,122.01L956.96,145.08L960.71,92.02L964.46,117.4L968.21,156.61L971.97,75.87L975.72,103.55L979.47,85.1L983.23,96.63L986.98,119.7L990.73,101.25L994.48,92.02L998.24,149.69L1001.99,59.72" style="vector-effect: none; fill: none; stroke: rgb(128, 133, 233); stroke-opacity: 1; stroke-width: 2px; opacity: 1;"/></g><g class="points"/><g class="text"/></g></g></g></g><path class="xlines-above crisp" d="M0,0" style="fill: none;"/><path class="ylines-above crisp" d="M0,0" style="fill: none;"/><g class="overlines-above"/><g class="xaxislayer-above"><g class="xtick"><text text-anchor="middle" x="0" y="451" transform="translate(251.89,0)" style="font-family: 'Lucida Grande', 'Open Sans', verdana, arial, sans-serif; font-size: 10px; fill: rgb(0, 0, 0); fill-opacity: 1; white-space: pre; opacity: 1;">50</text></g><g class="xtick"><text text-anchor="middle" x="0" y="451" style="font-family: 'Lucida Grande', 'Open Sans', verdana, arial, sans-serif; font-size: 10px; fill: rgb(0, 0, 0); fill-opacity: 1; white-space: pre; opacity: 1;" transform="translate(439.52,0)">100</text></g><g class="xtick"><text text-anchor="middle" x="0" y="451" style="font-family: 'Lucida Grande', 'Open Sans', verdana, arial, sans-serif; font-size: 10px; fill: rgb(0, 0, 0); fill-opacity: 1; white-space: pre; opacity: 1;" transform="translate(627.16,0)">150</text></g><g class="xtick"><text text-anchor="middle" x="0" y="451" style="font-family: 'Lucida Grande', 'Open Sans', verdana, arial, sans-serif; font-size: 10px; fill: rgb(0, 0, 0); fill-opacity: 1; white-space: pre; opacity: 1;" transform="translate(814.8,0)">200</text></g><g class="xtick"><text text-anchor="middle" x="0" y="451" style="font-family: 'Lucida Grande', 'Open Sans', verdana, arial, sans-serif; font-size: 10px; fill: rgb(0, 0, 0); fill-opacity: 1; white-space: pre; opacity: 1;" transform="translate(1002.44,0)">250</text></g></g><g class="yaxislayer-above"><g class="ytick"><text text-anchor="end" x="62" y="3.5" transform="translate(0,435)" style="font-family: 'Lucida Grande', 'Open Sans', verdana, arial, sans-serif; font-size: 10px; fill: rgb(0, 0, 0); fill-opacity: 1; white-space: pre; opacity: 1;">0%</text></g><g class="ytick"><text text-anchor="end" x="62" y="3.5" style="font-family: 'Lucida Grande', 'Open Sans', verdana, arial, sans-serif; font-size: 10px; fill: rgb(0, 0, 0); fill-opacity: 1; white-space: pre; opacity: 1;" transform="translate(0,376.47)">0.2%</text></g><g class="ytick"><text text-anchor="end" x="62" y="3.5" style="font-family: 'Lucida Grande', 'Open Sans', verdana, arial, sans-serif; font-size: 10px; fill: rgb(0, 0, 0); fill-opacity: 1; white-space: pre; opacity: 1;" transform="translate(0,317.94)">0.4%</text></g><g class="ytick"><text text-anchor="end" x="62" y="3.5" style="font-family: 'Lucida Grande', 'Open Sans', verdana, arial, sans-serif; font-size: 10px; fill: rgb(0, 0, 0); fill-opacity: 1; white-space: pre; opacity: 1;" transform="translate(0,259.40999999999997)">0.6%</text></g><g class="ytick"><text text-anchor="end" x="62" y="3.5" style="font-family: 'Lucida Grande', 'Open Sans', verdana, arial, sans-serif; font-size: 10px; fill: rgb(0, 0, 0); fill-opacity: 1; white-space: pre; opacity: 1;" transform="translate(0,200.87)">0.8%</text></g><g class="ytick"><text text-anchor="end" x="62" y="3.5" style="font-family: 'Lucida Grande', 'Open Sans', verdana, arial, sans-serif; font-size: 10px; fill: rgb(0, 0, 0); fill-opacity: 1; white-space: pre; opacity: 1;" transform="translate(0,142.34)">1%</text></g><g class="ytick"><text text-anchor="end" x="62" y="3.5" style="font-family: 'Lucida Grande', 'Open Sans', verdana, arial, sans-serif; font-size: 10px; fill: rgb(0, 0, 0); fill-opacity: 1; white-space: pre; opacity: 1;" transform="translate(0,83.81)">1.2%</text></g></g><g class="overaxes-above"/></g></g><g class="polarlayer"/><g class="smithlayer"/><g class="ternarylayer"/><g class="geolayer"/><g class="funnelarealayer"/><g class="pielayer"/><g class="iciclelayer"/><g class="treemaplayer"/><g class="sunburstlayer"/><g class="glimages"/><defs id="topdefs-04420e"><g class="clips"/></defs><g class="layer-above"><g class="imagelayer"/><g class="shapelayer"/></g><g class="infolayer"><g class="g-gtitle"><text class="gtitle" x="550" y="25" text-anchor="middle" dy="0em" style="opacity: 1; font-family: 'Lucida Grande', 'Open Sans', verdana, arial, sans-serif; font-size: 20px; fill: rgb(42, 63, 95); fill-opacity: 1; white-space: pre;"><tspan class="line" dy="0em" x="550" y="25">Fastp: Insert Size Distribution</tspan><tspan class="line" dy="1.3em" x="550" y="25">​<tspan style="font-size:70%" dy="-0.6em">5 samples</tspan><tspan dy="0.42em">​</tspan></tspan></text></g><g class="g-xtitle"><text class="xtitle" x="576.5" y="472.3" text-anchor="middle" style="opacity: 0.3; font-family: 'Lucida Grande', 'Open Sans', verdana, arial, sans-serif; font-size: 14px; fill: rgb(0, 0, 0); fill-opacity: 1; white-space: pre;">Insert size</text></g><g class="g-ytitle"><text class="ytitle" transform="rotate(-90,22.19375,242.5)" x="22.19375" y="242.5" text-anchor="middle" style="opacity: 0.3; font-family: 'Lucida Grande', 'Open Sans', verdana, arial, sans-serif; font-size: 14px; fill: rgb(0, 0, 0); fill-opacity: 1; white-space: pre;">Read percent</text></g></g></svg>