<svg class="main-svg" xmlns="http://www.w3.org/2000/svg" xmlns:xlink="http://www.w3.org/1999/xlink" width="2200" height="1000" style="" viewBox="0 0 1100 500"><rect x="0" y="0" width="1100" height="500" style="fill: rgb(255, 255, 255); fill-opacity: 1;"/><defs id="defs-a9fef5"><g class="clips"><clipPath id="clipa9fef5xyplot" class="plotclip"><rect width="1013" height="385"/></clipPath><clipPath class="axesclip" id="clipa9fef5x"><rect x="61" y="0" width="1013" height="500"/></clipPath><clipPath class="axesclip" id="clipa9fef5y"><rect x="0" y="50" width="1100" height="385"/></clipPath><clipPath class="axesclip" id="clipa9fef5xy"><rect x="61" y="50" width="1013" height="385"/></clipPath></g><g class="gradients"/><g class="patterns"/></defs><g class="bglayer"/><g class="layer-below"><g class="imagelayer"/><g class="shapelayer"/></g><g class="cartesianlayer"><g class="subplot xy"><g class="layer-subplot"><g class="shapelayer"/><g class="imagelayer"/></g><g class="minor-gridlayer"><g class="x"/><g class="y"/></g><g class="gridlayer"><g class="x"><path class="xgrid crisp" transform="translate(263.6,0)" d="M0,50v385" style="stroke: rgb(0, 0, 0); stroke-opacity: 0.05; stroke-width: 1px;"/><path class="xgrid crisp" transform="translate(466.2,0)" d="M0,50v385" style="stroke: rgb(0, 0, 0); stroke-opacity: 0.05; stroke-width: 1px;"/><path class="xgrid crisp" transform="translate(668.8,0)" d="M0,50v385" style="stroke: rgb(0, 0, 0); stroke-opacity: 0.05; stroke-width: 1px;"/><path class="xgrid crisp" transform="translate(871.4,0)" d="M0,50v385" style="stroke: rgb(0, 0, 0); stroke-opacity: 0.05; stroke-width: 1px;"/></g><g class="y"><path class="ygrid crisp" transform="translate(0,390.33)" d="M61,0h1013" style="stroke: rgb(0, 0, 0); stroke-opacity: 0.05; stroke-width: 1px;"/><path class="ygrid crisp" transform="translate(0,345.67)" d="M61,0h1013" style="stroke: rgb(0, 0, 0); stroke-opacity: 0.05; stroke-width: 1px;"/><path class="ygrid crisp" transform="translate(0,301)" d="M61,0h1013" style="stroke: rgb(0, 0, 0); stroke-opacity: 0.05; stroke-width: 1px;"/><path class="ygrid crisp" transform="translate(0,256.33000000000004)" d="M61,0h1013" style="stroke: rgb(0, 0, 0); stroke-opacity: 0.05; stroke-width: 1px;"/><path class="ygrid crisp" transform="translate(0,211.67)" d="M61,0h1013" style="stroke: rgb(0, 0, 0); stroke-opacity: 0.05; stroke-width: 1px;"/><path class="ygrid crisp" transform="translate(0,167)" d="M61,0h1013" style="stroke: rgb(0, 0, 0); stroke-opacity: 0.05; stroke-width: 1px;"/><path class="ygrid crisp" transform="translate(0,122.34)" d="M61,0h1013" style="stroke: rgb(0, 0, 0); stroke-opacity: 0.05; stroke-width: 1px;"/><path class="ygrid crisp" transform="translate(0,77.67)" d="M61,0h1013" style="stroke: rgb(0, 0, 0); stroke-opacity: 0.05; stroke-width: 1px;"/></g></g><g class="zerolinelayer"><path class="xzl zl crisp" transform="translate(61,0)" d="M0,50v385" style="stroke: rgb(0, 0, 0); stroke-opacity: 0.05; stroke-width: 2px;"/><path class="yzl zl crisp" transform="translate(0,435)" d="M61,0h1013" style="stroke: rgb(0, 0, 0); stroke-opacity: 0.05; stroke-width: 2px;"/></g><g class="layer-between"><g class="shapelayer"/><g class="imagelayer"/></g><path class="xlines-below"/><path class="ylines-below"/><g class="overlines-below"/><g class="xaxislayer-below"/><g class="yaxislayer-below"/><g class="overaxes-below"/><g class="overplot"><g class="xy" transform="translate(61,50)" clip-path="url(#clipa9fef5xyplot)"><g class="scatterlayer mlayer"><g class="trace scatter trace5fb368" style="stroke-miterlimit: 2; opacity: 1;"><g class="fills"/><g class="errorbars"/><g class="lines"><path class="js-line" d="M0,385L243.12,384.31L253.25,384L303.9,381.38L314.03,380.09L324.16,378.67L334.29,376.32L364.68,363.11L374.81,355.54L384.94,345.49L395.07,331.55L405.2,315.12L415.33,294.55L425.46,275.48L435.59,273.67L445.72,281.91L455.85,284.6L465.98,288.51L476.11,299.83L486.24,317.21L496.37,331.59L506.5,334.98L516.63,342.03L526.76,353.11L536.89,359.91L547.02,364.37L557.15,366.45L567.28,366.63L577.41,371.35L587.54,378.22L597.67,380.3L617.93,380.42L628.06,381.85L648.32,383.65L658.45,384.08L719.23,384.77L729.36,384.75L850.92,385L861.05,385L1013,385" style="vector-effect: none; fill: none; stroke: rgb(240, 173, 78); stroke-opacity: 1; stroke-width: 2px; opacity: 1;"/></g><g class="points"/><g class="text"/></g><g class="trace scatter tracee8290b" style="stroke-miterlimit: 2; opacity: 1;"><g class="fills"/><g class="errorbars"/><g class="lines"><path class="js-line" d="M0,385L243.12,384.32L253.25,384.02L314.03,380.44L324.16,378.83L334.29,376.59L344.42,372.53L354.55,368.71L364.68,363.72L384.94,345.31L395.07,331.97L405.2,314.65L415.33,295.35L425.46,277.95L435.59,276.15L445.72,281.76L455.85,282.47L465.98,288.49L476.11,300.12L486.24,316.16L496.37,329.46L506.5,333.16L516.63,341.79L526.76,353.24L536.89,360.02L547.02,364.33L557.15,366.52L567.28,367.12L577.41,371.45L587.54,377.93L597.67,380.12L617.93,380.31L628.06,381.61L648.32,383.63L658.45,384.08L709.1,384.79L719.23,384.75L1002.87,385L1013,384.52" style="vector-effect: none; fill: none; stroke: rgb(240, 173, 78); stroke-opacity: 1; stroke-width: 2px; opacity: 1;"/></g><g class="points"/><g class="text"/></g><g class="trace scatter trace664c17" style="stroke-miterlimit: 2; opacity: 1;"><g class="fills"/><g class="errorbars"/><g class="lines"><path class="js-line" d="M0,385L243.12,384.57L253.25,384.2L273.51,380.47L283.64,379.84L293.77,380.64L303.9,380.33L314.03,376.67L324.16,368.14L334.29,358.44L344.42,353.91L354.55,350.9L364.68,345.41L384.94,323.71L395.07,315.09L405.2,313.17L415.33,314.14L425.46,315.43L435.59,321.82L455.85,336.69L465.98,338.2L476.11,344.01L486.24,354.12L496.37,361.3L506.5,367.38L516.63,371.96L526.76,375.67L557.15,382.03L567.28,383.13L597.67,383.61L607.8,384.5L638.19,384.88L648.32,384.91L931.96,385L942.09,385L1013,385" style="vector-effect: none; fill: none; stroke: rgb(92, 184, 92); stroke-opacity: 1; stroke-width: 2px; opacity: 1;"/></g><g class="points"/><g class="text"/></g><g class="trace scatter trace9d8758" style="stroke-miterlimit: 2; opacity: 1;"><g class="fills"/><g class="errorbars"/><g class="lines"><path class="js-line" d="M0,385L243.12,384.58L253.25,384.23L283.64,379.92L293.77,380.48L303.9,380.2L314.03,377.06L324.16,368.9L334.29,358.49L344.42,353.5L354.55,351.17L364.68,344.65L374.81,334.17L395.07,315.07L405.2,311.72L415.33,314.13L425.46,314.97L435.59,320.64L445.72,330.01L455.85,336.74L465.98,337.99L476.11,344.71L486.24,354.68L506.5,367.95L516.63,372.32L536.89,377.94L547.02,380.18L557.15,382.19L567.28,383.2L597.67,383.76L607.8,384.62L648.32,384.92L658.45,384.91L942.09,385L952.22,385L1013,384.6" style="vector-effect: none; fill: none; stroke: rgb(92, 184, 92); stroke-opacity: 1; stroke-width: 2px; opacity: 1;"/></g><g class="points"/><g class="text"/></g><g class="trace scatter trace9f6644" style="stroke-miterlimit: 2; opacity: 1;"><g class="fills"/><g class="errorbars"/><g class="lines"><path class="js-line" d="M0,385L405.2,384.6L415.33,384.17L435.59,383.04L445.72,381.54L455.85,378.44L465.98,374.13L476.11,368.75L486.24,367.12L496.37,364.15L506.5,356.65L516.63,352.73L526.76,349.96L536.89,335.6L547.02,325.55L557.15,316.19L567.28,289.14L577.41,273.96L587.54,257.34L597.67,227.7L607.8,209.06L617.93,185.69L628.06,158.07L638.19,128.18L648.32,92.97L658.45,66.33L668.58,41.98L678.71,45.85L688.84,69.25L698.97,89.51L709.1,106.04L719.23,130.86L729.36,181.67L739.49,224.97L749.62,248.68L759.75,274.92L769.88,307.11L780.01,327.51L790.14,343.63L800.27,361.68L810.4,372.08L820.53,377.59L830.66,380.84L850.92,383.67L861.05,384.35L901.57,384.97L911.7,385L1013,385" style="vector-effect: none; fill: none; stroke: rgb(92, 184, 92); stroke-opacity: 1; stroke-width: 2px; opacity: 1;"/></g><g class="points"/><g class="text"/></g><g class="trace scatter tracee9fe65" style="stroke-miterlimit: 2; opacity: 1;"><g class="fills"/><g class="errorbars"/><g class="lines"><path class="js-line" d="M0,345.2L20.26,385L30.39,385L384.94,384.27L395.07,384.09L415.33,383.48L425.46,382.82L435.59,382.07L445.72,380.41L455.85,377.06L465.98,372.45L476.11,366.02L486.24,363.67L496.37,360.73L506.5,352.85L526.76,344.6L536.89,329L547.02,316.86L557.15,306.86L567.28,279.02L577.41,261.67L587.54,245.32L597.67,212.66L617.93,168.04L628.06,139.69L638.19,108.7L648.32,72.24L658.45,43.56L668.58,19.25L678.71,24.68L688.84,47.54L709.1,82.12L719.23,110.03L729.36,164.22L739.49,210.11L749.62,233.73L759.75,261.29L769.88,297.35L780.01,319.43L790.14,336.52L800.27,356.81L810.4,368.91L820.53,375.31L830.66,379.16L840.79,381.74L861.05,383.93L871.18,384.41L921.83,384.89L931.96,384.86L1002.87,384.82L1013,383.47" style="vector-effect: none; fill: none; stroke: rgb(217, 83, 79); stroke-opacity: 1; stroke-width: 2px; opacity: 1;"/></g><g class="points"/><g class="text"/></g><g class="trace scatter traceade17d" style="stroke-miterlimit: 2; opacity: 1;"><g class="fills"/><g class="errorbars"/><g class="lines"><path class="js-line" d="M0,385L162.08,384.26L172.21,383.71L192.47,382.03L202.6,380.71L212.73,379.02L222.86,376.02L243.12,366.5L253.25,360.24L263.38,351.73L273.51,342.15L293.77,316.82L303.9,302.92L324.16,267.13L334.29,246.94L374.81,165.16L384.94,148.62L395.07,139.07L405.2,135.76L415.33,137.5L425.46,146.62L435.59,164.69L445.72,188.88L476.11,270.58L486.24,295.56L496.37,316.83L506.5,332.8L516.63,345.48L526.76,356.62L536.89,365.05L547.02,371.27L557.15,375.18L567.28,377.76L587.54,382.08L597.67,382.99L648.32,384.67L658.45,384.85L749.62,385L759.75,384.99L1013,385" style="vector-effect: none; fill: none; stroke: rgb(92, 184, 92); stroke-opacity: 1; stroke-width: 2px; opacity: 1;"/></g><g class="points"/><g class="text"/></g><g class="trace scatter traceb66c68" style="stroke-miterlimit: 2; opacity: 1;"><g class="fills"/><g class="errorbars"/><g class="lines"><path class="js-line" d="M0,385L151.95,384.41L162.08,384.17L182.34,382.89L192.47,381.8L212.73,378.7L222.86,375.83L232.99,371.52L243.12,366.07L253.25,359.63L263.38,351.21L273.51,341.19L283.64,329.12L293.77,316.85L303.9,302.29L334.29,245.55L344.42,225.25L354.55,206.79L364.68,184.81L374.81,162.78L384.94,148.68L395.07,139.59L405.2,134.71L415.33,137.75L425.46,149.35L435.59,169.55L445.72,193.47L486.24,295.91L496.37,318.28L506.5,334.13L516.63,346.91L526.76,357.03L536.89,365.03L547.02,371.47L557.15,375.52L587.54,382.14L597.67,382.88L628.06,384.2L638.19,384.32L678.71,384.97L688.84,384.96L1002.87,384.52L1013,382.48" style="vector-effect: none; fill: none; stroke: rgb(92, 184, 92); stroke-opacity: 1; stroke-width: 2px; opacity: 1;"/></g><g class="points"/><g class="text"/></g><g class="trace scatter tracee3a2fd" style="stroke-miterlimit: 2; opacity: 1;"><g class="fills"/><g class="errorbars"/><g class="lines"><path class="js-line" d="M0,385L172.21,384.66L182.34,384.22L212.73,382.45L222.86,380.95L243.12,377.26L253.25,374.86L273.51,369.38L283.64,366.19L314.03,356.09L324.16,352.47L354.55,345.03L364.68,341.58L374.81,338.81L384.94,337.51L395.07,335.72L405.2,332.41L415.33,330.27L425.46,330.95L435.59,332.74L445.72,335.57L455.85,339.37L465.98,344.47L506.5,367.62L516.63,372.19L526.76,375.99L536.89,378.52L557.15,382.12L567.28,383.24L587.54,384.27L597.67,384.58L658.45,384.99L668.58,384.99L1013,385" style="vector-effect: none; fill: none; stroke: rgb(240, 173, 78); stroke-opacity: 1; stroke-width: 2px; opacity: 1;"/></g><g class="points"/><g class="text"/></g><g class="trace scatter traced658b1" style="stroke-miterlimit: 2; opacity: 1;"><g class="fills"/><g class="errorbars"/><g class="lines"><path class="js-line" d="M0,385L172.21,384.58L182.34,384.11L202.6,383.22L212.73,382.25L232.99,379.74L243.12,377.37L273.51,369.63L283.64,366.43L303.9,359.48L314.03,356.28L344.42,346.95L354.55,344.33L384.94,337.41L395.07,335.45L415.33,330.03L425.46,330.42L435.59,332.48L445.72,336.12L455.85,339.61L465.98,344.93L506.5,367.46L516.63,371.77L536.89,378.87L547.02,380.76L567.28,383.21L577.41,383.85L597.67,384.64L607.8,384.74L911.7,385L921.83,385L1013,384.53" style="vector-effect: none; fill: none; stroke: rgb(240, 173, 78); stroke-opacity: 1; stroke-width: 2px; opacity: 1;"/></g><g class="points"/><g class="text"/></g></g></g></g><path class="xlines-above crisp" d="M0,0" style="fill: none;"/><path class="ylines-above crisp" d="M0,0" style="fill: none;"/><g class="overlines-above"/><g class="xaxislayer-above"><g class="xtick"><text text-anchor="middle" x="0" y="451" transform="translate(61,0)" style="font-family: 'Lucida Grande', 'Open Sans', verdana, arial, sans-serif; font-size: 10px; fill: rgb(0, 0, 0); fill-opacity: 1; white-space: pre; opacity: 1;">0%</text></g><g class="xtick"><text text-anchor="middle" x="0" y="451" style="font-family: 'Lucida Grande', 'Open Sans', verdana, arial, sans-serif; font-size: 10px; fill: rgb(0, 0, 0); fill-opacity: 1; white-space: pre; opacity: 1;" transform="translate(263.6,0)">20%</text></g><g class="xtick"><text text-anchor="middle" x="0" y="451" style="font-family: 'Lucida Grande', 'Open Sans', verdana, arial, sans-serif; font-size: 10px; fill: rgb(0, 0, 0); fill-opacity: 1; white-space: pre; opacity: 1;" transform="translate(466.2,0)">40%</text></g><g class="xtick"><text text-anchor="middle" x="0" y="451" style="font-family: 'Lucida Grande', 'Open Sans', verdana, arial, sans-serif; font-size: 10px; fill: rgb(0, 0, 0); fill-opacity: 1; white-space: pre; opacity: 1;" transform="translate(668.8,0)">60%</text></g><g class="xtick"><text text-anchor="middle" x="0" y="451" style="font-family: 'Lucida Grande', 'Open Sans', verdana, arial, sans-serif; font-size: 10px; fill: rgb(0, 0, 0); fill-opacity: 1; white-space: pre; opacity: 1;" transform="translate(871.4,0)">80%</text></g><g class="xtick"><text text-anchor="middle" x="0" y="451" style="font-family: 'Lucida Grande', 'Open Sans', verdana, arial, sans-serif; font-size: 10px; fill: rgb(0, 0, 0); fill-opacity: 1; white-space: pre; opacity: 1;" transform="translate(1074,0)">100%</text></g></g><g class="yaxislayer-above"><g class="ytick"><text text-anchor="end" x="55" y="3.5" transform="translate(0,435)" style="font-family: 'Lucida Grande', 'Open Sans', verdana, arial, sans-serif; font-size: 10px; fill: rgb(0, 0, 0); fill-opacity: 1; white-space: pre; opacity: 1;">0</text></g><g class="ytick"><text text-anchor="end" x="55" y="3.5" style="font-family: 'Lucida Grande', 'Open Sans', verdana, arial, sans-serif; font-size: 10px; fill: rgb(0, 0, 0); fill-opacity: 1; white-space: pre; opacity: 1;" transform="translate(0,390.33)">5k</text></g><g class="ytick"><text text-anchor="end" x="55" y="3.5" style="font-family: 'Lucida Grande', 'Open Sans', verdana, arial, sans-serif; font-size: 10px; fill: rgb(0, 0, 0); fill-opacity: 1; white-space: pre; opacity: 1;" transform="translate(0,345.67)">10k</text></g><g class="ytick"><text text-anchor="end" x="55" y="3.5" style="font-family: 'Lucida Grande', 'Open Sans', verdana, arial, sans-serif; font-size: 10px; fill: rgb(0, 0, 0); fill-opacity: 1; white-space: pre; opacity: 1;" transform="translate(0,301)">15k</text></g><g class="ytick"><text text-anchor="end" x="55" y="3.5" style="font-family: 'Lucida Grande', 'Open Sans', verdana, arial, sans-serif; font-size: 10px; fill: rgb(0, 0, 0); fill-opacity: 1; white-space: pre; opacity: 1;" transform="translate(0,256.33000000000004)">20k</text></g><g class="ytick"><text text-anchor="end" x="55" y="3.5" style="font-family: 'Lucida Grande', 'Open Sans', verdana, arial, sans-serif; font-size: 10px; fill: rgb(0, 0, 0); fill-opacity: 1; white-space: pre; opacity: 1;" transform="translate(0,211.67)">25k</text></g><g class="ytick"><text text-anchor="end" x="55" y="3.5" style="font-family: 'Lucida Grande', 'Open Sans', verdana, arial, sans-serif; font-size: 10px; fill: rgb(0, 0, 0); fill-opacity: 1; white-space: pre; opacity: 1;" transform="translate(0,167)">30k</text></g><g class="ytick"><text text-anchor="end" x="55" y="3.5" style="font-family: 'Lucida Grande', 'Open Sans', verdana, arial, sans-serif; font-size: 10px; fill: rgb(0, 0, 0); fill-opacity: 1; white-space: pre; opacity: 1;" transform="translate(0,122.34)">35k</text></g><g class="ytick"><text text-anchor="end" x="55" y="3.5" style="font-family: 'Lucida Grande', 'Open Sans', verdana, arial, sans-serif; font-size: 10px; fill: rgb(0, 0, 0); fill-opacity: 1; white-space: pre; opacity: 1;" transform="translate(0,77.67)">40k</text></g></g><g class="overaxes-above"/></g></g><g class="polarlayer"/><g class="smithlayer"/><g class="ternarylayer"/><g class="geolayer"/><g class="funnelarealayer"/><g class="pielayer"/><g class="iciclelayer"/><g class="treemaplayer"/><g class="sunburstlayer"/><g class="glimages"/><defs id="topdefs-a9fef5"><g class="clips"/></defs><g class="layer-above"><g class="imagelayer"/><g class="shapelayer"/></g><g class="infolayer"><g class="g-gtitle"><text class="gtitle" x="550" y="25" text-anchor="middle" dy="0em" style="opacity: 1; font-family: 'Lucida Grande', 'Open Sans', verdana, arial, sans-serif; font-size: 20px; fill: rgb(42, 63, 95); fill-opacity: 1; white-space: pre;"><tspan class="line" dy="0em" x="550" y="25">FastQC: Per Sequence GC Content</tspan><tspan class="line" dy="1.3em" x="550" y="25">​<tspan style="font-size:70%" dy="-0.6em">Counts, 10 samples</tspan><tspan dy="0.42em">​</tspan></tspan></text></g><g class="g-xtitle"><text class="xtitle" x="567.5" y="472.3" text-anchor="middle" style="opacity: 0.3; font-family: 'Lucida Grande', 'Open Sans', verdana, arial, sans-serif; font-size: 14px; fill: rgb(0, 0, 0); fill-opacity: 1; white-space: pre;">% GC</text></g><g class="g-ytitle"><text class="ytitle" transform="rotate(-90,22.084375,242.5)" x="22.084375" y="242.5" text-anchor="middle" style="opacity: 0.3; font-family: 'Lucida Grande', 'Open Sans', verdana, arial, sans-serif; font-size: 14px; fill: rgb(0, 0, 0); fill-opacity: 1; white-space: pre;">Count</text></g></g></svg>