<svg class="main-svg" xmlns="http://www.w3.org/2000/svg" xmlns:xlink="http://www.w3.org/1999/xlink" width="2200" height="1000" style="" viewBox="0 0 1100 500"><rect x="0" y="0" width="1100" height="500" style="fill: rgb(255, 255, 255); fill-opacity: 1;"/><defs id="defs-47415b"><g class="clips"><clipPath id="clip47415bxyplot" class="plotclip"><rect width="1025" height="385"/></clipPath><clipPath class="axesclip" id="clip47415bx"><rect x="60" y="0" width="1025" height="500"/></clipPath><clipPath class="axesclip" id="clip47415by"><rect x="0" y="50" width="1100" height="385"/></clipPath><clipPath class="axesclip" id="clip47415bxy"><rect x="60" y="50" width="1025" height="385"/></clipPath></g><g class="gradients"/><g class="patterns"/></defs><g class="bglayer"/><g class="layer-below"><g class="imagelayer"/><g class="shapelayer"/></g><g class="cartesianlayer"><g class="subplot xy"><g class="layer-subplot"><g class="shapelayer"/><g class="imagelayer"/></g><g class="minor-gridlayer"><g class="x"/><g class="y"/></g><g class="gridlayer"><g class="x"><path class="xgrid crisp" transform="translate(189.83,0)" d="M0,50v385" style="stroke: rgb(0, 0, 0); stroke-opacity: 0.05; stroke-width: 1px;"/><path class="xgrid crisp" transform="translate(326.5,0)" d="M0,50v385" style="stroke: rgb(0, 0, 0); stroke-opacity: 0.05; stroke-width: 1px;"/><path class="xgrid crisp" transform="translate(463.17,0)" d="M0,50v385" style="stroke: rgb(0, 0, 0); stroke-opacity: 0.05; stroke-width: 1px;"/><path class="xgrid crisp" transform="translate(599.83,0)" d="M0,50v385" style="stroke: rgb(0, 0, 0); stroke-opacity: 0.05; stroke-width: 1px;"/><path class="xgrid crisp" transform="translate(736.5,0)" d="M0,50v385" style="stroke: rgb(0, 0, 0); stroke-opacity: 0.05; stroke-width: 1px;"/><path class="xgrid crisp" transform="translate(873.17,0)" d="M0,50v385" style="stroke: rgb(0, 0, 0); stroke-opacity: 0.05; stroke-width: 1px;"/><path class="xgrid crisp" transform="translate(1009.83,0)" d="M0,50v385" style="stroke: rgb(0, 0, 0); stroke-opacity: 0.05; stroke-width: 1px;"/></g><g class="y"><path class="ygrid crisp" transform="translate(0,384.4)" d="M60,0h1025" style="stroke: rgb(0, 0, 0); stroke-opacity: 0.05; stroke-width: 1px;"/><path class="ygrid crisp" transform="translate(0,333.81)" d="M60,0h1025" style="stroke: rgb(0, 0, 0); stroke-opacity: 0.05; stroke-width: 1px;"/><path class="ygrid crisp" transform="translate(0,283.21000000000004)" d="M60,0h1025" style="stroke: rgb(0, 0, 0); stroke-opacity: 0.05; stroke-width: 1px;"/><path class="ygrid crisp" transform="translate(0,232.61)" d="M60,0h1025" style="stroke: rgb(0, 0, 0); stroke-opacity: 0.05; stroke-width: 1px;"/><path class="ygrid crisp" transform="translate(0,182.01)" d="M60,0h1025" style="stroke: rgb(0, 0, 0); stroke-opacity: 0.05; stroke-width: 1px;"/><path class="ygrid crisp" transform="translate(0,131.42000000000002)" d="M60,0h1025" style="stroke: rgb(0, 0, 0); stroke-opacity: 0.05; stroke-width: 1px;"/><path class="ygrid crisp" transform="translate(0,80.82)" d="M60,0h1025" style="stroke: rgb(0, 0, 0); stroke-opacity: 0.05; stroke-width: 1px;"/></g></g><g class="zerolinelayer"><path class="yzl zl crisp" transform="translate(0,435)" d="M60,0h1025" style="stroke: rgb(0, 0, 0); stroke-opacity: 0.05; stroke-width: 2px;"/></g><g class="layer-between"><g class="shapelayer"/><g class="imagelayer"/></g><path class="xlines-below"/><path class="ylines-below"/><g class="overlines-below"/><g class="xaxislayer-below"/><g class="yaxislayer-below"/><g class="overaxes-below"/><g class="overplot"><g class="xy" transform="translate(60,50)" clip-path="url(#clip47415bxyplot)"><g class="scatterlayer mlayer"><g class="trace scatter trace5d3ee8" style="stroke-miterlimit: 2; opacity: 1;"><g class="fills"/><g class="errorbars"/><g class="lines"><path class="js-line" d="M0,45.63L6.83,31.75L13.67,26.32L20.5,22.76L27.33,23.78L41,23.53L47.83,23.69L54.67,22.52L61.5,24.31L68.33,22.17L75.17,23.29L82,22.63L88.83,23.19L157.17,23.82L164,23.78L170.83,24.44L177.67,24.19L321.17,26.09L328,26.51L348.5,26.12L355.33,26.53L362.17,26.8L369,26.28L423.67,27.89L430.5,27.24L437.33,26.75L444.17,27.09L464.67,27.67L471.5,27.77L574,27.93L580.83,28.7L621.83,29.57L628.67,28.9L635.5,29.52L642.33,29.23L656,30.08L662.83,30.27L703.83,30.01L710.67,30.38L717.5,30.97L724.33,30.2L758.5,31.64L765.33,31.51L806.33,31.47L813.17,31.91L881.5,33.15L888.33,33.59L929.33,34.11L936.17,33.83L943,33.35L949.83,34.13L956.67,34.43L963.5,33.75L970.33,33.67L977.17,34.59L1004.5,34.86L1011.33,35.36L1018.17,36.01L1025,61.72" style="vector-effect: none; fill: none; stroke: rgb(124, 181, 236); stroke-opacity: 1; stroke-width: 2px; opacity: 1;"/></g><g class="points"/><g class="text"/></g><g class="trace scatter trace19302a" style="stroke-miterlimit: 2; opacity: 1;"><g class="fills"/><g class="errorbars"/><g class="lines"><path class="js-line" d="M0,47.44L6.83,31.67L13.67,24.91L20.5,21.71L27.33,22L47.83,22.58L54.67,21.51L61.5,22.42L68.33,21.33L75.17,22.04L82,21.49L95.67,22.2L102.5,22L123,22.75L129.83,22.36L157.17,23.04L164,22.69L170.83,23.7L177.67,23.65L246,24.29L252.83,24.1L273.33,24.91L280.17,24.68L300.67,25.02L307.5,24.53L321.17,25.25L328,25.17L403.17,26.48L410,26.68L416.83,26.35L423.67,26.89L437.33,26.38L444.17,26.56L464.67,27.24L471.5,27.03L485.17,27.57L492,27.89L505.67,28.37L512.5,27.58L580.83,29.41L587.67,29.2L615,30.77L621.83,30.63L642.33,31.73L649.17,31.1L662.83,32.29L669.67,31.44L676.5,31.49L683.33,32.3L690.17,32.93L697,32.64L710.67,33.97L717.5,32.94L724.33,33.63L731.17,33.32L738,34.33L744.83,34.06L758.5,35.28L765.33,35.67L806.33,36.55L813.17,37.75L826.83,37.46L833.67,38.21L840.5,38.11L847.33,38.88L861,38.17L867.83,39.07L874.67,38.81L881.5,39.53L888.33,39.9L895.17,39.51L902,40.85L908.83,40.42L936.17,41.8L943,41.76L949.83,42.42L956.67,42.15L984,44.71L990.83,44.19L1004.5,44.21L1011.33,45.2L1018.17,46.55L1025,91.49" style="vector-effect: none; fill: none; stroke: rgb(67, 67, 72); stroke-opacity: 1; stroke-width: 2px; opacity: 1;"/></g><g class="points"/><g class="text"/></g><g class="trace scatter trace4472f6" style="stroke-miterlimit: 2; opacity: 1;"><g class="fills"/><g class="errorbars"/><g class="lines"><path class="js-line" d="M0,50.2L6.83,35.87L13.67,29.34L20.5,25.93L27.33,27.68L41,24.94L47.83,26.05L54.67,25.17L61.5,26.98L68.33,25.18L75.17,26.5L82,25.48L88.83,26.03L123,27.78L129.83,27.19L157.17,28.45L164,28.46L170.83,29.25L177.67,29.2L211.83,30.54L218.67,30.21L252.83,31.06L259.67,31.05L280.17,31.9L287,31.72L334.83,32.87L341.67,32.52L389.5,34.3L396.33,33.94L403.17,34.3L410,33.84L430.5,34.38L437.33,34.28L457.83,34.79L464.67,34.83L492,35.57L498.83,35.15L512.5,36.15L519.33,36.6L533,36.17L539.83,35.92L546.67,37.22L553.5,36.68L567.17,37.45L574,37L587.67,37.76L594.5,37.61L601.33,37.7L608.17,38.77L621.83,38.38L628.67,38.32L635.5,39.51L642.33,39.31L649.17,40.06L656,39.95L738,42.47L744.83,43.25L765.33,44.13L772.17,44.01L779,43.84L785.83,44.63L792.67,45.35L799.5,44.69L813.17,44.71L820,45.31L833.67,47.24L840.5,46.7L854.17,47.67L861,47.19L881.5,48.69L888.33,49.14L895.17,49.68L902,49.35L908.83,50.54L915.67,50.54L922.5,49.93L929.33,50.54L936.17,51.42L943,50.37L949.83,51.59L956.67,51.07L977.17,52.95L984,53L1004.5,53.87L1011.33,56.2L1018.17,55.39L1025,117.98" style="vector-effect: none; fill: none; stroke: rgb(144, 237, 125); stroke-opacity: 1; stroke-width: 2px; opacity: 1;"/></g><g class="points"/><g class="text"/></g><g class="trace scatter trace34c96a" style="stroke-miterlimit: 2; opacity: 1;"><g class="fills"/><g class="errorbars"/><g class="lines"><path class="js-line" d="M0,43.27L6.83,28.38L13.67,22.74L20.5,19.59L27.33,20.65L41,21.21L47.83,21.15L54.67,19.25L61.5,20.93L68.33,19.77L75.17,20.42L88.83,20.18L95.67,20.62L164,20.96L170.83,21.5L198.17,21.49L205,21.64L273.33,22.13L280.17,22.18L300.67,22.41L307.5,22.41L355.33,23.04L362.17,23.52L382.67,23.21L389.5,23.08L410,23.38L416.83,23.23L437.33,23.51L444.17,23.54L471.5,23.56L478.33,23.96L519.33,24.08L526.17,24.17L567.17,24.58L574,24.27L594.5,24.72L601.33,24.7L731.17,25.97L738,25.59L772.17,26.27L779,26.3L792.67,26.56L799.5,26.42L820,26.59L826.83,26.77L847.33,26.86L854.17,27.15L922.5,27.37L929.33,27.28L956.67,27.66L963.5,27.41L1004.5,27.96L1011.33,41.49" style="vector-effect: none; fill: none; stroke: rgb(247, 163, 92); stroke-opacity: 1; stroke-width: 2px; opacity: 1;"/></g><g class="points"/><g class="text"/></g><g class="trace scatter trace21e75f" style="stroke-miterlimit: 2; opacity: 1;"><g class="fills"/><g class="errorbars"/><g class="lines"><path class="js-line" d="M0,57.36L6.83,41.5L13.67,34.43L20.5,29.44L27.33,30.19L34.17,31.79L41,31.21L47.83,31.82L54.67,29.67L61.5,31.23L68.33,28.65L75.17,29.92L82,29.4L95.67,30.22L102.5,29.99L129.83,29.66L136.67,30.07L164,30.24L170.83,31.74L205,31.85L211.83,32.61L252.83,32.92L259.67,33.04L273.33,33.38L280.17,33.56L300.67,33.41L307.5,33.44L328,33.84L334.83,33.77L362.17,34.36L369,34.17L396.33,35.01L403.17,34.8L416.83,34.84L423.67,34.93L478.33,35.97L485.17,35.71L512.5,36.23L519.33,36.05L539.83,36.93L546.67,36.99L574,37.09L580.83,37.3L587.67,37.94L594.5,37.75L615,38.07L621.83,38.45L642.33,38.61L649.17,39.02L656,38.58L662.83,39.02L669.67,38.55L676.5,38.92L683.33,39.49L690.17,38.87L697,39.12L703.83,40.16L738,40.33L744.83,40.67L751.67,41.13L758.5,40.51L772.17,42.18L779,41.68L806.33,42.26L813.17,43.23L826.83,42.53L833.67,43.35L854.17,43.36L861,43.97L908.83,44.93L915.67,45.29L922.5,44.96L929.33,45.86L943,45.55L949.83,46.1L963.5,47.33L970.33,46.99L977.17,47.95L984,48.13L990.83,47.46L997.67,48.17L1004.5,48.74L1011.33,76.56" style="vector-effect: none; fill: none; stroke: rgb(128, 133, 233); stroke-opacity: 1; stroke-width: 2px; opacity: 1;"/></g><g class="points"/><g class="text"/></g></g></g></g><path class="xlines-above crisp" d="M0,0" style="fill: none;"/><path class="ylines-above crisp" d="M0,0" style="fill: none;"/><g class="overlines-above"/><g class="xaxislayer-above"><g class="xtick"><text text-anchor="middle" x="0" y="451" transform="translate(189.83,0)" style="font-family: 'Lucida Grande', 'Open Sans', verdana, arial, sans-serif; font-size: 10px; fill: rgb(0, 0, 0); fill-opacity: 1; white-space: pre; opacity: 1;">20</text></g><g class="xtick"><text text-anchor="middle" x="0" y="451" style="font-family: 'Lucida Grande', 'Open Sans', verdana, arial, sans-serif; font-size: 10px; fill: rgb(0, 0, 0); fill-opacity: 1; white-space: pre; opacity: 1;" transform="translate(326.5,0)">40</text></g><g class="xtick"><text text-anchor="middle" x="0" y="451" style="font-family: 'Lucida Grande', 'Open Sans', verdana, arial, sans-serif; font-size: 10px; fill: rgb(0, 0, 0); fill-opacity: 1; white-space: pre; opacity: 1;" transform="translate(463.17,0)">60</text></g><g class="xtick"><text text-anchor="middle" x="0" y="451" style="font-family: 'Lucida Grande', 'Open Sans', verdana, arial, sans-serif; font-size: 10px; fill: rgb(0, 0, 0); fill-opacity: 1; white-space: pre; opacity: 1;" transform="translate(599.83,0)">80</text></g><g class="xtick"><text text-anchor="middle" x="0" y="451" style="font-family: 'Lucida Grande', 'Open Sans', verdana, arial, sans-serif; font-size: 10px; fill: rgb(0, 0, 0); fill-opacity: 1; white-space: pre; opacity: 1;" transform="translate(736.5,0)">100</text></g><g class="xtick"><text text-anchor="middle" x="0" y="451" style="font-family: 'Lucida Grande', 'Open Sans', verdana, arial, sans-serif; font-size: 10px; fill: rgb(0, 0, 0); fill-opacity: 1; white-space: pre; opacity: 1;" transform="translate(873.17,0)">120</text></g><g class="xtick"><text text-anchor="middle" x="0" y="451" style="font-family: 'Lucida Grande', 'Open Sans', verdana, arial, sans-serif; font-size: 10px; fill: rgb(0, 0, 0); fill-opacity: 1; white-space: pre; opacity: 1;" transform="translate(1009.83,0)">140</text></g></g><g class="yaxislayer-above"><g class="ytick"><text text-anchor="end" x="54" y="3.5" transform="translate(0,435)" style="font-family: 'Lucida Grande', 'Open Sans', verdana, arial, sans-serif; font-size: 10px; fill: rgb(0, 0, 0); fill-opacity: 1; white-space: pre; opacity: 1;">0</text></g><g class="ytick"><text text-anchor="end" x="54" y="3.5" style="font-family: 'Lucida Grande', 'Open Sans', verdana, arial, sans-serif; font-size: 10px; fill: rgb(0, 0, 0); fill-opacity: 1; white-space: pre; opacity: 1;" transform="translate(0,384.4)">5</text></g><g class="ytick"><text text-anchor="end" x="54" y="3.5" style="font-family: 'Lucida Grande', 'Open Sans', verdana, arial, sans-serif; font-size: 10px; fill: rgb(0, 0, 0); fill-opacity: 1; white-space: pre; opacity: 1;" transform="translate(0,333.81)">10</text></g><g class="ytick"><text text-anchor="end" x="54" y="3.5" style="font-family: 'Lucida Grande', 'Open Sans', verdana, arial, sans-serif; font-size: 10px; fill: rgb(0, 0, 0); fill-opacity: 1; white-space: pre; opacity: 1;" transform="translate(0,283.21000000000004)">15</text></g><g class="ytick"><text text-anchor="end" x="54" y="3.5" style="font-family: 'Lucida Grande', 'Open Sans', verdana, arial, sans-serif; font-size: 10px; fill: rgb(0, 0, 0); fill-opacity: 1; white-space: pre; opacity: 1;" transform="translate(0,232.61)">20</text></g><g class="ytick"><text text-anchor="end" x="54" y="3.5" style="font-family: 'Lucida Grande', 'Open Sans', verdana, arial, sans-serif; font-size: 10px; fill: rgb(0, 0, 0); fill-opacity: 1; white-space: pre; opacity: 1;" transform="translate(0,182.01)">25</text></g><g class="ytick"><text text-anchor="end" x="54" y="3.5" style="font-family: 'Lucida Grande', 'Open Sans', verdana, arial, sans-serif; font-size: 10px; fill: rgb(0, 0, 0); fill-opacity: 1; white-space: pre; opacity: 1;" transform="translate(0,131.42000000000002)">30</text></g><g class="ytick"><text text-anchor="end" x="54" y="3.5" style="font-family: 'Lucida Grande', 'Open Sans', verdana, arial, sans-serif; font-size: 10px; fill: rgb(0, 0, 0); fill-opacity: 1; white-space: pre; opacity: 1;" transform="translate(0,80.82)">35</text></g></g><g class="overaxes-above"/></g></g><g class="polarlayer"/><g class="smithlayer"/><g class="ternarylayer"/><g class="geolayer"/><g class="funnelarealayer"/><g class="pielayer"/><g class="iciclelayer"/><g class="treemaplayer"/><g class="sunburstlayer"/><g class="glimages"/><defs id="topdefs-47415b"><g class="clips"/></defs><g class="layer-above"><g class="imagelayer"/><g class="shapelayer"/></g><g class="infolayer"><g class="g-gtitle"><text class="gtitle" x="550" y="25" text-anchor="middle" dy="0em" style="opacity: 1; font-family: 'Lucida Grande', 'Open Sans', verdana, arial, sans-serif; font-size: 20px; fill: rgb(42, 63, 95); fill-opacity: 1; white-space: pre;"><tspan class="line" dy="0em" x="550" y="25">Fastp: Sequence Quality</tspan><tspan class="line" dy="1.3em" x="550" y="25">​<tspan style="font-size:70%" dy="-0.6em">Read 1: After filtering, 5 samples</tspan><tspan dy="0.42em">​</tspan></tspan></text></g><g class="g-xtitle"><text class="xtitle" x="572.5" y="472.3" text-anchor="middle" style="opacity: 0.3; font-family: 'Lucida Grande', 'Open Sans', verdana, arial, sans-serif; font-size: 14px; fill: rgb(0, 0, 0); fill-opacity: 1; white-space: pre;">Read Position</text></g><g class="g-ytitle"><text class="ytitle" transform="rotate(-90,26.865625,242.5)" x="26.865625" y="242.5" text-anchor="middle" style="opacity: 0.3; font-family: 'Lucida Grande', 'Open Sans', verdana, arial, sans-serif; font-size: 14px; fill: rgb(0, 0, 0); fill-opacity: 1; white-space: pre;">R1 After filtering: Sequence Quality</text></g></g></svg>