<svg class="main-svg" xmlns="http://www.w3.org/2000/svg" xmlns:xlink="http://www.w3.org/1999/xlink" width="2200" height="1000" style="" viewBox="0 0 1100 500"><rect x="0" y="0" width="1100" height="500" style="fill: rgb(255, 255, 255); fill-opacity: 1;"/><defs id="defs-82a374"><g class="clips"><clipPath id="clip82a374xyplot" class="plotclip"><rect width="1014" height="385"/></clipPath><clipPath class="axesclip" id="clip82a374x"><rect x="71" y="0" width="1014" height="500"/></clipPath><clipPath class="axesclip" id="clip82a374y"><rect x="0" y="50" width="1100" height="385"/></clipPath><clipPath class="axesclip" id="clip82a374xy"><rect x="71" y="50" width="1014" height="385"/></clipPath></g><g class="gradients"/><g class="patterns"/></defs><g class="bglayer"/><g class="layer-below"><g class="imagelayer"/><g class="shapelayer"/></g><g class="cartesianlayer"><g class="subplot xy"><g class="layer-subplot"><g class="shapelayer"/><g class="imagelayer"/></g><g class="minor-gridlayer"><g class="x"/><g class="y"/></g><g class="gridlayer"><g class="x"><path class="xgrid crisp" transform="translate(199.44,0)" d="M0,50v385" style="stroke: rgb(0, 0, 0); stroke-opacity: 0.05; stroke-width: 1px;"/><path class="xgrid crisp" transform="translate(334.64,0)" d="M0,50v385" style="stroke: rgb(0, 0, 0); stroke-opacity: 0.05; stroke-width: 1px;"/><path class="xgrid crisp" transform="translate(469.84,0)" d="M0,50v385" style="stroke: rgb(0, 0, 0); stroke-opacity: 0.05; stroke-width: 1px;"/><path class="xgrid crisp" transform="translate(605.04,0)" d="M0,50v385" style="stroke: rgb(0, 0, 0); stroke-opacity: 0.05; stroke-width: 1px;"/><path class="xgrid crisp" transform="translate(740.24,0)" d="M0,50v385" style="stroke: rgb(0, 0, 0); stroke-opacity: 0.05; stroke-width: 1px;"/><path class="xgrid crisp" transform="translate(875.44,0)" d="M0,50v385" style="stroke: rgb(0, 0, 0); stroke-opacity: 0.05; stroke-width: 1px;"/><path class="xgrid crisp" transform="translate(1010.64,0)" d="M0,50v385" style="stroke: rgb(0, 0, 0); stroke-opacity: 0.05; stroke-width: 1px;"/></g><g class="y"><path class="ygrid crisp" transform="translate(0,358)" d="M71,0h1014" style="stroke: rgb(0, 0, 0); stroke-opacity: 0.05; stroke-width: 1px;"/><path class="ygrid crisp" transform="translate(0,281)" d="M71,0h1014" style="stroke: rgb(0, 0, 0); stroke-opacity: 0.05; stroke-width: 1px;"/><path class="ygrid crisp" transform="translate(0,204)" d="M71,0h1014" style="stroke: rgb(0, 0, 0); stroke-opacity: 0.05; stroke-width: 1px;"/><path class="ygrid crisp" transform="translate(0,127)" d="M71,0h1014" style="stroke: rgb(0, 0, 0); stroke-opacity: 0.05; stroke-width: 1px;"/></g></g><g class="zerolinelayer"><path class="yzl zl crisp" transform="translate(0,435)" d="M71,0h1014" style="stroke: rgb(0, 0, 0); stroke-opacity: 0.05; stroke-width: 2px;"/></g><g class="layer-between"><g class="shapelayer"/><g class="imagelayer"/></g><path class="xlines-below"/><path class="ylines-below"/><g class="overlines-below"/><g class="xaxislayer-below"/><g class="yaxislayer-below"/><g class="overaxes-below"/><g class="overplot"><g class="xy" transform="translate(71,50)" clip-path="url(#clip82a374xyplot)"><g class="scatterlayer mlayer"><g class="trace scatter trace6a248a" style="stroke-miterlimit: 2; opacity: 1;"><g class="fills"/><g class="errorbars"/><g class="lines"><path class="js-line" d="M0,112.69L6.76,220.8L13.52,213.37L20.28,203.16L27.04,284.31L33.8,214.09L40.56,225.7L47.32,218.79L54.08,148.51L60.84,247.47L67.6,182.27L74.36,215.46L81.12,194.93L87.88,190.38L94.64,207.03L101.4,224.98L108.16,226.27L114.92,226.68L121.68,223.96L128.44,216.08L135.2,214.98L141.96,221.19L148.72,220.35L155.48,217.93L162.24,214.66L169,216.34L175.76,216.16L182.52,220.92L189.28,217.89L196.04,217.03L202.8,211.21L209.56,216.29L216.32,219.25L223.08,216.37L229.84,214.96L236.6,217.81L243.36,217.83L250.12,218.41L256.88,221.02L263.64,213.32L270.4,216.5L283.92,218.22L290.68,216.48L297.44,215.06L304.2,210.73L310.96,220.17L317.72,212.26L324.48,219.78L331.24,215.99L338,208.56L344.76,214.72L351.52,216L358.28,223.35L365.04,218.78L371.8,215.79L378.56,213.45L385.32,215.39L392.08,213.59L398.84,216.84L405.6,212.65L412.36,211.78L419.12,213.45L425.88,213.72L432.64,217.66L439.4,214.52L446.16,216.21L452.92,213.91L459.68,210.07L466.44,216.15L473.2,214.21L479.96,218.46L486.72,213.15L493.48,213.76L500.24,211.26L507,211.89L513.76,217.02L520.52,215.31L527.28,213.77L534.04,214.77L547.56,210.9L554.32,213.18L561.08,219.17L567.84,218.07L574.6,221.12L581.36,214.26L588.12,218.16L594.88,211.79L601.64,215.1L608.4,219.91L615.16,214.75L621.92,211.82L628.68,214.98L635.44,215.25L642.2,217.92L648.96,214.98L655.72,215.2L662.48,219.13L669.24,211.42L676,218.72L682.76,220.32L689.52,216.07L696.28,213.28L703.04,212.73L709.8,219.89L716.56,222.38L723.32,215.19L730.08,218.48L736.84,220.27L743.6,211.97L750.36,217.37L757.12,215.87L763.88,211.47L770.64,217.19L777.4,220.74L784.16,219.1L790.92,216.53L797.68,214.85L804.44,220.53L811.2,216.8L817.96,219.91L824.72,214.98L831.48,217.96L838.24,216.87L845,218.43L851.76,219.01L858.52,218.22L865.28,215.4L872.04,210.76L878.8,216.61L885.56,218.79L892.32,218.03L899.08,216.29L905.84,211.3L912.6,213.3L919.36,218.26L926.12,215.55L932.88,214.08L939.64,217.65L946.4,217.32L953.16,219.32L959.92,210.97L966.68,217.1L973.44,217.66L980.2,220.28L986.96,217.17L993.72,212.74L1000.48,222.91L1007.24,227.63L1014,274.67" style="vector-effect: none; fill: none; stroke: rgb(124, 181, 236); stroke-opacity: 1; stroke-width: 2px; opacity: 1;"/></g><g class="points"/><g class="text"/></g><g class="trace scatter tracebf56f4" style="stroke-miterlimit: 2; opacity: 1;"><g class="fills"/><g class="errorbars"/><g class="lines"><path class="js-line" d="M0,127.41L6.76,234.38L13.52,228.56L20.28,214.69L27.04,293.5L33.8,224.94L40.56,226.96L47.32,228.34L54.08,150.55L60.84,260.28L67.6,196.3L74.36,236.73L81.12,206.13L87.88,203.4L94.64,225.18L101.4,237.13L108.16,243.39L114.92,239.9L121.68,239.29L128.44,229.86L135.2,224.6L148.72,232.31L155.48,233.99L162.24,231.91L169,235.78L175.76,229.93L182.52,234.5L189.28,231.94L196.04,230.66L202.8,231.27L209.56,228.85L216.32,229.08L223.08,233.07L229.84,238.11L236.6,228.9L243.36,231.83L250.12,229.76L256.88,232.37L263.64,233.2L270.4,227.68L277.16,232.52L283.92,228.18L290.68,231.81L297.44,228.85L304.2,228.8L310.96,233.08L317.72,225.25L324.48,229.98L331.24,229.3L338,227.51L344.76,232.92L351.52,226.36L358.28,232.79L365.04,231.39L371.8,226.15L378.56,229.66L385.32,224.55L392.08,231.91L398.84,228.51L405.6,224.76L412.36,230.13L425.88,227L432.64,228.57L439.4,232.78L446.16,231.14L452.92,230.21L459.68,226.87L466.44,226.04L473.2,229.13L479.96,233.27L486.72,228.63L493.48,227.56L500.24,230.25L507,227.64L513.76,230.65L520.52,225.88L527.28,233.66L534.04,222.81L540.8,230.43L547.56,225.29L554.32,228.65L567.84,230.58L574.6,232.96L581.36,226.17L588.12,229.06L601.64,228.26L608.4,223.98L615.16,223.6L621.92,229.41L628.68,231.9L635.44,230.73L642.2,226.25L648.96,231.65L655.72,227.7L662.48,221.8L669.24,228.55L676,224.89L682.76,231.31L689.52,228.14L696.28,228.77L703.04,234.97L709.8,225.11L716.56,228.27L730.08,227.61L736.84,228.93L743.6,223.91L750.36,225.43L757.12,226.23L763.88,231.79L770.64,230.61L777.4,232.32L784.16,230.67L790.92,228.1L797.68,229.02L804.44,228.38L817.96,223.14L824.72,227.59L831.48,221.35L838.24,225.43L845,230.03L851.76,227.02L858.52,229.28L865.28,222.63L872.04,229.58L878.8,228.4L892.32,230.69L899.08,219.34L905.84,231.13L912.6,217.15L919.36,225.35L926.12,224.17L932.88,226.71L939.64,226.24L946.4,222.23L953.16,229.84L959.92,225.99L966.68,230.38L980.2,231.72L986.96,225.81L993.72,223.19L1000.48,225.77L1007.24,241.17L1014,280.6" style="vector-effect: none; fill: none; stroke: rgb(67, 67, 72); stroke-opacity: 1; stroke-width: 2px; opacity: 1;"/></g><g class="points"/><g class="text"/></g><g class="trace scatter tracec9b724" style="stroke-miterlimit: 2; opacity: 1;"><g class="fills"/><g class="errorbars"/><g class="lines"><path class="js-line" d="M0,78.85L6.76,147.83L13.52,152.34L20.28,148.89L27.04,208.23L33.8,153.24L40.56,141.27L47.32,149.48L54.08,91.26L60.84,166.45L67.6,122.54L74.36,149.67L81.12,120.53L87.88,114.57L94.64,128.53L101.4,134.23L108.16,141.41L114.92,141.7L121.68,138.07L128.44,136.37L135.2,138.29L141.96,134.17L148.72,136.62L155.48,139.77L162.24,134.09L169,136.49L175.76,135.36L182.52,130.9L189.28,136.31L196.04,134.66L202.8,135.14L209.56,135.92L216.32,131.92L223.08,132.44L229.84,137.48L236.6,134.81L243.36,130.73L250.12,132.9L256.88,134.14L263.64,130.99L270.4,134.89L277.16,132.17L283.92,130.52L290.68,131.55L297.44,133.69L304.2,132.27L310.96,134.79L317.72,132.71L324.48,129.23L331.24,132.7L338,133.52L344.76,129.67L351.52,137.32L358.28,132.96L365.04,130.32L378.56,133.04L385.32,133.09L392.08,133.59L398.84,134.94L405.6,131.47L412.36,135.33L419.12,134.99L425.88,132.41L439.4,134.28L446.16,129.94L452.92,134.96L459.68,134.61L466.44,131.76L473.2,133.91L479.96,134.88L486.72,131.44L493.48,132.65L500.24,134.82L507,133.45L513.76,135.66L520.52,134.19L527.28,130.11L534.04,134.05L540.8,131.32L547.56,133.74L554.32,133.57L561.08,135.51L567.84,130.22L574.6,135.52L581.36,131.25L588.12,130.11L594.88,132.09L601.64,135.8L608.4,128.37L615.16,131.29L621.92,132.99L628.68,133.45L635.44,135.29L642.2,136.79L648.96,129.6L655.72,134.61L662.48,138.38L669.24,134.1L676,135.28L682.76,131.06L689.52,130.91L703.04,135.66L709.8,133.2L716.56,134.65L723.32,130.07L730.08,129.29L736.84,135.18L743.6,133.78L750.36,130.63L757.12,132.58L763.88,129.2L770.64,130.18L777.4,135.26L790.92,133.51L797.68,131.53L804.44,133.34L811.2,131.48L817.96,134.87L824.72,132.05L831.48,128.86L838.24,135.73L845,137.55L851.76,131.06L865.28,132.43L872.04,131.1L878.8,135.71L885.56,135.5L892.32,129.18L899.08,131.76L905.84,129.9L912.6,133.44L926.12,135.11L932.88,128.6L939.64,132.89L946.4,132.82L953.16,127.85L959.92,134.24L966.68,131.03L973.44,129.04L980.2,134.98L986.96,131.99L1000.48,134.43L1007.24,127.61L1014,181.46" style="vector-effect: none; fill: none; stroke: rgb(144, 237, 125); stroke-opacity: 1; stroke-width: 2px; opacity: 1;"/></g><g class="points"/><g class="text"/></g><g class="trace scatter trace84e44d" style="stroke-miterlimit: 2; opacity: 1;"><g class="fills"/><g class="errorbars"/><g class="lines"><path class="js-line" d="M0,159.53L6.76,233.04L13.52,237.8L20.28,251.97L27.04,304.12L33.8,251.27L40.56,234.16L47.32,229.42L54.08,160.99L60.84,259.33L67.6,210.25L74.36,236.23L81.12,214.21L87.88,214.07L94.64,229.52L101.4,239.07L108.16,242.84L114.92,243.32L121.68,240.7L128.44,237.74L135.2,236.97L141.96,236.28L148.72,236.91L155.48,239.22L162.24,237.83L175.76,238.6L182.52,237.17L196.04,238.68L202.8,235.76L209.56,235.57L216.32,236.7L223.08,236.25L229.84,237.48L236.6,237.53L243.36,238.34L263.64,236.47L270.4,236.44L277.16,237.4L283.92,236.89L290.68,235.42L297.44,237.87L304.2,235.87L310.96,236.84L317.72,238.65L324.48,237.71L338,238.06L344.76,236.58L351.52,236.3L358.28,237.85L365.04,235.91L371.8,236.87L378.56,237.25L385.32,236.61L398.84,237.83L405.6,237.54L432.64,236.38L439.4,237.56L446.16,236.31L452.92,236.72L459.68,237.65L466.44,236.77L473.2,236.73L479.96,238.2L493.48,236.61L500.24,237.14L507,236.16L513.76,237.05L527.28,236.31L534.04,236.7L540.8,237.41L547.56,236.93L561.08,237.63L567.84,236.62L574.6,236.46L581.36,237.52L588.12,235.74L594.88,236.25L601.64,236.89L608.4,236.6L615.16,236.78L621.92,237.74L628.68,236.62L635.44,236.83L648.96,237.6L655.72,237.06L662.48,237.14L669.24,235.48L682.76,237.42L689.52,236.8L709.8,237.26L716.56,236.36L723.32,236.58L730.08,235.88L736.84,235.76L743.6,236.54L757.12,236.13L763.88,236.51L770.64,237.18L777.4,236.77L784.16,237.22L790.92,236.09L811.2,236.59L817.96,236L824.72,236.5L831.48,236.19L838.24,236.21L845,237.08L851.76,236.43L858.52,236.66L899.08,236.02L905.84,236.71L912.6,235.92L919.36,236.39L926.12,236.58L932.88,235.44L946.4,235.92L953.16,234.75L959.92,234.99L966.68,236.12L973.44,235.16L980.2,235.76L993.72,235.27L1000.48,232.83" style="vector-effect: none; fill: none; stroke: rgb(247, 163, 92); stroke-opacity: 1; stroke-width: 2px; opacity: 1;"/></g><g class="points"/><g class="text"/></g><g class="trace scatter traceb55218" style="stroke-miterlimit: 2; opacity: 1;"><g class="fills"/><g class="errorbars"/><g class="lines"><path class="js-line" d="M0,144.4L6.76,236.19L13.52,245.81L20.28,243.54L27.04,284.65L33.8,244.24L40.56,240.49L47.32,233.82L54.08,165.95L60.84,258.32L67.6,217.95L74.36,242.56L81.12,217.98L87.88,218.1L94.64,231.13L101.4,236.82L108.16,240.34L114.92,242.88L121.68,239.58L128.44,237.4L135.2,238.76L141.96,236.33L148.72,236.77L155.48,238.57L162.24,237.63L169,237.4L175.76,238.42L182.52,235.85L189.28,238.2L196.04,238.36L202.8,236.24L216.32,237.62L223.08,236.97L229.84,237.36L236.6,239.06L243.36,236.9L250.12,236.89L256.88,238.89L263.64,237.93L270.4,237.3L277.16,238.04L283.92,237.87L290.68,236.44L297.44,237.77L304.2,236.56L310.96,237.06L317.72,239.34L324.48,237.15L331.24,236.53L338,238.93L344.76,237.01L351.52,235.54L358.28,238.7L371.8,236.19L378.56,238.86L385.32,237.02L392.08,238.18L398.84,239.76L405.6,237.5L412.36,237.6L419.12,238.52L425.88,236.6L432.64,236.33L446.16,237.17L452.92,236.27L459.68,238.33L466.44,237.07L479.96,238.78L486.72,237.84L493.48,237.66L500.24,238.86L513.76,236.38L520.52,237.94L527.28,236.67L534.04,236.17L540.8,238.16L547.56,237.41L561.08,238.37L567.84,236.46L581.36,237.98L588.12,236.7L594.88,236.23L601.64,236.99L615.16,235.92L621.92,238.81L628.68,236.56L635.44,237.07L642.2,238.1L648.96,236.22L655.72,236.48L662.48,238.09L669.24,235.69L676,235.76L682.76,238.15L689.52,236.72L703.04,237.72L709.8,235.29L723.32,237.07L730.08,235.66L743.6,237.93L750.36,236.06L757.12,235.47L763.88,238.01L770.64,236.7L777.4,236.43L784.16,238.23L790.92,235.59L804.44,237.33L811.2,235.04L817.96,237.15L824.72,237.32L831.48,234.83L838.24,235.25L845,237.2L851.76,236.64L865.28,235.72L872.04,233.76L878.8,236.32L885.56,236.51L892.32,234.68L899.08,233.88L905.84,235.41L912.6,234.25L919.36,234.16L926.12,236.18L939.64,233.7L946.4,235.66L953.16,233.23L959.92,234.18L966.68,234.62L973.44,234.19L980.2,233.81L986.96,234.97L1000.48,231.49" style="vector-effect: none; fill: none; stroke: rgb(128, 133, 233); stroke-opacity: 1; stroke-width: 2px; opacity: 1;"/></g><g class="points"/><g class="text"/></g></g></g></g><path class="xlines-above crisp" d="M0,0" style="fill: none;"/><path class="ylines-above crisp" d="M0,0" style="fill: none;"/><g class="overlines-above"/><g class="xaxislayer-above"><g class="xtick"><text text-anchor="middle" x="0" y="451" transform="translate(199.44,0)" style="font-family: 'Lucida Grande', 'Open Sans', verdana, arial, sans-serif; font-size: 10px; fill: rgb(0, 0, 0); fill-opacity: 1; white-space: pre; opacity: 1;">20</text></g><g class="xtick"><text text-anchor="middle" x="0" y="451" style="font-family: 'Lucida Grande', 'Open Sans', verdana, arial, sans-serif; font-size: 10px; fill: rgb(0, 0, 0); fill-opacity: 1; white-space: pre; opacity: 1;" transform="translate(334.64,0)">40</text></g><g class="xtick"><text text-anchor="middle" x="0" y="451" style="font-family: 'Lucida Grande', 'Open Sans', verdana, arial, sans-serif; font-size: 10px; fill: rgb(0, 0, 0); fill-opacity: 1; white-space: pre; opacity: 1;" transform="translate(469.84,0)">60</text></g><g class="xtick"><text text-anchor="middle" x="0" y="451" style="font-family: 'Lucida Grande', 'Open Sans', verdana, arial, sans-serif; font-size: 10px; fill: rgb(0, 0, 0); fill-opacity: 1; white-space: pre; opacity: 1;" transform="translate(605.04,0)">80</text></g><g class="xtick"><text text-anchor="middle" x="0" y="451" style="font-family: 'Lucida Grande', 'Open Sans', verdana, arial, sans-serif; font-size: 10px; fill: rgb(0, 0, 0); fill-opacity: 1; white-space: pre; opacity: 1;" transform="translate(740.24,0)">100</text></g><g class="xtick"><text text-anchor="middle" x="0" y="451" style="font-family: 'Lucida Grande', 'Open Sans', verdana, arial, sans-serif; font-size: 10px; fill: rgb(0, 0, 0); fill-opacity: 1; white-space: pre; opacity: 1;" transform="translate(875.44,0)">120</text></g><g class="xtick"><text text-anchor="middle" x="0" y="451" style="font-family: 'Lucida Grande', 'Open Sans', verdana, arial, sans-serif; font-size: 10px; fill: rgb(0, 0, 0); fill-opacity: 1; white-space: pre; opacity: 1;" transform="translate(1010.64,0)">140</text></g></g><g class="yaxislayer-above"><g class="ytick"><text text-anchor="end" x="65" y="3.5" transform="translate(0,435)" style="font-family: 'Lucida Grande', 'Open Sans', verdana, arial, sans-serif; font-size: 10px; fill: rgb(0, 0, 0); fill-opacity: 1; white-space: pre; opacity: 1;">0%</text></g><g class="ytick"><text text-anchor="end" x="65" y="3.5" style="font-family: 'Lucida Grande', 'Open Sans', verdana, arial, sans-serif; font-size: 10px; fill: rgb(0, 0, 0); fill-opacity: 1; white-space: pre; opacity: 1;" transform="translate(0,358)">20%</text></g><g class="ytick"><text text-anchor="end" x="65" y="3.5" style="font-family: 'Lucida Grande', 'Open Sans', verdana, arial, sans-serif; font-size: 10px; fill: rgb(0, 0, 0); fill-opacity: 1; white-space: pre; opacity: 1;" transform="translate(0,281)">40%</text></g><g class="ytick"><text text-anchor="end" x="65" y="3.5" style="font-family: 'Lucida Grande', 'Open Sans', verdana, arial, sans-serif; font-size: 10px; fill: rgb(0, 0, 0); fill-opacity: 1; white-space: pre; opacity: 1;" transform="translate(0,204)">60%</text></g><g class="ytick"><text text-anchor="end" x="65" y="3.5" style="font-family: 'Lucida Grande', 'Open Sans', verdana, arial, sans-serif; font-size: 10px; fill: rgb(0, 0, 0); fill-opacity: 1; white-space: pre; opacity: 1;" transform="translate(0,127)">80%</text></g><g class="ytick"><text text-anchor="end" x="65" y="3.5" style="font-family: 'Lucida Grande', 'Open Sans', verdana, arial, sans-serif; font-size: 10px; fill: rgb(0, 0, 0); fill-opacity: 1; white-space: pre; opacity: 1;" transform="translate(0,50)">100%</text></g></g><g class="overaxes-above"/></g></g><g class="polarlayer"/><g class="smithlayer"/><g class="ternarylayer"/><g class="geolayer"/><g class="funnelarealayer"/><g class="pielayer"/><g class="iciclelayer"/><g class="treemaplayer"/><g class="sunburstlayer"/><g class="glimages"/><defs id="topdefs-82a374"><g class="clips"/></defs><g class="layer-above"><g class="imagelayer"/><g class="shapelayer"/></g><g class="infolayer"><g class="g-gtitle"><text class="gtitle" x="550" y="25" text-anchor="middle" dy="0em" style="opacity: 1; font-family: 'Lucida Grande', 'Open Sans', verdana, arial, sans-serif; font-size: 20px; fill: rgb(42, 63, 95); fill-opacity: 1; white-space: pre;"><tspan class="line" dy="0em" x="550" y="25">Fastp: Read GC Content</tspan><tspan class="line" dy="1.3em" x="550" y="25">​<tspan style="font-size:70%" dy="-0.6em">Read 2: Before filtering, 5 samples</tspan><tspan dy="0.42em">​</tspan></tspan></text></g><g class="g-xtitle"><text class="xtitle" x="578" y="472.3" text-anchor="middle" style="opacity: 0.3; font-family: 'Lucida Grande', 'Open Sans', verdana, arial, sans-serif; font-size: 14px; fill: rgb(0, 0, 0); fill-opacity: 1; white-space: pre;">Read Position</text></g><g class="g-ytitle"><text class="ytitle" transform="rotate(-90,22.00625,242.5)" x="22.00625" y="242.5" text-anchor="middle" style="opacity: 0.3; font-family: 'Lucida Grande', 'Open Sans', verdana, arial, sans-serif; font-size: 14px; fill: rgb(0, 0, 0); fill-opacity: 1; white-space: pre;">R2 Before filtering: Base Content Percent</text></g></g></svg>