<svg class="main-svg" xmlns="http://www.w3.org/2000/svg" xmlns:xlink="http://www.w3.org/1999/xlink" width="2200" height="1000" style="" viewBox="0 0 1100 500"><rect x="0" y="0" width="1100" height="500" style="fill: rgb(255, 255, 255); fill-opacity: 1;"/><defs id="defs-d306ce"><g class="clips"><clipPath id="clipd306cexyplot" class="plotclip"><rect width="1025" height="385"/></clipPath><clipPath class="axesclip" id="clipd306cex"><rect x="60" y="0" width="1025" height="500"/></clipPath><clipPath class="axesclip" id="clipd306cey"><rect x="0" y="50" width="1100" height="385"/></clipPath><clipPath class="axesclip" id="clipd306cexy"><rect x="60" y="50" width="1025" height="385"/></clipPath></g><g class="gradients"/><g class="patterns"/></defs><g class="bglayer"/><g class="layer-below"><g class="imagelayer"/><g class="shapelayer"/></g><g class="cartesianlayer"><g class="subplot xy"><g class="layer-subplot"><g class="shapelayer"/><g class="imagelayer"/></g><g class="minor-gridlayer"><g class="x"/><g class="y"/></g><g class="gridlayer"><g class="x"><path class="xgrid crisp" transform="translate(189.83,0)" d="M0,50v385" style="stroke: rgb(0, 0, 0); stroke-opacity: 0.05; stroke-width: 1px;"/><path class="xgrid crisp" transform="translate(326.5,0)" d="M0,50v385" style="stroke: rgb(0, 0, 0); stroke-opacity: 0.05; stroke-width: 1px;"/><path class="xgrid crisp" transform="translate(463.17,0)" d="M0,50v385" style="stroke: rgb(0, 0, 0); stroke-opacity: 0.05; stroke-width: 1px;"/><path class="xgrid crisp" transform="translate(599.83,0)" d="M0,50v385" style="stroke: rgb(0, 0, 0); stroke-opacity: 0.05; stroke-width: 1px;"/><path class="xgrid crisp" transform="translate(736.5,0)" d="M0,50v385" style="stroke: rgb(0, 0, 0); stroke-opacity: 0.05; stroke-width: 1px;"/><path class="xgrid crisp" transform="translate(873.17,0)" d="M0,50v385" style="stroke: rgb(0, 0, 0); stroke-opacity: 0.05; stroke-width: 1px;"/><path class="xgrid crisp" transform="translate(1009.83,0)" d="M0,50v385" style="stroke: rgb(0, 0, 0); stroke-opacity: 0.05; stroke-width: 1px;"/></g><g class="y"><path class="ygrid crisp" transform="translate(0,384.56)" d="M60,0h1025" style="stroke: rgb(0, 0, 0); stroke-opacity: 0.05; stroke-width: 1px;"/><path class="ygrid crisp" transform="translate(0,334.11)" d="M60,0h1025" style="stroke: rgb(0, 0, 0); stroke-opacity: 0.05; stroke-width: 1px;"/><path class="ygrid crisp" transform="translate(0,283.66999999999996)" d="M60,0h1025" style="stroke: rgb(0, 0, 0); stroke-opacity: 0.05; stroke-width: 1px;"/><path class="ygrid crisp" transform="translate(0,233.23)" d="M60,0h1025" style="stroke: rgb(0, 0, 0); stroke-opacity: 0.05; stroke-width: 1px;"/><path class="ygrid crisp" transform="translate(0,182.78)" d="M60,0h1025" style="stroke: rgb(0, 0, 0); stroke-opacity: 0.05; stroke-width: 1px;"/><path class="ygrid crisp" transform="translate(0,132.34)" d="M60,0h1025" style="stroke: rgb(0, 0, 0); stroke-opacity: 0.05; stroke-width: 1px;"/><path class="ygrid crisp" transform="translate(0,81.9)" d="M60,0h1025" style="stroke: rgb(0, 0, 0); stroke-opacity: 0.05; stroke-width: 1px;"/></g></g><g class="zerolinelayer"><path class="yzl zl crisp" transform="translate(0,435)" d="M60,0h1025" style="stroke: rgb(0, 0, 0); stroke-opacity: 0.05; stroke-width: 2px;"/></g><g class="layer-between"><g class="shapelayer"/><g class="imagelayer"/></g><path class="xlines-below"/><path class="ylines-below"/><g class="overlines-below"/><g class="xaxislayer-below"/><g class="yaxislayer-below"/><g class="overaxes-below"/><g class="overplot"><g class="xy" transform="translate(60,50)" clip-path="url(#clipd306cexyplot)"><g class="scatterlayer mlayer"><g class="trace scatter traceeae036" style="stroke-miterlimit: 2; opacity: 1;"><g class="fills"/><g class="errorbars"/><g class="lines"><path class="js-line" d="M0,54.66L6.83,28.7L13.67,28L20.5,26.23L27.33,28.46L34.17,24.22L41,24.3L47.83,24.63L54.67,23.54L61.5,24.59L68.33,22.98L75.17,24L82,24.21L211.83,25.83L218.67,26.72L246,26.65L252.83,26.59L307.5,26.81L314.33,27.58L321.17,27.03L328,27.42L348.5,27.61L355.33,27.51L362.17,28.07L369,27.28L382.67,27.13L389.5,27.97L437.33,27.48L444.17,28.27L464.67,28.13L471.5,27.71L498.83,28.57L505.67,28.21L519.33,28.81L526.17,28.78L546.67,29.68L553.5,29.03L601.33,29.74L608.17,29.33L635.5,30.15L642.33,30.06L656,30.12L662.83,30.36L683.33,30.25L690.17,30.62L710.67,30.53L717.5,31.12L744.83,31.96L751.67,31.88L765.33,32.3L772.17,32.29L779,32.95L785.83,32.56L792.67,33.32L799.5,33.13L820,32.86L826.83,34.07L833.67,32.92L840.5,33.58L867.83,33.56L874.67,34.15L895.17,34.33L902,34.57L915.67,34.3L922.5,35.5L936.17,34.82L943,35.21L949.83,36.21L956.67,35.89L970.33,36.11L977.17,37.59L1004.5,37.56L1011.33,38.57L1018.17,39.49L1025,72.91" style="vector-effect: none; fill: none; stroke: rgb(124, 181, 236); stroke-opacity: 1; stroke-width: 2px; opacity: 1;"/></g><g class="points"/><g class="text"/></g><g class="trace scatter traceedd675" style="stroke-miterlimit: 2; opacity: 1;"><g class="fills"/><g class="errorbars"/><g class="lines"><path class="js-line" d="M0,55.22L6.83,27.97L13.67,28.25L20.5,26.12L27.33,26.92L34.17,24.39L41,24.56L47.83,25.31L54.67,23.84L61.5,24.43L68.33,23.8L75.17,24.72L82,24.1L88.83,24.98L95.67,24.82L116.17,25.49L123,24.86L129.83,24.9L136.67,25.72L150.33,25.96L157.17,25.77L177.67,25.68L184.5,25.84L191.33,25.91L198.17,26.85L205,25.98L211.83,26.12L225.5,25.82L232.33,25.86L246,26.2L252.83,26.01L273.33,26.48L280.17,26.12L293.83,26.32L300.67,26.78L307.5,26L314.33,26.5L498.83,27.93L505.67,28.23L594.5,29.6L601.33,30.17L608.17,29.26L615,29.55L642.33,30.19L649.17,29.89L676.5,30.37L683.33,31.3L697,31.57L703.83,32L724.33,32.29L731.17,31.97L738,33.1L744.83,32.98L758.5,32.92L765.33,33.34L799.5,34.57L806.33,34.64L813.17,35.01L820,34.56L847.33,36.78L854.17,35.57L867.83,37.25L874.67,36.54L881.5,37.13L888.33,36.69L895.17,36.71L902,37.89L908.83,37.29L915.67,37.99L929.33,38.32L936.17,39.45L943,39.22L949.83,39.88L970.33,39.93L977.17,40.35L984,41L990.83,39.89L997.67,41.25L1004.5,40.16L1018.17,42.2L1025,90.62" style="vector-effect: none; fill: none; stroke: rgb(67, 67, 72); stroke-opacity: 1; stroke-width: 2px; opacity: 1;"/></g><g class="points"/><g class="text"/></g><g class="trace scatter trace9034fd" style="stroke-miterlimit: 2; opacity: 1;"><g class="fills"/><g class="errorbars"/><g class="lines"><path class="js-line" d="M0,55.55L6.83,32.17L13.67,29.37L20.5,27.13L27.33,28.46L34.17,25.11L41,24.23L47.83,25.61L54.67,22.88L61.5,25.13L68.33,23.33L75.17,24.9L82,24.27L88.83,25.22L95.67,25.36L109.33,25.56L116.17,25.96L129.83,25.67L136.67,25.92L150.33,26.04L157.17,26.23L177.67,26.32L184.5,26.77L211.83,27.15L218.67,26.71L246,27.62L252.83,27.13L266.5,27.17L273.33,27.58L293.83,27.72L300.67,28.17L314.33,27.74L321.17,28.33L328,27.71L334.83,28.1L348.5,27.88L355.33,28.19L396.33,29.02L403.17,28.73L430.5,28.59L437.33,28.9L478.33,29.19L485.17,29.68L505.67,29.42L512.5,30.57L533,29.65L539.83,29.95L546.67,30.45L553.5,30.19L580.83,31.06L587.67,30.66L601.33,30.7L608.17,31.46L615,30.52L621.83,31.06L649.17,32.19L656,31.49L683.33,33.67L690.17,32.9L703.83,33.16L710.67,33.38L738,33.56L744.83,33.9L751.67,34.77L758.5,34.57L820,35.39L826.83,35.97L840.5,36.19L847.33,37.82L867.83,37.49L874.67,38.71L895.17,38.23L902,38.34L908.83,39.16L915.67,38.84L929.33,39.3L936.17,41L943,39.51L949.83,40.34L956.67,39.63L963.5,40.6L977.17,40.04L984,40.67L1018.17,42.38L1025,102.1" style="vector-effect: none; fill: none; stroke: rgb(144, 237, 125); stroke-opacity: 1; stroke-width: 2px; opacity: 1;"/></g><g class="points"/><g class="text"/></g><g class="trace scatter trace6ca203" style="stroke-miterlimit: 2; opacity: 1;"><g class="fills"/><g class="errorbars"/><g class="lines"><path class="js-line" d="M0,54.49L6.83,23.82L13.67,22.49L20.5,20.96L27.33,22.32L34.17,20.24L41,20.13L47.83,20.52L54.67,19.25L61.5,20.42L68.33,19.45L75.17,20.42L82,20.15L123,20.76L129.83,20.64L170.83,21.26L177.67,21.27L191.33,21.42L198.17,21.74L232.33,22.01L239.17,22.04L355.33,23.06L362.17,23.05L410,23.43L416.83,23.34L437.33,23.84L444.17,23.63L478.33,23.9L485.17,24.11L519.33,24.53L526.17,24.78L567.17,25L574,25.29L615,25.64L621.83,25.68L806.33,28.21L813.17,28.79L826.83,29.12L833.67,29.35L847.33,29.23L854.17,29.58L874.67,29.59L881.5,29.75L895.17,29.8L902,29.78L929.33,29.87L936.17,30.25L956.67,31.49L963.5,31.6L977.17,31.82L984,32.13L1004.5,33.21L1011.33,59.59" style="vector-effect: none; fill: none; stroke: rgb(247, 163, 92); stroke-opacity: 1; stroke-width: 2px; opacity: 1;"/></g><g class="points"/><g class="text"/></g><g class="trace scatter tracea33b76" style="stroke-miterlimit: 2; opacity: 1;"><g class="fills"/><g class="errorbars"/><g class="lines"><path class="js-line" d="M0,60.82L6.83,39.97L13.67,39.35L20.5,36.56L27.33,37.19L34.17,33.65L41,33.67L47.83,34.17L54.67,32.46L61.5,33.79L68.33,32.35L75.17,33.29L82,32.82L95.67,34.29L102.5,34.06L123,34.01L129.83,34.2L164,35.4L170.83,35.25L280.17,36.43L287,36.52L307.5,36.64L314.33,37.01L355.33,36.99L362.17,37.88L403.17,38.03L410,38.85L437.33,38.74L444.17,39.23L471.5,39.56L478.33,39.89L498.83,39.48L505.67,39.94L526.17,40.41L533,40.34L546.67,40.91L553.5,40.75L567.17,41.3L574,41.2L635.5,42.74L642.33,43.97L669.67,43.95L676.5,44.16L697,44.3L703.83,44.72L731.17,45.71L738,46.48L744.83,46.31L751.67,47.3L785.83,48.94L792.67,50.03L806.33,49.95L813.17,50.65L854.17,52.99L861,53.76L881.5,53.98L888.33,54.65L908.83,55.71L915.67,56.29L929.33,56.36L936.17,57.05L963.5,58.27L970.33,58.59L990.83,59.51L997.67,60.35L1004.5,60.55L1011.33,101.74" style="vector-effect: none; fill: none; stroke: rgb(128, 133, 233); stroke-opacity: 1; stroke-width: 2px; opacity: 1;"/></g><g class="points"/><g class="text"/></g></g></g></g><path class="xlines-above crisp" d="M0,0" style="fill: none;"/><path class="ylines-above crisp" d="M0,0" style="fill: none;"/><g class="overlines-above"/><g class="xaxislayer-above"><g class="xtick"><text text-anchor="middle" x="0" y="451" transform="translate(189.83,0)" style="font-family: 'Lucida Grande', 'Open Sans', verdana, arial, sans-serif; font-size: 10px; fill: rgb(0, 0, 0); fill-opacity: 1; white-space: pre; opacity: 1;">20</text></g><g class="xtick"><text text-anchor="middle" x="0" y="451" style="font-family: 'Lucida Grande', 'Open Sans', verdana, arial, sans-serif; font-size: 10px; fill: rgb(0, 0, 0); fill-opacity: 1; white-space: pre; opacity: 1;" transform="translate(326.5,0)">40</text></g><g class="xtick"><text text-anchor="middle" x="0" y="451" style="font-family: 'Lucida Grande', 'Open Sans', verdana, arial, sans-serif; font-size: 10px; fill: rgb(0, 0, 0); fill-opacity: 1; white-space: pre; opacity: 1;" transform="translate(463.17,0)">60</text></g><g class="xtick"><text text-anchor="middle" x="0" y="451" style="font-family: 'Lucida Grande', 'Open Sans', verdana, arial, sans-serif; font-size: 10px; fill: rgb(0, 0, 0); fill-opacity: 1; white-space: pre; opacity: 1;" transform="translate(599.83,0)">80</text></g><g class="xtick"><text text-anchor="middle" x="0" y="451" style="font-family: 'Lucida Grande', 'Open Sans', verdana, arial, sans-serif; font-size: 10px; fill: rgb(0, 0, 0); fill-opacity: 1; white-space: pre; opacity: 1;" transform="translate(736.5,0)">100</text></g><g class="xtick"><text text-anchor="middle" x="0" y="451" style="font-family: 'Lucida Grande', 'Open Sans', verdana, arial, sans-serif; font-size: 10px; fill: rgb(0, 0, 0); fill-opacity: 1; white-space: pre; opacity: 1;" transform="translate(873.17,0)">120</text></g><g class="xtick"><text text-anchor="middle" x="0" y="451" style="font-family: 'Lucida Grande', 'Open Sans', verdana, arial, sans-serif; font-size: 10px; fill: rgb(0, 0, 0); fill-opacity: 1; white-space: pre; opacity: 1;" transform="translate(1009.83,0)">140</text></g></g><g class="yaxislayer-above"><g class="ytick"><text text-anchor="end" x="54" y="3.5" transform="translate(0,435)" style="font-family: 'Lucida Grande', 'Open Sans', verdana, arial, sans-serif; font-size: 10px; fill: rgb(0, 0, 0); fill-opacity: 1; white-space: pre; opacity: 1;">0</text></g><g class="ytick"><text text-anchor="end" x="54" y="3.5" style="font-family: 'Lucida Grande', 'Open Sans', verdana, arial, sans-serif; font-size: 10px; fill: rgb(0, 0, 0); fill-opacity: 1; white-space: pre; opacity: 1;" transform="translate(0,384.56)">5</text></g><g class="ytick"><text text-anchor="end" x="54" y="3.5" style="font-family: 'Lucida Grande', 'Open Sans', verdana, arial, sans-serif; font-size: 10px; fill: rgb(0, 0, 0); fill-opacity: 1; white-space: pre; opacity: 1;" transform="translate(0,334.11)">10</text></g><g class="ytick"><text text-anchor="end" x="54" y="3.5" style="font-family: 'Lucida Grande', 'Open Sans', verdana, arial, sans-serif; font-size: 10px; fill: rgb(0, 0, 0); fill-opacity: 1; white-space: pre; opacity: 1;" transform="translate(0,283.66999999999996)">15</text></g><g class="ytick"><text text-anchor="end" x="54" y="3.5" style="font-family: 'Lucida Grande', 'Open Sans', verdana, arial, sans-serif; font-size: 10px; fill: rgb(0, 0, 0); fill-opacity: 1; white-space: pre; opacity: 1;" transform="translate(0,233.23)">20</text></g><g class="ytick"><text text-anchor="end" x="54" y="3.5" style="font-family: 'Lucida Grande', 'Open Sans', verdana, arial, sans-serif; font-size: 10px; fill: rgb(0, 0, 0); fill-opacity: 1; white-space: pre; opacity: 1;" transform="translate(0,182.78)">25</text></g><g class="ytick"><text text-anchor="end" x="54" y="3.5" style="font-family: 'Lucida Grande', 'Open Sans', verdana, arial, sans-serif; font-size: 10px; fill: rgb(0, 0, 0); fill-opacity: 1; white-space: pre; opacity: 1;" transform="translate(0,132.34)">30</text></g><g class="ytick"><text text-anchor="end" x="54" y="3.5" style="font-family: 'Lucida Grande', 'Open Sans', verdana, arial, sans-serif; font-size: 10px; fill: rgb(0, 0, 0); fill-opacity: 1; white-space: pre; opacity: 1;" transform="translate(0,81.9)">35</text></g></g><g class="overaxes-above"/></g></g><g class="polarlayer"/><g class="smithlayer"/><g class="ternarylayer"/><g class="geolayer"/><g class="funnelarealayer"/><g class="pielayer"/><g class="iciclelayer"/><g class="treemaplayer"/><g class="sunburstlayer"/><g class="glimages"/><defs id="topdefs-d306ce"><g class="clips"/></defs><g class="layer-above"><g class="imagelayer"/><g class="shapelayer"/></g><g class="infolayer"><g class="g-gtitle"><text class="gtitle" x="550" y="25" text-anchor="middle" dy="0em" style="opacity: 1; font-family: 'Lucida Grande', 'Open Sans', verdana, arial, sans-serif; font-size: 20px; fill: rgb(42, 63, 95); fill-opacity: 1; white-space: pre;"><tspan class="line" dy="0em" x="550" y="25">Fastp: Sequence Quality</tspan><tspan class="line" dy="1.3em" x="550" y="25">​<tspan style="font-size:70%" dy="-0.6em">Read 2: After filtering, 5 samples</tspan><tspan dy="0.42em">​</tspan></tspan></text></g><g class="g-xtitle"><text class="xtitle" x="572.5" y="472.3" text-anchor="middle" style="opacity: 0.3; font-family: 'Lucida Grande', 'Open Sans', verdana, arial, sans-serif; font-size: 14px; fill: rgb(0, 0, 0); fill-opacity: 1; white-space: pre;">Read Position</text></g><g class="g-ytitle"><text class="ytitle" transform="rotate(-90,26.865625,242.5)" x="26.865625" y="242.5" text-anchor="middle" style="opacity: 0.3; font-family: 'Lucida Grande', 'Open Sans', verdana, arial, sans-serif; font-size: 14px; fill: rgb(0, 0, 0); fill-opacity: 1; white-space: pre;">R2 After filtering: Sequence Quality</text></g></g></svg>