<svg class="main-svg" xmlns="http://www.w3.org/2000/svg" xmlns:xlink="http://www.w3.org/1999/xlink" width="2200" height="1000" style="" viewBox="0 0 1100 500"><rect x="0" y="0" width="1100" height="500" style="fill: rgb(255, 255, 255); fill-opacity: 1;"/><defs id="defs-e3479f"><g class="clips"><clipPath id="clipe3479fxyplot" class="plotclip"><rect width="1025" height="385"/></clipPath><clipPath class="axesclip" id="clipe3479fx"><rect x="60" y="0" width="1025" height="500"/></clipPath><clipPath class="axesclip" id="clipe3479fy"><rect x="0" y="50" width="1100" height="385"/></clipPath><clipPath class="axesclip" id="clipe3479fxy"><rect x="60" y="50" width="1025" height="385"/></clipPath></g><g class="gradients"/><g class="patterns"/></defs><g class="bglayer"/><g class="layer-below"><g class="imagelayer"/><g class="shapelayer"/></g><g class="cartesianlayer"><g class="subplot xy"><g class="layer-subplot"><g class="shapelayer"/><g class="imagelayer"/></g><g class="minor-gridlayer"><g class="x"/><g class="y"/></g><g class="gridlayer"><g class="x"><path class="xgrid crisp" transform="translate(189.83,0)" d="M0,50v385" style="stroke: rgb(0, 0, 0); stroke-opacity: 0.05; stroke-width: 1px;"/><path class="xgrid crisp" transform="translate(326.5,0)" d="M0,50v385" style="stroke: rgb(0, 0, 0); stroke-opacity: 0.05; stroke-width: 1px;"/><path class="xgrid crisp" transform="translate(463.17,0)" d="M0,50v385" style="stroke: rgb(0, 0, 0); stroke-opacity: 0.05; stroke-width: 1px;"/><path class="xgrid crisp" transform="translate(599.83,0)" d="M0,50v385" style="stroke: rgb(0, 0, 0); stroke-opacity: 0.05; stroke-width: 1px;"/><path class="xgrid crisp" transform="translate(736.5,0)" d="M0,50v385" style="stroke: rgb(0, 0, 0); stroke-opacity: 0.05; stroke-width: 1px;"/><path class="xgrid crisp" transform="translate(873.17,0)" d="M0,50v385" style="stroke: rgb(0, 0, 0); stroke-opacity: 0.05; stroke-width: 1px;"/><path class="xgrid crisp" transform="translate(1009.83,0)" d="M0,50v385" style="stroke: rgb(0, 0, 0); stroke-opacity: 0.05; stroke-width: 1px;"/></g><g class="y"><path class="ygrid crisp" transform="translate(0,384.48)" d="M60,0h1025" style="stroke: rgb(0, 0, 0); stroke-opacity: 0.05; stroke-width: 1px;"/><path class="ygrid crisp" transform="translate(0,333.96)" d="M60,0h1025" style="stroke: rgb(0, 0, 0); stroke-opacity: 0.05; stroke-width: 1px;"/><path class="ygrid crisp" transform="translate(0,283.44)" d="M60,0h1025" style="stroke: rgb(0, 0, 0); stroke-opacity: 0.05; stroke-width: 1px;"/><path class="ygrid crisp" transform="translate(0,232.93)" d="M60,0h1025" style="stroke: rgb(0, 0, 0); stroke-opacity: 0.05; stroke-width: 1px;"/><path class="ygrid crisp" transform="translate(0,182.41)" d="M60,0h1025" style="stroke: rgb(0, 0, 0); stroke-opacity: 0.05; stroke-width: 1px;"/><path class="ygrid crisp" transform="translate(0,131.89)" d="M60,0h1025" style="stroke: rgb(0, 0, 0); stroke-opacity: 0.05; stroke-width: 1px;"/><path class="ygrid crisp" transform="translate(0,81.37)" d="M60,0h1025" style="stroke: rgb(0, 0, 0); stroke-opacity: 0.05; stroke-width: 1px;"/></g></g><g class="zerolinelayer"><path class="yzl zl crisp" transform="translate(0,435)" d="M60,0h1025" style="stroke: rgb(0, 0, 0); stroke-opacity: 0.05; stroke-width: 2px;"/></g><g class="layer-between"><g class="shapelayer"/><g class="imagelayer"/></g><path class="xlines-below"/><path class="ylines-below"/><g class="overlines-below"/><g class="xaxislayer-below"/><g class="yaxislayer-below"/><g class="overaxes-below"/><g class="overplot"><g class="xy" transform="translate(60,50)" clip-path="url(#clipe3479fxyplot)"><g class="scatterlayer mlayer"><g class="trace scatter trace516333" style="stroke-miterlimit: 2; opacity: 1;"><g class="fills"/><g class="errorbars"/><g class="lines"><path class="js-line" d="M0,55.57L6.83,29.85L13.67,29.23L20.5,27.49L27.33,29.62L34.17,25.41L41,25.53L47.83,25.84L54.67,24.7L61.5,25.76L68.33,24.15L75.17,25.24L82,25.42L211.83,27.24L218.67,28.1L266.5,26.89L273.33,27.62L287,27.21L293.83,27.93L307.5,27.43L314.33,28.18L321.17,27.58L328,28.07L348.5,28.22L355.33,28.15L362.17,28.69L369,28.01L382.67,27.8L389.5,28.66L410,28.3L416.83,27.89L430.5,28.49L437.33,28.23L444.17,29.15L451,29.11L512.5,29.51L519.33,29.69L539.83,29.89L546.67,30.54L560.33,30.01L567.17,30.26L574,29.72L580.83,30.16L601.33,30.71L608.17,30.23L635.5,31.07L642.33,31.11L656,31.13L662.83,31.33L697,31.57L703.83,31.72L717.5,32.2L724.33,32.48L738,33L744.83,33.08L758.5,33.37L765.33,33.42L785.83,33.67L792.67,34.47L806.33,34.22L813.17,34.7L820,34.01L826.83,35.28L833.67,34.06L840.5,34.67L867.83,34.83L874.67,35.37L895.17,35.56L902,35.89L915.67,35.56L922.5,36.88L936.17,36.09L943,36.55L949.83,37.52L956.67,37.23L970.33,37.42L977.17,38.94L1004.5,38.98L1011.33,39.98L1018.17,41.01L1025,74.23" style="vector-effect: none; fill: none; stroke: rgb(124, 181, 236); stroke-opacity: 1; stroke-width: 2px; opacity: 1;"/></g><g class="points"/><g class="text"/></g><g class="trace scatter traceef5bd8" style="stroke-miterlimit: 2; opacity: 1;"><g class="fills"/><g class="errorbars"/><g class="lines"><path class="js-line" d="M0,57.07L6.83,30.4L13.67,30.72L20.5,28.48L27.33,29.32L34.17,26.82L41,27.01L47.83,27.79L54.67,26.37L61.5,26.84L68.33,26.41L75.17,27.2L82,26.6L88.83,27.62L95.67,27.33L116.17,27.87L123,27.29L136.67,28.17L143.5,28.66L191.33,28.41L198.17,29.39L205,28.66L211.83,28.74L218.67,28.19L225.5,28.59L232.33,28.38L239.17,27.26L287,27.06L293.83,27.48L300.67,27.97L307.5,27.11L321.17,27.79L328,27.73L423.67,28.64L430.5,28.34L457.83,28.87L464.67,28.78L471.5,29.2L478.33,28.71L601.33,31.45L608.17,30.67L649.17,31.25L656,31.36L676.5,31.81L683.33,32.78L731.17,33.47L738,34.74L758.5,34.47L765.33,34.93L813.17,36.69L820,36.18L847.33,38.63L854.17,37.38L867.83,39.01L874.67,38.4L881.5,38.92L888.33,38.64L895.17,38.52L902,39.76L908.83,39.2L915.67,39.78L929.33,40.24L936.17,41.45L943,41.25L949.83,41.92L963.5,41.54L970.33,41.9L984,43.02L990.83,41.89L997.67,43.33L1004.5,42.28L1018.17,44.26L1025,92.26" style="vector-effect: none; fill: none; stroke: rgb(67, 67, 72); stroke-opacity: 1; stroke-width: 2px; opacity: 1;"/></g><g class="points"/><g class="text"/></g><g class="trace scatter trace669215" style="stroke-miterlimit: 2; opacity: 1;"><g class="fills"/><g class="errorbars"/><g class="lines"><path class="js-line" d="M0,58.61L6.83,36.06L13.67,33.23L20.5,30.99L27.33,32.28L34.17,28.94L41,27.95L47.83,29.35L54.67,26.53L61.5,28.9L68.33,27.05L75.17,28.72L82,28.23L95.67,29.21L102.5,29.11L123,29.6L129.83,29.68L170.83,30.65L177.67,30.45L191.33,31.3L198.17,31.23L232.33,31.74L239.17,28.95L246,29.42L252.83,28.93L266.5,28.98L273.33,29.38L293.83,29.54L300.67,29.95L314.33,29.58L321.17,30.18L328,29.53L334.83,30L348.5,29.74L355.33,30.15L403.17,30.75L410,30.54L498.83,31.98L505.67,31.64L512.5,32.78L519.33,32.35L539.83,32.26L546.67,32.76L567.17,33.02L574,33.46L601.33,33.22L608.17,33.88L615,32.98L621.83,33.47L649.17,34.74L656,34.06L683.33,36.35L690.17,35.52L703.83,35.86L710.67,36.11L738,36.27L744.83,36.76L751.67,37.62L758.5,37.33L826.83,38.97L833.67,39.2L840.5,39.22L847.33,40.91L867.83,40.63L874.67,41.8L902,41.5L908.83,42.43L922.5,42.24L929.33,42.58L936.17,44.31L943,42.79L949.83,43.68L956.67,42.95L963.5,43.99L970.33,43.59L977.17,43.41L984,44.23L1011.33,46.3L1018.17,46.06L1025,104.54" style="vector-effect: none; fill: none; stroke: rgb(144, 237, 125); stroke-opacity: 1; stroke-width: 2px; opacity: 1;"/></g><g class="points"/><g class="text"/></g><g class="trace scatter traceda1f89" style="stroke-miterlimit: 2; opacity: 1;"><g class="fills"/><g class="errorbars"/><g class="lines"><path class="js-line" d="M0,54.33L6.83,23.75L13.67,22.44L20.5,20.91L27.33,22.26L34.17,20.17L41,20.08L47.83,20.47L54.67,19.25L61.5,20.37L68.33,19.42L75.17,20.44L82,20.13L123,20.84L129.83,20.76L150.33,21.14L157.17,21.01L177.67,21.46L184.5,21.34L211.83,22.21L218.67,22.2L252.83,22.43L259.67,22.7L287,22.86L293.83,22.95L375.83,23.92L382.67,23.71L437.33,24.35L444.17,24.16L498.83,24.57L505.67,24.71L526.17,25.38L533,25.33L560.33,25.45L567.17,25.58L587.67,26.09L594.5,26.07L628.67,26.41L635.5,26.25L683.33,27.06L690.17,26.79L765.33,27.95L772.17,27.86L792.67,28.6L799.5,28.53L840.5,29.64L847.33,29.76L861,29.92L867.83,30.1L936.17,30.81L943,31.35L963.5,32.12L970.33,32.1L1004.5,33.77L1011.33,60.11" style="vector-effect: none; fill: none; stroke: rgb(247, 163, 92); stroke-opacity: 1; stroke-width: 2px; opacity: 1;"/></g><g class="points"/><g class="text"/></g><g class="trace scatter trace109732" style="stroke-miterlimit: 2; opacity: 1;"><g class="fills"/><g class="errorbars"/><g class="lines"><path class="js-line" d="M0,61.9L6.83,41.54L13.67,41.03L20.5,38.14L27.33,38.66L34.17,35.24L41,35.33L47.83,35.73L54.67,34.16L61.5,35.52L68.33,33.93L75.17,35.06L82,34.57L95.67,36.15L102.5,35.88L123,35.94L129.83,36.2L164,37.46L170.83,37.29L211.83,38.02L218.67,37.95L232.33,38.08L239.17,38.43L259.67,38.58L266.5,38.64L287,38.91L293.83,38.77L314.33,39.52L321.17,39.44L348.5,39.91L355.33,39.39L362.17,40.27L369,40.32L389.5,40.22L396.33,40.8L403.17,40.48L410,41.24L437.33,41.14L444.17,41.73L471.5,42.15L478.33,42.43L498.83,42.03L505.67,42.43L546.67,43.45L553.5,43.26L567.17,43.84L574,43.74L615,44.91L621.83,45.24L635.5,45.34L642.33,46.47L662.83,46.21L669.67,46.41L731.17,48.04L738,48.86L744.83,48.61L751.67,49.67L826.83,53.7L833.67,53.69L847.33,55.03L854.17,55.48L867.83,55.92L874.67,56.15L895.17,57.31L902,57.61L922.5,58.42L929.33,58.61L936.17,59.44L943,59.4L956.67,60.12L963.5,60.55L990.83,61.76L997.67,62.66L1004.5,62.74L1011.33,103.02" style="vector-effect: none; fill: none; stroke: rgb(128, 133, 233); stroke-opacity: 1; stroke-width: 2px; opacity: 1;"/></g><g class="points"/><g class="text"/></g></g></g></g><path class="xlines-above crisp" d="M0,0" style="fill: none;"/><path class="ylines-above crisp" d="M0,0" style="fill: none;"/><g class="overlines-above"/><g class="xaxislayer-above"><g class="xtick"><text text-anchor="middle" x="0" y="451" transform="translate(189.83,0)" style="font-family: 'Lucida Grande', 'Open Sans', verdana, arial, sans-serif; font-size: 10px; fill: rgb(0, 0, 0); fill-opacity: 1; white-space: pre; opacity: 1;">20</text></g><g class="xtick"><text text-anchor="middle" x="0" y="451" style="font-family: 'Lucida Grande', 'Open Sans', verdana, arial, sans-serif; font-size: 10px; fill: rgb(0, 0, 0); fill-opacity: 1; white-space: pre; opacity: 1;" transform="translate(326.5,0)">40</text></g><g class="xtick"><text text-anchor="middle" x="0" y="451" style="font-family: 'Lucida Grande', 'Open Sans', verdana, arial, sans-serif; font-size: 10px; fill: rgb(0, 0, 0); fill-opacity: 1; white-space: pre; opacity: 1;" transform="translate(463.17,0)">60</text></g><g class="xtick"><text text-anchor="middle" x="0" y="451" style="font-family: 'Lucida Grande', 'Open Sans', verdana, arial, sans-serif; font-size: 10px; fill: rgb(0, 0, 0); fill-opacity: 1; white-space: pre; opacity: 1;" transform="translate(599.83,0)">80</text></g><g class="xtick"><text text-anchor="middle" x="0" y="451" style="font-family: 'Lucida Grande', 'Open Sans', verdana, arial, sans-serif; font-size: 10px; fill: rgb(0, 0, 0); fill-opacity: 1; white-space: pre; opacity: 1;" transform="translate(736.5,0)">100</text></g><g class="xtick"><text text-anchor="middle" x="0" y="451" style="font-family: 'Lucida Grande', 'Open Sans', verdana, arial, sans-serif; font-size: 10px; fill: rgb(0, 0, 0); fill-opacity: 1; white-space: pre; opacity: 1;" transform="translate(873.17,0)">120</text></g><g class="xtick"><text text-anchor="middle" x="0" y="451" style="font-family: 'Lucida Grande', 'Open Sans', verdana, arial, sans-serif; font-size: 10px; fill: rgb(0, 0, 0); fill-opacity: 1; white-space: pre; opacity: 1;" transform="translate(1009.83,0)">140</text></g></g><g class="yaxislayer-above"><g class="ytick"><text text-anchor="end" x="54" y="3.5" transform="translate(0,435)" style="font-family: 'Lucida Grande', 'Open Sans', verdana, arial, sans-serif; font-size: 10px; fill: rgb(0, 0, 0); fill-opacity: 1; white-space: pre; opacity: 1;">0</text></g><g class="ytick"><text text-anchor="end" x="54" y="3.5" style="font-family: 'Lucida Grande', 'Open Sans', verdana, arial, sans-serif; font-size: 10px; fill: rgb(0, 0, 0); fill-opacity: 1; white-space: pre; opacity: 1;" transform="translate(0,384.48)">5</text></g><g class="ytick"><text text-anchor="end" x="54" y="3.5" style="font-family: 'Lucida Grande', 'Open Sans', verdana, arial, sans-serif; font-size: 10px; fill: rgb(0, 0, 0); fill-opacity: 1; white-space: pre; opacity: 1;" transform="translate(0,333.96)">10</text></g><g class="ytick"><text text-anchor="end" x="54" y="3.5" style="font-family: 'Lucida Grande', 'Open Sans', verdana, arial, sans-serif; font-size: 10px; fill: rgb(0, 0, 0); fill-opacity: 1; white-space: pre; opacity: 1;" transform="translate(0,283.44)">15</text></g><g class="ytick"><text text-anchor="end" x="54" y="3.5" style="font-family: 'Lucida Grande', 'Open Sans', verdana, arial, sans-serif; font-size: 10px; fill: rgb(0, 0, 0); fill-opacity: 1; white-space: pre; opacity: 1;" transform="translate(0,232.93)">20</text></g><g class="ytick"><text text-anchor="end" x="54" y="3.5" style="font-family: 'Lucida Grande', 'Open Sans', verdana, arial, sans-serif; font-size: 10px; fill: rgb(0, 0, 0); fill-opacity: 1; white-space: pre; opacity: 1;" transform="translate(0,182.41)">25</text></g><g class="ytick"><text text-anchor="end" x="54" y="3.5" style="font-family: 'Lucida Grande', 'Open Sans', verdana, arial, sans-serif; font-size: 10px; fill: rgb(0, 0, 0); fill-opacity: 1; white-space: pre; opacity: 1;" transform="translate(0,131.89)">30</text></g><g class="ytick"><text text-anchor="end" x="54" y="3.5" style="font-family: 'Lucida Grande', 'Open Sans', verdana, arial, sans-serif; font-size: 10px; fill: rgb(0, 0, 0); fill-opacity: 1; white-space: pre; opacity: 1;" transform="translate(0,81.37)">35</text></g></g><g class="overaxes-above"/></g></g><g class="polarlayer"/><g class="smithlayer"/><g class="ternarylayer"/><g class="geolayer"/><g class="funnelarealayer"/><g class="pielayer"/><g class="iciclelayer"/><g class="treemaplayer"/><g class="sunburstlayer"/><g class="glimages"/><defs id="topdefs-e3479f"><g class="clips"/></defs><g class="layer-above"><g class="imagelayer"/><g class="shapelayer"/></g><g class="infolayer"><g class="g-gtitle"><text class="gtitle" x="550" y="25" text-anchor="middle" dy="0em" style="opacity: 1; font-family: 'Lucida Grande', 'Open Sans', verdana, arial, sans-serif; font-size: 20px; fill: rgb(42, 63, 95); fill-opacity: 1; white-space: pre;"><tspan class="line" dy="0em" x="550" y="25">Fastp: Sequence Quality</tspan><tspan class="line" dy="1.3em" x="550" y="25">​<tspan style="font-size:70%" dy="-0.6em">Read 2: Before filtering, 5 samples</tspan><tspan dy="0.42em">​</tspan></tspan></text></g><g class="g-xtitle"><text class="xtitle" x="572.5" y="472.3" text-anchor="middle" style="opacity: 0.3; font-family: 'Lucida Grande', 'Open Sans', verdana, arial, sans-serif; font-size: 14px; fill: rgb(0, 0, 0); fill-opacity: 1; white-space: pre;">Read Position</text></g><g class="g-ytitle"><text class="ytitle" transform="rotate(-90,26.865625,242.5)" x="26.865625" y="242.5" text-anchor="middle" style="opacity: 0.3; font-family: 'Lucida Grande', 'Open Sans', verdana, arial, sans-serif; font-size: 14px; fill: rgb(0, 0, 0); fill-opacity: 1; white-space: pre;">R2 Before filtering: Sequence Quality</text></g></g></svg>