<svg class="main-svg" xmlns="http://www.w3.org/2000/svg" xmlns:xlink="http://www.w3.org/1999/xlink" width="2200" height="1000" style="" viewBox="0 0 1100 500"><rect x="0" y="0" width="1100" height="500" style="fill: rgb(255, 255, 255); fill-opacity: 1;"/><defs id="defs-3954c5"><g class="clips"><clipPath id="clip3954c5xyplot" class="plotclip"><rect width="1014" height="385"/></clipPath><clipPath class="axesclip" id="clip3954c5x"><rect x="71" y="0" width="1014" height="500"/></clipPath><clipPath class="axesclip" id="clip3954c5y"><rect x="0" y="50" width="1100" height="385"/></clipPath><clipPath class="axesclip" id="clip3954c5xy"><rect x="71" y="50" width="1014" height="385"/></clipPath></g><g class="gradients"/><g class="patterns"/></defs><g class="bglayer"/><g class="layer-below"><g class="imagelayer"/><g class="shapelayer"/></g><g class="cartesianlayer"><g class="subplot xy"><g class="layer-subplot"><g class="shapelayer"/><g class="imagelayer"/></g><g class="minor-gridlayer"><g class="x"/><g class="y"/></g><g class="gridlayer"><g class="x"><path class="xgrid crisp" transform="translate(199.44,0)" d="M0,50v385" style="stroke: rgb(0, 0, 0); stroke-opacity: 0.05; stroke-width: 1px;"/><path class="xgrid crisp" transform="translate(334.64,0)" d="M0,50v385" style="stroke: rgb(0, 0, 0); stroke-opacity: 0.05; stroke-width: 1px;"/><path class="xgrid crisp" transform="translate(469.84,0)" d="M0,50v385" style="stroke: rgb(0, 0, 0); stroke-opacity: 0.05; stroke-width: 1px;"/><path class="xgrid crisp" transform="translate(605.04,0)" d="M0,50v385" style="stroke: rgb(0, 0, 0); stroke-opacity: 0.05; stroke-width: 1px;"/><path class="xgrid crisp" transform="translate(740.24,0)" d="M0,50v385" style="stroke: rgb(0, 0, 0); stroke-opacity: 0.05; stroke-width: 1px;"/><path class="xgrid crisp" transform="translate(875.44,0)" d="M0,50v385" style="stroke: rgb(0, 0, 0); stroke-opacity: 0.05; stroke-width: 1px;"/><path class="xgrid crisp" transform="translate(1010.64,0)" d="M0,50v385" style="stroke: rgb(0, 0, 0); stroke-opacity: 0.05; stroke-width: 1px;"/></g><g class="y"><path class="ygrid crisp" transform="translate(0,358)" d="M71,0h1014" style="stroke: rgb(0, 0, 0); stroke-opacity: 0.05; stroke-width: 1px;"/><path class="ygrid crisp" transform="translate(0,281)" d="M71,0h1014" style="stroke: rgb(0, 0, 0); stroke-opacity: 0.05; stroke-width: 1px;"/><path class="ygrid crisp" transform="translate(0,204)" d="M71,0h1014" style="stroke: rgb(0, 0, 0); stroke-opacity: 0.05; stroke-width: 1px;"/><path class="ygrid crisp" transform="translate(0,127)" d="M71,0h1014" style="stroke: rgb(0, 0, 0); stroke-opacity: 0.05; stroke-width: 1px;"/></g></g><g class="zerolinelayer"><path class="yzl zl crisp" transform="translate(0,435)" d="M71,0h1014" style="stroke: rgb(0, 0, 0); stroke-opacity: 0.05; stroke-width: 2px;"/></g><g class="layer-between"><g class="shapelayer"/><g class="imagelayer"/></g><path class="xlines-below"/><path class="ylines-below"/><g class="overlines-below"/><g class="xaxislayer-below"/><g class="yaxislayer-below"/><g class="overaxes-below"/><g class="overplot"><g class="xy" transform="translate(71,50)" clip-path="url(#clip3954c5xyplot)"><g class="scatterlayer mlayer"><g class="trace scatter trace04cf3c" style="stroke-miterlimit: 2; opacity: 1;"><g class="fills"/><g class="errorbars"/><g class="lines"><path class="js-line" d="M0,116.96L6.76,222.01L13.52,213.3L20.28,204.93L27.04,284.95L33.8,214.74L40.56,226.29L47.32,218.93L54.08,146.6L60.84,247.52L67.6,181.31L74.36,215.74L81.12,193.23L87.88,190.39L94.64,207.2L101.4,222.89L108.16,227.54L121.68,224.19L128.44,216.84L135.2,215.54L141.96,221.88L148.72,221.1L155.48,216.85L162.24,214.95L169,215.88L175.76,214.58L182.52,219.58L196.04,216.87L202.8,211.14L209.56,217.11L216.32,219.46L223.08,216.34L229.84,215.35L236.6,218.73L243.36,217.18L256.88,220.44L263.64,214.46L270.4,219.38L277.16,217.98L283.92,219.65L290.68,216.36L297.44,216.84L304.2,212.05L310.96,221.24L317.72,212.2L324.48,219.41L331.24,215.57L338,209.84L344.76,215.34L351.52,217.87L358.28,223.69L371.8,215.69L378.56,214.33L385.32,215.57L392.08,214.47L398.84,217.23L405.6,213.06L412.36,211.97L419.12,213.51L425.88,213.85L432.64,218.8L439.4,214.78L446.16,216.45L452.92,213.83L459.68,208.57L466.44,215.93L473.2,215.38L479.96,218.53L486.72,214.34L493.48,213.24L500.24,210.23L507,211.97L513.76,216.76L520.52,215.69L527.28,213.8L534.04,214.82L540.8,211.97L554.32,213L561.08,217.87L567.84,218.55L574.6,222.25L581.36,214.83L588.12,219.21L594.88,212.1L601.64,214.99L608.4,219.88L615.16,215.21L621.92,210.92L628.68,216.26L635.44,215.15L642.2,217.89L648.96,214.29L655.72,214.71L662.48,218.2L669.24,211.39L676,217.88L682.76,220.86L689.52,215.6L696.28,213.82L703.04,213.43L709.8,220.32L716.56,222.53L723.32,215.94L730.08,219.27L736.84,220.59L743.6,212.35L750.36,219.3L757.12,214.83L763.88,211.96L770.64,217.28L777.4,221.18L784.16,218.43L790.92,216.99L797.68,215.15L804.44,223.18L811.2,217.45L817.96,220.58L824.72,213.32L831.48,217.29L845,219.93L851.76,219.66L865.28,215.93L872.04,211.2L878.8,216.57L885.56,216.68L892.32,218.41L899.08,216.15L905.84,210.65L912.6,213.9L919.36,217.87L926.12,215.18L932.88,214.6L939.64,218.54L946.4,217.9L953.16,219.87L959.92,211.19L966.68,218.36L973.44,218.22L980.2,219.54L986.96,216.85L993.72,212.88L1000.48,222.95L1007.24,229.11L1014,278.62" style="vector-effect: none; fill: none; stroke: rgb(124, 181, 236); stroke-opacity: 1; stroke-width: 2px; opacity: 1;"/></g><g class="points"/><g class="text"/></g><g class="trace scatter trace658927" style="stroke-miterlimit: 2; opacity: 1;"><g class="fills"/><g class="errorbars"/><g class="lines"><path class="js-line" d="M0,130.76L6.76,233.5L13.52,230.69L20.28,213.56L27.04,293.55L33.8,224L40.56,226.35L47.32,226.88L54.08,150.16L60.84,260.06L67.6,195.82L74.36,236.48L81.12,205.69L87.88,202.31L94.64,224.28L101.4,236.45L108.16,241.12L114.92,238.49L121.68,238.27L128.44,229.23L135.2,224.79L141.96,228.73L148.72,230.81L155.48,233.86L162.24,230.44L169,234.7L175.76,228.96L182.52,234.27L189.28,232.02L202.8,230.17L209.56,227.66L216.32,229.61L223.08,233.05L229.84,237.41L236.6,227.75L243.36,232.86L250.12,230.05L256.88,233.21L263.64,233.89L270.4,226.55L277.16,231.83L283.92,228.93L290.68,230.5L297.44,228.03L304.2,229.3L310.96,233.46L317.72,225.81L324.48,230.9L331.24,230.62L338,226.65L344.76,233.73L351.52,227.22L358.28,233.13L365.04,232.18L371.8,226.65L378.56,228.48L385.32,225.47L392.08,230.73L398.84,228.24L405.6,226.91L412.36,230.3L425.88,227.43L432.64,229.33L439.4,230.94L446.16,231.28L452.92,230.26L459.68,227.69L466.44,226.77L473.2,228.56L479.96,232.89L486.72,225.69L493.48,225.9L500.24,230.59L507,227.06L513.76,231.05L520.52,226.13L527.28,233.14L534.04,224.17L540.8,230.51L547.56,226.43L554.32,228.74L561.08,230.11L567.84,228.98L574.6,230.83L581.36,225.96L588.12,228.54L594.88,228.19L601.64,227.82L608.4,225.67L615.16,224.36L621.92,229.94L628.68,232.56L635.44,229.51L642.2,227.16L648.96,230.87L662.48,223.27L669.24,227.02L676,224.19L682.76,231.19L696.28,228.18L703.04,235.64L709.8,224.63L716.56,227.76L730.08,228.77L736.84,228.65L743.6,224.29L750.36,223.99L757.12,226.38L763.88,232.2L770.64,230.85L777.4,232.45L784.16,231.31L790.92,227.24L804.44,227.58L811.2,227.39L817.96,223.58L824.72,227.36L831.48,220.1L838.24,226.84L845,230.9L851.76,226.25L858.52,230.71L865.28,223.01L872.04,228.99L878.8,227.55L885.56,228.91L892.32,231.09L899.08,219.28L905.84,232.55L912.6,218L919.36,226.46L926.12,225.35L932.88,226.47L939.64,226.01L946.4,222.47L953.16,233.76L959.92,224.98L966.68,231.9L973.44,230.4L980.2,231.16L986.96,226.85L993.72,223.6L1000.48,225.68L1007.24,241.84L1014,284.19" style="vector-effect: none; fill: none; stroke: rgb(67, 67, 72); stroke-opacity: 1; stroke-width: 2px; opacity: 1;"/></g><g class="points"/><g class="text"/></g><g class="trace scatter trace25b544" style="stroke-miterlimit: 2; opacity: 1;"><g class="fills"/><g class="errorbars"/><g class="lines"><path class="js-line" d="M0,82.2L6.76,148.08L13.52,153.99L20.28,150.24L27.04,205.66L33.8,151L40.56,140.5L47.32,147.17L54.08,87.83L60.84,166.88L67.6,119.66L74.36,148.02L81.12,119.12L87.88,111.53L94.64,125.94L101.4,133.8L108.16,138.57L114.92,140.33L121.68,136.3L128.44,133.51L135.2,135.73L141.96,133.81L148.72,134.2L155.48,137.4L162.24,132.8L169,134.41L175.76,133.45L182.52,130.24L189.28,134.37L196.04,132.56L202.8,134.32L209.56,133.23L216.32,129.76L223.08,131.02L229.84,135.54L243.36,131.89L250.12,132.17L256.88,133.38L263.64,132.55L270.4,134.13L277.16,131.7L283.92,132.17L290.68,130.89L297.44,133.15L304.2,134.01L310.96,134.87L317.72,132.04L324.48,130.16L331.24,132.07L338,133.98L344.76,130.68L351.52,137.61L358.28,133.08L365.04,131.37L371.8,131.12L385.32,134.98L392.08,133.61L398.84,134.84L405.6,132.81L412.36,135.21L419.12,134.78L425.88,133.21L432.64,133.18L439.4,134.17L446.16,131.48L452.92,134.47L459.68,134.31L466.44,133.03L473.2,133.85L479.96,135.18L486.72,132.34L493.48,132.51L500.24,134.82L507,135.21L513.76,134.4L527.28,130.83L534.04,133.07L540.8,131.04L547.56,134.52L554.32,132.5L561.08,134.94L567.84,131.73L574.6,134.3L581.36,131.36L588.12,131.54L594.88,131.56L601.64,136.66L608.4,128.94L615.16,131.39L628.68,134.54L635.44,134.23L642.2,136.19L648.96,130.65L662.48,137.43L669.24,134.91L676,134.67L682.76,129.99L689.52,131.55L696.28,132.34L703.04,134.82L709.8,134.99L716.56,134.58L723.32,129.09L730.08,130.05L736.84,134.43L750.36,131.56L757.12,132.26L763.88,128.59L770.64,130.82L777.4,134.42L784.16,134.57L790.92,134.28L797.68,130.79L804.44,132.49L811.2,132.18L817.96,134.25L824.72,131.78L831.48,129.22L838.24,134.58L845,136.88L851.76,131.17L858.52,130.82L865.28,132.21L872.04,131.33L878.8,134.42L885.56,134.75L892.32,129.68L899.08,130.32L905.84,129.82L912.6,133.22L919.36,133.48L926.12,134.21L932.88,129.29L939.64,132.4L946.4,131.93L953.16,129.32L959.92,133.45L966.68,130.35L973.44,129.49L980.2,133.61L986.96,130.89L993.72,134.06L1000.48,134.13L1007.24,126.78L1014,179.9" style="vector-effect: none; fill: none; stroke: rgb(144, 237, 125); stroke-opacity: 1; stroke-width: 2px; opacity: 1;"/></g><g class="points"/><g class="text"/></g><g class="trace scatter tracee34d1b" style="stroke-miterlimit: 2; opacity: 1;"><g class="fills"/><g class="errorbars"/><g class="lines"><path class="js-line" d="M0,159.81L6.76,232.84L13.52,238.61L20.28,252.16L27.04,302.66L33.8,252.16L40.56,234.19L47.32,230.12L54.08,161.12L60.84,260.35L67.6,210.34L74.36,237.23L81.12,214.89L87.88,213.27L94.64,229.67L101.4,239.47L108.16,242.66L114.92,244.14L121.68,240.33L135.2,236.24L141.96,236.3L148.72,236.83L155.48,239.3L169,237.42L175.76,239.46L182.52,238.36L189.28,238.08L196.04,238.42L202.8,236.74L209.56,236.28L216.32,237.61L223.08,236.68L229.84,237.41L236.6,238.63L243.36,238.28L256.88,238.22L263.64,237.17L270.4,236.57L277.16,237.04L290.68,235.87L297.44,238.23L304.2,237.07L310.96,237.51L317.72,239L324.48,237.43L331.24,238.62L338,238.47L351.52,236.43L358.28,237.24L371.8,236.21L378.56,237.45L385.32,236.87L392.08,237.93L398.84,237.85L405.6,236.99L412.36,236.81L419.12,237.96L432.64,236.09L439.4,238.25L446.16,236.96L452.92,236.85L459.68,237.95L466.44,237.08L473.2,237L479.96,239L486.72,237.47L493.48,237.04L500.24,238.3L507,235.92L513.76,236.92L520.52,237.15L534.04,237.14L540.8,238L547.56,237.1L554.32,237.49L561.08,238.56L567.84,237.76L574.6,236.81L581.36,238.37L588.12,236.37L594.88,237.26L601.64,237.33L608.4,236.63L615.16,236.91L621.92,238.54L628.68,237.3L635.44,237.45L642.2,237.96L648.96,237.56L655.72,236.93L662.48,237.52L669.24,236.39L676,237.09L682.76,237.98L689.52,237.84L696.28,237.76L703.04,238.54L723.32,237.96L730.08,236.75L784.16,238.32L790.92,237.56L811.2,237.52L817.96,236.1L824.72,237.95L831.48,237.41L838.24,237.05L845,238.39L858.52,237.53L865.28,238.08L878.8,237.18L885.56,237.2L892.32,236.59L899.08,237.67L905.84,238.67L912.6,237.43L919.36,236.94L926.12,238.19L932.88,237.06L939.64,236.75L946.4,238.02L953.16,236.82L959.92,236.84L966.68,238.28L980.2,237.39L986.96,237.97L993.72,237.88L1000.48,236.77" style="vector-effect: none; fill: none; stroke: rgb(247, 163, 92); stroke-opacity: 1; stroke-width: 2px; opacity: 1;"/></g><g class="points"/><g class="text"/></g><g class="trace scatter trace7ee382" style="stroke-miterlimit: 2; opacity: 1;"><g class="fills"/><g class="errorbars"/><g class="lines"><path class="js-line" d="M0,152.14L6.76,237.43L13.52,246.44L20.28,244.12L27.04,284.05L33.8,246.42L40.56,241.76L47.32,233.83L54.08,166.01L60.84,257.96L67.6,218.01L74.36,241.1L81.12,217.13L87.88,217.41L94.64,230.94L101.4,238.14L108.16,239.62L114.92,241.97L121.68,240.02L128.44,237.34L135.2,237.03L141.96,236.38L148.72,237.03L155.48,238.28L162.24,237.47L169,237.78L175.76,239.42L182.52,237.08L189.28,237.85L196.04,238.75L202.8,237.28L209.56,235.9L216.32,239.32L223.08,237.68L229.84,237.65L236.6,239.03L243.36,236.58L263.64,238.57L270.4,237.15L277.16,239.06L283.92,237.46L290.68,237.13L297.44,240.24L310.96,236.61L317.72,238.93L324.48,237.02L331.24,239.08L338,239.41L344.76,237.79L351.52,236.31L358.28,240.11L365.04,237.45L371.8,237.7L378.56,239.23L385.32,237.2L392.08,237.94L398.84,239.91L412.36,238.36L419.12,239.2L432.64,236.93L439.4,239.17L446.16,238.6L452.92,237.04L459.68,238.88L466.44,238.67L473.2,237.36L479.96,239.97L486.72,238.55L493.48,238.09L500.24,239.2L507,236.85L513.76,236.28L520.52,238.61L527.28,236.89L534.04,237.33L540.8,239.01L547.56,238.14L554.32,237.56L561.08,239.66L567.84,238.01L574.6,237.72L581.36,238.92L588.12,238.4L594.88,237.32L601.64,238.01L608.4,237.35L615.16,238.8L621.92,239L628.68,237.57L635.44,236.89L642.2,238.99L648.96,239.38L655.72,238.05L662.48,239.34L669.24,238.29L676,237.33L682.76,239.06L689.52,238.83L696.28,237.7L703.04,238.93L709.8,238.18L716.56,238.46L723.32,239.93L730.08,239.41L736.84,237.94L743.6,238.85L750.36,237.97L757.12,236.42L763.88,239.87L770.64,238.74L777.4,236.56L784.16,239.58L790.92,237.68L797.68,237.35L804.44,239.14L811.2,237.74L817.96,238.66L824.72,239.82L831.48,236.75L838.24,236.54L845,239.3L851.76,238.68L858.52,238.87L865.28,239.11L872.04,237.32L885.56,239.18L892.32,238.04L899.08,237.42L905.84,238.88L919.36,238.3L926.12,240.24L939.64,237.87L946.4,239.52L953.16,237.99L959.92,237.24L966.68,239.48L973.44,237.55L980.2,238.4L986.96,240.12L1000.48,236.52" style="vector-effect: none; fill: none; stroke: rgb(128, 133, 233); stroke-opacity: 1; stroke-width: 2px; opacity: 1;"/></g><g class="points"/><g class="text"/></g></g></g></g><path class="xlines-above crisp" d="M0,0" style="fill: none;"/><path class="ylines-above crisp" d="M0,0" style="fill: none;"/><g class="overlines-above"/><g class="xaxislayer-above"><g class="xtick"><text text-anchor="middle" x="0" y="451" transform="translate(199.44,0)" style="font-family: 'Lucida Grande', 'Open Sans', verdana, arial, sans-serif; font-size: 10px; fill: rgb(0, 0, 0); fill-opacity: 1; white-space: pre; opacity: 1;">20</text></g><g class="xtick"><text text-anchor="middle" x="0" y="451" style="font-family: 'Lucida Grande', 'Open Sans', verdana, arial, sans-serif; font-size: 10px; fill: rgb(0, 0, 0); fill-opacity: 1; white-space: pre; opacity: 1;" transform="translate(334.64,0)">40</text></g><g class="xtick"><text text-anchor="middle" x="0" y="451" style="font-family: 'Lucida Grande', 'Open Sans', verdana, arial, sans-serif; font-size: 10px; fill: rgb(0, 0, 0); fill-opacity: 1; white-space: pre; opacity: 1;" transform="translate(469.84,0)">60</text></g><g class="xtick"><text text-anchor="middle" x="0" y="451" style="font-family: 'Lucida Grande', 'Open Sans', verdana, arial, sans-serif; font-size: 10px; fill: rgb(0, 0, 0); fill-opacity: 1; white-space: pre; opacity: 1;" transform="translate(605.04,0)">80</text></g><g class="xtick"><text text-anchor="middle" x="0" y="451" style="font-family: 'Lucida Grande', 'Open Sans', verdana, arial, sans-serif; font-size: 10px; fill: rgb(0, 0, 0); fill-opacity: 1; white-space: pre; opacity: 1;" transform="translate(740.24,0)">100</text></g><g class="xtick"><text text-anchor="middle" x="0" y="451" style="font-family: 'Lucida Grande', 'Open Sans', verdana, arial, sans-serif; font-size: 10px; fill: rgb(0, 0, 0); fill-opacity: 1; white-space: pre; opacity: 1;" transform="translate(875.44,0)">120</text></g><g class="xtick"><text text-anchor="middle" x="0" y="451" style="font-family: 'Lucida Grande', 'Open Sans', verdana, arial, sans-serif; font-size: 10px; fill: rgb(0, 0, 0); fill-opacity: 1; white-space: pre; opacity: 1;" transform="translate(1010.64,0)">140</text></g></g><g class="yaxislayer-above"><g class="ytick"><text text-anchor="end" x="65" y="3.5" transform="translate(0,435)" style="font-family: 'Lucida Grande', 'Open Sans', verdana, arial, sans-serif; font-size: 10px; fill: rgb(0, 0, 0); fill-opacity: 1; white-space: pre; opacity: 1;">0%</text></g><g class="ytick"><text text-anchor="end" x="65" y="3.5" style="font-family: 'Lucida Grande', 'Open Sans', verdana, arial, sans-serif; font-size: 10px; fill: rgb(0, 0, 0); fill-opacity: 1; white-space: pre; opacity: 1;" transform="translate(0,358)">20%</text></g><g class="ytick"><text text-anchor="end" x="65" y="3.5" style="font-family: 'Lucida Grande', 'Open Sans', verdana, arial, sans-serif; font-size: 10px; fill: rgb(0, 0, 0); fill-opacity: 1; white-space: pre; opacity: 1;" transform="translate(0,281)">40%</text></g><g class="ytick"><text text-anchor="end" x="65" y="3.5" style="font-family: 'Lucida Grande', 'Open Sans', verdana, arial, sans-serif; font-size: 10px; fill: rgb(0, 0, 0); fill-opacity: 1; white-space: pre; opacity: 1;" transform="translate(0,204)">60%</text></g><g class="ytick"><text text-anchor="end" x="65" y="3.5" style="font-family: 'Lucida Grande', 'Open Sans', verdana, arial, sans-serif; font-size: 10px; fill: rgb(0, 0, 0); fill-opacity: 1; white-space: pre; opacity: 1;" transform="translate(0,127)">80%</text></g><g class="ytick"><text text-anchor="end" x="65" y="3.5" style="font-family: 'Lucida Grande', 'Open Sans', verdana, arial, sans-serif; font-size: 10px; fill: rgb(0, 0, 0); fill-opacity: 1; white-space: pre; opacity: 1;" transform="translate(0,50)">100%</text></g></g><g class="overaxes-above"/></g></g><g class="polarlayer"/><g class="smithlayer"/><g class="ternarylayer"/><g class="geolayer"/><g class="funnelarealayer"/><g class="pielayer"/><g class="iciclelayer"/><g class="treemaplayer"/><g class="sunburstlayer"/><g class="glimages"/><defs id="topdefs-3954c5"><g class="clips"/></defs><g class="layer-above"><g class="imagelayer"/><g class="shapelayer"/></g><g class="infolayer"><g class="g-gtitle"><text class="gtitle" x="550" y="25" text-anchor="middle" dy="0em" style="opacity: 1; font-family: 'Lucida Grande', 'Open Sans', verdana, arial, sans-serif; font-size: 20px; fill: rgb(42, 63, 95); fill-opacity: 1; white-space: pre;"><tspan class="line" dy="0em" x="550" y="25">Fastp: Read GC Content</tspan><tspan class="line" dy="1.3em" x="550" y="25">​<tspan style="font-size:70%" dy="-0.6em">Read 1: After filtering, 5 samples</tspan><tspan dy="0.42em">​</tspan></tspan></text></g><g class="g-xtitle"><text class="xtitle" x="578" y="472.3" text-anchor="middle" style="opacity: 0.3; font-family: 'Lucida Grande', 'Open Sans', verdana, arial, sans-serif; font-size: 14px; fill: rgb(0, 0, 0); fill-opacity: 1; white-space: pre;">Read Position</text></g><g class="g-ytitle"><text class="ytitle" transform="rotate(-90,22.00625,242.5)" x="22.00625" y="242.5" text-anchor="middle" style="opacity: 0.3; font-family: 'Lucida Grande', 'Open Sans', verdana, arial, sans-serif; font-size: 14px; fill: rgb(0, 0, 0); fill-opacity: 1; white-space: pre;">R1 After filtering: Base Content Percent</text></g></g></svg>