<svg class="main-svg" xmlns="http://www.w3.org/2000/svg" xmlns:xlink="http://www.w3.org/1999/xlink" width="2200" height="546" style="" viewBox="0 0 1100 273"><rect x="0" y="0" width="1100" height="273" style="fill: rgb(255, 255, 255); fill-opacity: 1;"/><defs id="defs-df58aa"><g class="clips"><clipPath id="clipdf58aaxyplot" class="plotclip"><rect width="1005" height="42.230769230769226"/></clipPath><clipPath id="clipdf58aax2y2plot" class="plotclip"><rect width="1005" height="42.230769230769226"/></clipPath><clipPath id="clipdf58aax3y3plot" class="plotclip"><rect width="1005" height="42.230769230769226"/></clipPath><clipPath class="axesclip" id="clipdf58aax"><rect x="80" y="0" width="1005" height="273"/></clipPath><clipPath class="axesclip" id="clipdf58aay"><rect x="0" y="50.00000000000002" width="1100" height="42.230769230769226"/></clipPath><clipPath class="axesclip" id="clipdf58aaxy"><rect x="80" y="50.00000000000002" width="1005" height="42.230769230769226"/></clipPath><clipPath class="axesclip" id="clipdf58aay2"><rect x="0" y="120.3846153846154" width="1100" height="42.230769230769226"/></clipPath><clipPath class="axesclip" id="clipdf58aaxy2"><rect x="80" y="120.3846153846154" width="1005" height="42.230769230769226"/></clipPath><clipPath class="axesclip" id="clipdf58aay3"><rect x="0" y="190.76923076923077" width="1100" height="42.230769230769226"/></clipPath><clipPath class="axesclip" id="clipdf58aaxy3"><rect x="80" y="190.76923076923077" width="1005" height="42.230769230769226"/></clipPath><clipPath class="axesclip" id="clipdf58aax2"><rect x="80" y="0" width="1005" height="273"/></clipPath><clipPath class="axesclip" id="clipdf58aax2y"><rect x="80" y="50.00000000000002" width="1005" height="42.230769230769226"/></clipPath><clipPath class="axesclip" id="clipdf58aax2y2"><rect x="80" y="120.3846153846154" width="1005" height="42.230769230769226"/></clipPath><clipPath class="axesclip" id="clipdf58aax2y3"><rect x="80" y="190.76923076923077" width="1005" height="42.230769230769226"/></clipPath><clipPath class="axesclip" id="clipdf58aax3"><rect x="80" y="0" width="1005" height="273"/></clipPath><clipPath class="axesclip" id="clipdf58aax3y"><rect x="80" y="50.00000000000002" width="1005" height="42.230769230769226"/></clipPath><clipPath class="axesclip" id="clipdf58aax3y2"><rect x="80" y="120.3846153846154" width="1005" height="42.230769230769226"/></clipPath><clipPath class="axesclip" id="clipdf58aax3y3"><rect x="80" y="190.76923076923077" width="1005" height="42.230769230769226"/></clipPath></g><g class="gradients"/><g class="patterns"/></defs><g class="bglayer"/><g class="layer-below"><g class="imagelayer"/><g class="shapelayer"/></g><g class="cartesianlayer"><g class="subplot xy"><g class="layer-subplot"><g class="shapelayer"/><g class="imagelayer"/></g><g class="minor-gridlayer"><g class="x"/><g class="y"/></g><g class="gridlayer"><g class="x"><path class="xgrid crisp" transform="translate(333.73,0)" d="M0,50.00000000000002v42.230769230769226" style="stroke: rgb(0, 0, 0); stroke-opacity: 0.1; stroke-width: 1px;"/><path class="xgrid crisp" transform="translate(582.49,0)" d="M0,50.00000000000002v42.230769230769226" style="stroke: rgb(0, 0, 0); stroke-opacity: 0.1; stroke-width: 1px;"/><path class="xgrid crisp" transform="translate(831.24,0)" d="M0,50.00000000000002v42.230769230769226" style="stroke: rgb(0, 0, 0); stroke-opacity: 0.1; stroke-width: 1px;"/><path class="xgrid crisp" transform="translate(1080,0)" d="M0,50.00000000000002v42.230769230769226" style="stroke: rgb(0, 0, 0); stroke-opacity: 0.1; stroke-width: 1px;"/></g><g class="y"><path class="ygrid crisp" transform="translate(0,71.12000000000002)" d="M80,0h1005" style="stroke: rgb(0, 0, 0); stroke-opacity: 0.1; stroke-width: 1px;"/></g></g><g class="zerolinelayer"><path class="xzl zl crisp" transform="translate(84.98,0)" d="M0,50.00000000000002v42.230769230769226" style="stroke: rgb(0, 0, 0); stroke-opacity: 0.1; stroke-width: 2px;"/></g><g class="layer-between"><g class="shapelayer"/><g class="imagelayer"/></g><path class="xlines-below"/><path class="ylines-below"/><g class="overlines-below"/><g class="xaxislayer-below"/><g class="yaxislayer-below"/><g class="overaxes-below"/><g class="overplot"><g class="xy" transform="translate(80,50.00000000000002)" clip-path="url(#clipdf58aaxyplot)"><g class="violinlayer mlayer"><g class="trace violins" style="opacity: 0.5;"><path class="violin" d="M1000,6.33L1000,35.9Z" style="vector-effect: none; stroke-width: 2px; stroke: rgb(181, 181, 181); stroke-opacity: 1; fill: rgb(181, 181, 181); fill-opacity: 1;"/><path class="box" d="M1000,24.81V17.42M1000,24.81V17.42H1000V24.81ZM1000,21.12H1000M1000,21.12H1000" style="vector-effect: non-scaling-stroke; stroke-width: 2px; stroke: rgb(181, 181, 181); stroke-opacity: 1; fill: rgb(181, 181, 181); fill-opacity: 1;"/><path class="mean" d="M1000,24.81V17.42" style="fill: none; vector-effect: non-scaling-stroke; stroke-width: 2px; stroke-dasharray: 4px, 2px; stroke: rgb(181, 181, 181); stroke-opacity: 1;"/></g></g><g class="scatterlayer mlayer"><g class="trace scatter trace923733" style="stroke-miterlimit: 2; opacity: 1;"><g class="fills"/><g class="errorbars"/><g class="lines"/><g class="points"><path class="point" transform="translate(1000,21.12)" d="M2,0A2,2 0 1,1 0,-2A2,2 0 0,1 2,0Z" style="opacity: 1; stroke-width: 0px; fill: rgb(11, 121, 230); fill-opacity: 1;"/></g><g class="text"/></g><g class="trace scatter tracea4972a" style="stroke-miterlimit: 2; opacity: 1;"><g class="fills"/><g class="errorbars"/><g class="lines"/><g class="points"><path class="point" transform="translate(1000,21.12)" d="M2,0A2,2 0 1,1 0,-2A2,2 0 0,1 2,0Z" style="opacity: 1; stroke-width: 0px; fill: rgb(11, 121, 230); fill-opacity: 1;"/></g><g class="text"/></g><g class="trace scatter tracec13d81" style="stroke-miterlimit: 2; opacity: 1;"><g class="fills"/><g class="errorbars"/><g class="lines"/><g class="points"><path class="point" transform="translate(1000,21.12)" d="M2,0A2,2 0 1,1 0,-2A2,2 0 0,1 2,0Z" style="opacity: 1; stroke-width: 0px; fill: rgb(11, 121, 230); fill-opacity: 1;"/></g><g class="text"/></g><g class="trace scatter tracea718c0" style="stroke-miterlimit: 2; opacity: 1;"><g class="fills"/><g class="errorbars"/><g class="lines"/><g class="points"><path class="point" transform="translate(1000,21.12)" d="M2,0A2,2 0 1,1 0,-2A2,2 0 0,1 2,0Z" style="opacity: 1; stroke-width: 0px; fill: rgb(11, 121, 230); fill-opacity: 1;"/></g><g class="text"/></g><g class="trace scatter trace7ca761" style="stroke-miterlimit: 2; opacity: 1;"><g class="fills"/><g class="errorbars"/><g class="lines"/><g class="points"><path class="point" transform="translate(1000,21.12)" d="M2,0A2,2 0 1,1 0,-2A2,2 0 0,1 2,0Z" style="opacity: 1; stroke-width: 0px; fill: rgb(11, 121, 230); fill-opacity: 1;"/></g><g class="text"/></g><g class="trace scatter trace512b9c" style="stroke-miterlimit: 2; opacity: 1;"><g class="fills"/><g class="errorbars"/><g class="lines"/><g class="points"><path class="point" transform="translate(1000,21.12)" d="M2,0A2,2 0 1,1 0,-2A2,2 0 0,1 2,0Z" style="opacity: 1; stroke-width: 0px; fill: rgb(11, 121, 230); fill-opacity: 1;"/></g><g class="text"/></g><g class="trace scatter trace425d1f" style="stroke-miterlimit: 2; opacity: 1;"><g class="fills"/><g class="errorbars"/><g class="lines"/><g class="points"><path class="point" transform="translate(1000,21.12)" d="M2,0A2,2 0 1,1 0,-2A2,2 0 0,1 2,0Z" style="opacity: 1; stroke-width: 0px; fill: rgb(11, 121, 230); fill-opacity: 1;"/></g><g class="text"/></g><g class="trace scatter traceb28f95" style="stroke-miterlimit: 2; opacity: 1;"><g class="fills"/><g class="errorbars"/><g class="lines"/><g class="points"><path class="point" transform="translate(1000,21.12)" d="M2,0A2,2 0 1,1 0,-2A2,2 0 0,1 2,0Z" style="opacity: 1; stroke-width: 0px; fill: rgb(11, 121, 230); fill-opacity: 1;"/></g><g class="text"/></g><g class="trace scatter trace925648" style="stroke-miterlimit: 2; opacity: 1;"><g class="fills"/><g class="errorbars"/><g class="lines"/><g class="points"><path class="point" transform="translate(1000,21.12)" d="M2,0A2,2 0 1,1 0,-2A2,2 0 0,1 2,0Z" style="opacity: 1; stroke-width: 0px; fill: rgb(11, 121, 230); fill-opacity: 1;"/></g><g class="text"/></g><g class="trace scatter traceebd414" style="stroke-miterlimit: 2; opacity: 1;"><g class="fills"/><g class="errorbars"/><g class="lines"/><g class="points"><path class="point" transform="translate(1000,21.12)" d="M2,0A2,2 0 1,1 0,-2A2,2 0 0,1 2,0Z" style="opacity: 1; stroke-width: 0px; fill: rgb(11, 121, 230); fill-opacity: 1;"/></g><g class="text"/></g><g class="trace scatter tracec8676c" style="stroke-miterlimit: 2; opacity: 1;"><g class="fills"/><g class="errorbars"/><g class="lines"/><g class="points"><path class="point" transform="translate(1000,21.12)" d="M2,0A2,2 0 1,1 0,-2A2,2 0 0,1 2,0Z" style="opacity: 1; stroke-width: 0px; fill: rgb(11, 121, 230); fill-opacity: 1;"/></g><g class="text"/></g><g class="trace scatter trace949e6a" style="stroke-miterlimit: 2; opacity: 1;"><g class="fills"/><g class="errorbars"/><g class="lines"/><g class="points"><path class="point" transform="translate(1000,21.12)" d="M2,0A2,2 0 1,1 0,-2A2,2 0 0,1 2,0Z" style="opacity: 1; stroke-width: 0px; fill: rgb(11, 121, 230); fill-opacity: 1;"/></g><g class="text"/></g><g class="trace scatter traceef717c" style="stroke-miterlimit: 2; opacity: 1;"><g class="fills"/><g class="errorbars"/><g class="lines"/><g class="points"><path class="point" transform="translate(1000,21.12)" d="M2,0A2,2 0 1,1 0,-2A2,2 0 0,1 2,0Z" style="opacity: 1; stroke-width: 0px; fill: rgb(11, 121, 230); fill-opacity: 1;"/></g><g class="text"/></g><g class="trace scatter tracefbd225" style="stroke-miterlimit: 2; opacity: 1;"><g class="fills"/><g class="errorbars"/><g class="lines"/><g class="points"><path class="point" transform="translate(1000,21.12)" d="M2,0A2,2 0 1,1 0,-2A2,2 0 0,1 2,0Z" style="opacity: 1; stroke-width: 0px; fill: rgb(11, 121, 230); fill-opacity: 1;"/></g><g class="text"/></g><g class="trace scatter tracee4342f" style="stroke-miterlimit: 2; opacity: 1;"><g class="fills"/><g class="errorbars"/><g class="lines"/><g class="points"><path class="point" transform="translate(1000,21.12)" d="M2,0A2,2 0 1,1 0,-2A2,2 0 0,1 2,0Z" style="opacity: 1; stroke-width: 0px; fill: rgb(11, 121, 230); fill-opacity: 1;"/></g><g class="text"/></g><g class="trace scatter traceddc71a" style="stroke-miterlimit: 2; opacity: 1;"><g class="fills"/><g class="errorbars"/><g class="lines"/><g class="points"><path class="point" transform="translate(1000,21.12)" d="M2,0A2,2 0 1,1 0,-2A2,2 0 0,1 2,0Z" style="opacity: 1; stroke-width: 0px; fill: rgb(11, 121, 230); fill-opacity: 1;"/></g><g class="text"/></g><g class="trace scatter trace3d8267" style="stroke-miterlimit: 2; opacity: 1;"><g class="fills"/><g class="errorbars"/><g class="lines"/><g class="points"><path class="point" transform="translate(1000,21.12)" d="M2,0A2,2 0 1,1 0,-2A2,2 0 0,1 2,0Z" style="opacity: 1; stroke-width: 0px; fill: rgb(11, 121, 230); fill-opacity: 1;"/></g><g class="text"/></g><g class="trace scatter trace75a9ef" style="stroke-miterlimit: 2; opacity: 1;"><g class="fills"/><g class="errorbars"/><g class="lines"/><g class="points"><path class="point" transform="translate(1000,21.12)" d="M2,0A2,2 0 1,1 0,-2A2,2 0 0,1 2,0Z" style="opacity: 1; stroke-width: 0px; fill: rgb(11, 121, 230); fill-opacity: 1;"/></g><g class="text"/></g><g class="trace scatter tracec90005" style="stroke-miterlimit: 2; opacity: 1;"><g class="fills"/><g class="errorbars"/><g class="lines"/><g class="points"><path class="point" transform="translate(1000,21.12)" d="M2,0A2,2 0 1,1 0,-2A2,2 0 0,1 2,0Z" style="opacity: 1; stroke-width: 0px; fill: rgb(11, 121, 230); fill-opacity: 1;"/></g><g class="text"/></g><g class="trace scatter trace4344cd" style="stroke-miterlimit: 2; opacity: 1;"><g class="fills"/><g class="errorbars"/><g class="lines"/><g class="points"><path class="point" transform="translate(1000,21.12)" d="M2,0A2,2 0 1,1 0,-2A2,2 0 0,1 2,0Z" style="opacity: 1; stroke-width: 0px; fill: rgb(11, 121, 230); fill-opacity: 1;"/></g><g class="text"/></g></g></g></g><path class="xlines-above crisp" d="M0,0" style="fill: none;"/><path class="ylines-above crisp" d="M0,0" style="fill: none;"/><g class="overlines-above"/><g class="xaxislayer-above"><g class="xtick"><text text-anchor="middle" x="0" y="102.23076923076925" transform="translate(84.98,0)" style="font-family: 'Lucida Grande', 'Open Sans', verdana, arial, sans-serif; font-size: 9px; fill: rgb(0, 0, 0); fill-opacity: 0.5; white-space: pre; opacity: 1;">0</text></g><g class="xtick"><text text-anchor="middle" x="0" y="102.23076923076925" style="font-family: 'Lucida Grande', 'Open Sans', verdana, arial, sans-serif; font-size: 9px; fill: rgb(0, 0, 0); fill-opacity: 0.5; white-space: pre; opacity: 1;" transform="translate(333.73,0)">0.5</text></g><g class="xtick"><text text-anchor="middle" x="0" y="102.23076923076925" style="font-family: 'Lucida Grande', 'Open Sans', verdana, arial, sans-serif; font-size: 9px; fill: rgb(0, 0, 0); fill-opacity: 0.5; white-space: pre; opacity: 1;" transform="translate(582.49,0)">1</text></g><g class="xtick"><text text-anchor="middle" x="0" y="102.23076923076925" style="font-family: 'Lucida Grande', 'Open Sans', verdana, arial, sans-serif; font-size: 9px; fill: rgb(0, 0, 0); fill-opacity: 0.5; white-space: pre; opacity: 1;" transform="translate(831.24,0)">1.5</text></g><g class="xtick"><text text-anchor="middle" x="0" y="102.23076923076925" style="font-family: 'Lucida Grande', 'Open Sans', verdana, arial, sans-serif; font-size: 9px; fill: rgb(0, 0, 0); fill-opacity: 0.5; white-space: pre; opacity: 1;" transform="translate(1080,0)">2</text></g></g><g class="yaxislayer-above"><g class="ytick"><text text-anchor="end" x="79" y="3.15" transform="translate(0,71.12000000000002)" style="font-family: 'Lucida Grande', 'Open Sans', verdana, arial, sans-serif; font-size: 9px; fill: rgb(0, 0, 0); fill-opacity: 0.5; white-space: pre; opacity: 1;">Reports  </text></g></g><g class="overaxes-above"/></g><g class="subplot x2y2"><g class="layer-subplot"><g class="shapelayer"/><g class="imagelayer"/></g><g class="minor-gridlayer"><g class="x2"/><g class="y2"/></g><g class="gridlayer"><g class="x2"><path class="x2grid crisp" transform="translate(187.34,0)" d="M0,120.3846153846154v42.230769230769226" style="stroke: rgb(0, 0, 0); stroke-opacity: 0.1; stroke-width: 1px;"/><path class="x2grid crisp" transform="translate(289.71000000000004,0)" d="M0,120.3846153846154v42.230769230769226" style="stroke: rgb(0, 0, 0); stroke-opacity: 0.1; stroke-width: 1px;"/><path class="x2grid crisp" transform="translate(392.08,0)" d="M0,120.3846153846154v42.230769230769226" style="stroke: rgb(0, 0, 0); stroke-opacity: 0.1; stroke-width: 1px;"/><path class="x2grid crisp" transform="translate(494.45,0)" d="M0,120.3846153846154v42.230769230769226" style="stroke: rgb(0, 0, 0); stroke-opacity: 0.1; stroke-width: 1px;"/><path class="x2grid crisp" transform="translate(596.82,0)" d="M0,120.3846153846154v42.230769230769226" style="stroke: rgb(0, 0, 0); stroke-opacity: 0.1; stroke-width: 1px;"/><path class="x2grid crisp" transform="translate(699.19,0)" d="M0,120.3846153846154v42.230769230769226" style="stroke: rgb(0, 0, 0); stroke-opacity: 0.1; stroke-width: 1px;"/><path class="x2grid crisp" transform="translate(801.56,0)" d="M0,120.3846153846154v42.230769230769226" style="stroke: rgb(0, 0, 0); stroke-opacity: 0.1; stroke-width: 1px;"/><path class="x2grid crisp" transform="translate(903.93,0)" d="M0,120.3846153846154v42.230769230769226" style="stroke: rgb(0, 0, 0); stroke-opacity: 0.1; stroke-width: 1px;"/><path class="x2grid crisp" transform="translate(1006.29,0)" d="M0,120.3846153846154v42.230769230769226" style="stroke: rgb(0, 0, 0); stroke-opacity: 0.1; stroke-width: 1px;"/></g><g class="y2"><path class="y2grid crisp" transform="translate(0,141.5046153846154)" d="M80,0h1005" style="stroke: rgb(0, 0, 0); stroke-opacity: 0.1; stroke-width: 1px;"/></g></g><g class="zerolinelayer"><path class="x2zl zl crisp" transform="translate(84.98,0)" d="M0,120.3846153846154v42.230769230769226" style="stroke: rgb(0, 0, 0); stroke-opacity: 0.1; stroke-width: 2px;"/></g><g class="layer-between"><g class="shapelayer"/><g class="imagelayer"/></g><path class="xlines-below"/><path class="ylines-below"/><g class="overlines-below"/><g class="xaxislayer-below"/><g class="yaxislayer-below"/><g class="overaxes-below"/><g class="overplot"><g class="x2y2" transform="translate(80,120.3846153846154)" clip-path="url(#clipdf58aax2y2plot)"><g class="violinlayer mlayer"><g class="trace violins" style="opacity: 0.5;"><path class="violin" d="M-64.19,19.93Q-44.46,19.29 -34.59,18.81C-24.72,18.33 -14.85,17.75 -4.98,17.07C4.89,16.39 14.76,15.57 24.62,14.72C34.49,13.87 44.36,12.88 54.23,11.98C64.1,11.08 73.96,10.09 83.83,9.31C93.69,8.53 103.57,7.78 113.44,7.28C123.3,6.78 133.17,6.44 143.04,6.33C152.91,6.22 162.78,6.36 172.65,6.63C182.52,6.9 192.38,7.42 202.25,7.95C212.12,8.48 221.99,9.18 231.86,9.81C241.73,10.44 251.59,11.14 261.46,11.74C271.33,12.34 281.2,12.92 291.07,13.42C300.94,13.92 310.8,14.36 320.67,14.76C330.54,15.16 340.41,15.5 350.28,15.84C360.15,16.18 370.01,16.48 379.88,16.78C389.75,17.08 399.62,17.37 409.49,17.65C419.36,17.93 429.22,18.2 439.09,18.44C448.96,18.68 458.83,18.9 468.7,19.08C478.57,19.26 488.43,19.4 498.3,19.51C508.17,19.62 518.04,19.68 527.91,19.73C537.78,19.78 547.64,19.79 557.51,19.79C567.38,19.79 577.25,19.77 587.12,19.75C596.99,19.74 606.85,19.71 616.72,19.7C626.59,19.68 636.46,19.67 646.33,19.66C656.2,19.65 666.06,19.64 675.93,19.64C685.8,19.64 695.67,19.64 705.54,19.64C715.41,19.64 725.27,19.64 735.14,19.65C745.01,19.66 754.88,19.67 764.75,19.69C774.62,19.71 784.48,19.74 794.35,19.77C804.22,19.8 814.08,19.85 823.95,19.88C833.82,19.92 843.69,19.95 853.56,19.98C863.43,20 873.29,20.02 883.16,20.03C893.03,20.04 902.9,20.04 912.77,20.03C922.64,20.02 932.5,19.99 942.37,19.97C952.24,19.95 962.11,19.93 971.98,19.92C981.85,19.91 991.71,19.91 1001.58,19.93C1011.45,19.95 1021.32,19.98 1031.19,20.03C1041.06,20.08 1050.92,20.14 1060.79,20.21C1070.66,20.28 1080.53,20.36 1090.4,20.43C1100.27,20.5 1110.13,20.58 1120,20.65C1129.87,20.72 1139.74,20.78 1149.61,20.83Q1159.48,20.88 1179.21,20.96L1179.21,21.27Q1159.48,21.35 1149.61,21.4C1139.74,21.45 1129.87,21.51 1120,21.58C1110.13,21.65 1100.27,21.73 1090.4,21.8C1080.53,21.87 1070.66,21.95 1060.79,22.02C1050.92,22.09 1041.06,22.16 1031.19,22.21C1021.32,22.26 1011.45,22.28 1001.58,22.3C991.71,22.32 981.85,22.32 971.98,22.31C962.11,22.3 952.24,22.28 942.37,22.26C932.5,22.24 922.64,22.21 912.77,22.2C902.9,22.19 893.03,22.19 883.16,22.2C873.29,22.21 863.43,22.22 853.56,22.25C843.69,22.28 833.82,22.32 823.95,22.36C814.08,22.39 804.22,22.43 794.35,22.46C784.48,22.49 774.62,22.52 764.75,22.54C754.88,22.56 745.01,22.57 735.14,22.58C725.27,22.59 715.41,22.59 705.54,22.59C695.67,22.59 685.8,22.59 675.93,22.59C666.06,22.59 656.2,22.58 646.33,22.57C636.46,22.56 626.59,22.55 616.72,22.53C606.85,22.52 596.99,22.49 587.12,22.48C577.25,22.46 567.38,22.44 557.51,22.44C547.64,22.44 537.78,22.45 527.91,22.5C518.04,22.55 508.17,22.61 498.3,22.72C488.43,22.83 478.57,22.97 468.7,23.15C458.83,23.33 448.96,23.55 439.09,23.79C429.22,24.03 419.36,24.3 409.49,24.58C399.62,24.86 389.75,25.15 379.88,25.45C370.01,25.75 360.15,26.05 350.28,26.39C340.41,26.73 330.54,27.07 320.67,27.47C310.8,27.87 300.94,28.31 291.07,28.81C281.2,29.31 271.33,29.89 261.46,30.49C251.59,31.09 241.73,31.79 231.86,32.42C221.99,33.05 212.12,33.75 202.25,34.28C192.38,34.81 182.52,35.33 172.65,35.6C162.78,35.87 152.91,36.01 143.04,35.9C133.17,35.79 123.3,35.46 113.44,34.96C103.57,34.46 93.7,33.7 83.83,32.92C73.96,32.13 64.1,31.15 54.23,30.25C44.36,29.35 34.49,28.36 24.62,27.51C14.76,26.66 4.89,25.84 -4.98,25.16C-14.85,24.48 -24.72,23.9 -34.59,23.42Q-44.46,22.94 -64.19,22.3Z" style="vector-effect: none; stroke-width: 2px; stroke: rgb(181, 181, 181); stroke-opacity: 1; fill: rgb(181, 181, 181); fill-opacity: 1;"/><path class="box" d="M167.23,24.81V17.42M129.87,24.81V17.42H337.67V24.81ZM129.87,21.12H115.02M337.67,21.12H612.53" style="vector-effect: non-scaling-stroke; stroke-width: 2px; stroke: rgb(181, 181, 181); stroke-opacity: 1; fill: rgb(181, 181, 181); fill-opacity: 1;"/><path class="mean" d="M279.73,24.81V17.42" style="fill: none; vector-effect: non-scaling-stroke; stroke-width: 2px; stroke-dasharray: 4px, 2px; stroke: rgb(181, 181, 181); stroke-opacity: 1;"/></g></g><g class="scatterlayer mlayer"><g class="trace scatter trace1718cd" style="stroke-miterlimit: 2; opacity: 1;"><g class="fills"/><g class="errorbars"/><g class="lines"/><g class="points"><path class="point" transform="translate(199.48,21.12)" d="M2,0A2,2 0 1,1 0,-2A2,2 0 0,1 2,0Z" style="opacity: 1; stroke-width: 0px; fill: rgb(11, 121, 230); fill-opacity: 1;"/></g><g class="text"/></g><g class="trace scatter trace970437" style="stroke-miterlimit: 2; opacity: 1;"><g class="fills"/><g class="errorbars"/><g class="lines"/><g class="points"><path class="point" transform="translate(177.98,21.12)" d="M2,0A2,2 0 1,1 0,-2A2,2 0 0,1 2,0Z" style="opacity: 1; stroke-width: 0px; fill: rgb(11, 121, 230); fill-opacity: 1;"/></g><g class="text"/></g><g class="trace scatter trace4ac172" style="stroke-miterlimit: 2; opacity: 1;"><g class="fills"/><g class="errorbars"/><g class="lines"/><g class="points"><path class="point" transform="translate(170.3,21.12)" d="M2,0A2,2 0 1,1 0,-2A2,2 0 0,1 2,0Z" style="opacity: 1; stroke-width: 0px; fill: rgb(11, 121, 230); fill-opacity: 1;"/></g><g class="text"/></g><g class="trace scatter trace4f35ef" style="stroke-miterlimit: 2; opacity: 1;"><g class="fills"/><g class="errorbars"/><g class="lines"/><g class="points"><path class="point" transform="translate(144.2,21.12)" d="M2,0A2,2 0 1,1 0,-2A2,2 0 0,1 2,0Z" style="opacity: 1; stroke-width: 0px; fill: rgb(11, 121, 230); fill-opacity: 1;"/></g><g class="text"/></g><g class="trace scatter trace3ada39" style="stroke-miterlimit: 2; opacity: 1;"><g class="fills"/><g class="errorbars"/><g class="lines"/><g class="points"><path class="point" transform="translate(164.16,21.12)" d="M2,0A2,2 0 1,1 0,-2A2,2 0 0,1 2,0Z" style="opacity: 1; stroke-width: 0px; fill: rgb(11, 121, 230); fill-opacity: 1;"/></g><g class="text"/></g><g class="trace scatter trace8a0044" style="stroke-miterlimit: 2; opacity: 1;"><g class="fills"/><g class="errorbars"/><g class="lines"/><g class="points"><path class="point" transform="translate(128.33,21.12)" d="M2,0A2,2 0 1,1 0,-2A2,2 0 0,1 2,0Z" style="opacity: 1; stroke-width: 0px; fill: rgb(11, 121, 230); fill-opacity: 1;"/></g><g class="text"/></g><g class="trace scatter trace35a5d9" style="stroke-miterlimit: 2; opacity: 1;"><g class="fills"/><g class="errorbars"/><g class="lines"/><g class="points"><path class="point" transform="translate(138.05,21.12)" d="M2,0A2,2 0 1,1 0,-2A2,2 0 0,1 2,0Z" style="opacity: 1; stroke-width: 0px; fill: rgb(11, 121, 230); fill-opacity: 1;"/></g><g class="text"/></g><g class="trace scatter tracea736e6" style="stroke-miterlimit: 2; opacity: 1;"><g class="fills"/><g class="errorbars"/><g class="lines"/><g class="points"><path class="point" transform="translate(134.47,21.12)" d="M2,0A2,2 0 1,1 0,-2A2,2 0 0,1 2,0Z" style="opacity: 1; stroke-width: 0px; fill: rgb(11, 121, 230); fill-opacity: 1;"/></g><g class="text"/></g><g class="trace scatter traceeeff0b" style="stroke-miterlimit: 2; opacity: 1;"><g class="fills"/><g class="errorbars"/><g class="lines"/><g class="points"><path class="point" transform="translate(115.02,21.12)" d="M2,0A2,2 0 1,1 0,-2A2,2 0 0,1 2,0Z" style="opacity: 1; stroke-width: 0px; fill: rgb(11, 121, 230); fill-opacity: 1;"/></g><g class="text"/></g><g class="trace scatter trace7c72cb" style="stroke-miterlimit: 2; opacity: 1;"><g class="fills"/><g class="errorbars"/><g class="lines"/><g class="points"><path class="point" transform="translate(121.16,21.12)" d="M2,0A2,2 0 1,1 0,-2A2,2 0 0,1 2,0Z" style="opacity: 1; stroke-width: 0px; fill: rgb(11, 121, 230); fill-opacity: 1;"/></g><g class="text"/></g><g class="trace scatter trace257e04" style="stroke-miterlimit: 2; opacity: 1;"><g class="fills"/><g class="errorbars"/><g class="lines"/><g class="points"><path class="point" transform="translate(115.53,21.12)" d="M2,0A2,2 0 1,1 0,-2A2,2 0 0,1 2,0Z" style="opacity: 1; stroke-width: 0px; fill: rgb(11, 121, 230); fill-opacity: 1;"/></g><g class="text"/></g><g class="trace scatter trace2094bd" style="stroke-miterlimit: 2; opacity: 1;"><g class="fills"/><g class="errorbars"/><g class="lines"/><g class="points"><path class="point" transform="translate(131.4,21.12)" d="M2,0A2,2 0 1,1 0,-2A2,2 0 0,1 2,0Z" style="opacity: 1; stroke-width: 0px; fill: rgb(11, 121, 230); fill-opacity: 1;"/></g><g class="text"/></g><g class="trace scatter trace2d394a" style="stroke-miterlimit: 2; opacity: 1;"><g class="fills"/><g class="errorbars"/><g class="lines"/><g class="points"><path class="point" transform="translate(118.09,21.12)" d="M2,0A2,2 0 1,1 0,-2A2,2 0 0,1 2,0Z" style="opacity: 1; stroke-width: 0px; fill: rgb(11, 121, 230); fill-opacity: 1;"/></g><g class="text"/></g><g class="trace scatter trace274ea9" style="stroke-miterlimit: 2; opacity: 1;"><g class="fills"/><g class="errorbars"/><g class="lines"/><g class="points"><path class="point" transform="translate(1000,21.12)" d="M2,0A2,2 0 1,1 0,-2A2,2 0 0,1 2,0Z" style="opacity: 1; stroke-width: 0px; fill: rgb(11, 121, 230); fill-opacity: 1;"/></g><g class="text"/></g><g class="trace scatter trace7343fb" style="stroke-miterlimit: 2; opacity: 1;"><g class="fills"/><g class="errorbars"/><g class="lines"/><g class="points"><path class="point" transform="translate(779.91,21.12)" d="M2,0A2,2 0 1,1 0,-2A2,2 0 0,1 2,0Z" style="opacity: 1; stroke-width: 0px; fill: rgb(11, 121, 230); fill-opacity: 1;"/></g><g class="text"/></g><g class="trace scatter traceb90221" style="stroke-miterlimit: 2; opacity: 1;"><g class="fills"/><g class="errorbars"/><g class="lines"/><g class="points"><path class="point" transform="translate(612.53,21.12)" d="M2,0A2,2 0 1,1 0,-2A2,2 0 0,1 2,0Z" style="opacity: 1; stroke-width: 0px; fill: rgb(11, 121, 230); fill-opacity: 1;"/></g><g class="text"/></g><g class="trace scatter trace98f4c8" style="stroke-miterlimit: 2; opacity: 1;"><g class="fills"/><g class="errorbars"/><g class="lines"/><g class="points"><path class="point" transform="translate(393.46,21.12)" d="M2,0A2,2 0 1,1 0,-2A2,2 0 0,1 2,0Z" style="opacity: 1; stroke-width: 0px; fill: rgb(11, 121, 230); fill-opacity: 1;"/></g><g class="text"/></g><g class="trace scatter trace17869b" style="stroke-miterlimit: 2; opacity: 1;"><g class="fills"/><g class="errorbars"/><g class="lines"/><g class="points"><path class="point" transform="translate(343.82,21.12)" d="M2,0A2,2 0 1,1 0,-2A2,2 0 0,1 2,0Z" style="opacity: 1; stroke-width: 0px; fill: rgb(11, 121, 230); fill-opacity: 1;"/></g><g class="text"/></g><g class="trace scatter traceac304c" style="stroke-miterlimit: 2; opacity: 1;"><g class="fills"/><g class="errorbars"/><g class="lines"/><g class="points"><path class="point" transform="translate(331.53,21.12)" d="M2,0A2,2 0 1,1 0,-2A2,2 0 0,1 2,0Z" style="opacity: 1; stroke-width: 0px; fill: rgb(11, 121, 230); fill-opacity: 1;"/></g><g class="text"/></g><g class="trace scatter trace2f9b8d" style="stroke-miterlimit: 2; opacity: 1;"><g class="fills"/><g class="errorbars"/><g class="lines"/><g class="points"><path class="point" transform="translate(275.23,21.12)" d="M2,0A2,2 0 1,1 0,-2A2,2 0 0,1 2,0Z" style="opacity: 1; stroke-width: 0px; fill: rgb(11, 121, 230); fill-opacity: 1;"/></g><g class="text"/></g></g></g></g><path class="xlines-above crisp" d="M0,0" style="fill: none;"/><path class="ylines-above crisp" d="M0,0" style="fill: none;"/><g class="overlines-above"/><g class="xaxislayer-above"><g class="x2tick"><text text-anchor="middle" x="0" y="172.61538461538464" transform="translate(84.98,0)" style="font-family: 'Lucida Grande', 'Open Sans', verdana, arial, sans-serif; font-size: 9px; fill: rgb(0, 0, 0); fill-opacity: 0.5; white-space: pre; opacity: 1;">0</text></g><g class="x2tick"><text text-anchor="middle" x="0" y="172.61538461538464" style="font-family: 'Lucida Grande', 'Open Sans', verdana, arial, sans-serif; font-size: 9px; fill: rgb(0, 0, 0); fill-opacity: 0.5; white-space: pre; opacity: 1;" transform="translate(187.34,0)">200</text></g><g class="x2tick"><text text-anchor="middle" x="0" y="172.61538461538464" style="font-family: 'Lucida Grande', 'Open Sans', verdana, arial, sans-serif; font-size: 9px; fill: rgb(0, 0, 0); fill-opacity: 0.5; white-space: pre; opacity: 1;" transform="translate(289.71000000000004,0)">400</text></g><g class="x2tick"><text text-anchor="middle" x="0" y="172.61538461538464" style="font-family: 'Lucida Grande', 'Open Sans', verdana, arial, sans-serif; font-size: 9px; fill: rgb(0, 0, 0); fill-opacity: 0.5; white-space: pre; opacity: 1;" transform="translate(392.08,0)">600</text></g><g class="x2tick"><text text-anchor="middle" x="0" y="172.61538461538464" style="font-family: 'Lucida Grande', 'Open Sans', verdana, arial, sans-serif; font-size: 9px; fill: rgb(0, 0, 0); fill-opacity: 0.5; white-space: pre; opacity: 1;" transform="translate(494.45,0)">800</text></g><g class="x2tick"><text text-anchor="middle" x="0" y="172.61538461538464" style="font-family: 'Lucida Grande', 'Open Sans', verdana, arial, sans-serif; font-size: 9px; fill: rgb(0, 0, 0); fill-opacity: 0.5; white-space: pre; opacity: 1;" transform="translate(596.82,0)">1000</text></g><g class="x2tick"><text text-anchor="middle" x="0" y="172.61538461538464" style="font-family: 'Lucida Grande', 'Open Sans', verdana, arial, sans-serif; font-size: 9px; fill: rgb(0, 0, 0); fill-opacity: 0.5; white-space: pre; opacity: 1;" transform="translate(699.19,0)">1200</text></g><g class="x2tick"><text text-anchor="middle" x="0" y="172.61538461538464" style="font-family: 'Lucida Grande', 'Open Sans', verdana, arial, sans-serif; font-size: 9px; fill: rgb(0, 0, 0); fill-opacity: 0.5; white-space: pre; opacity: 1;" transform="translate(801.56,0)">1400</text></g><g class="x2tick"><text text-anchor="middle" x="0" y="172.61538461538464" style="font-family: 'Lucida Grande', 'Open Sans', verdana, arial, sans-serif; font-size: 9px; fill: rgb(0, 0, 0); fill-opacity: 0.5; white-space: pre; opacity: 1;" transform="translate(903.93,0)">1600</text></g><g class="x2tick"><text text-anchor="middle" x="0" y="172.61538461538464" style="font-family: 'Lucida Grande', 'Open Sans', verdana, arial, sans-serif; font-size: 9px; fill: rgb(0, 0, 0); fill-opacity: 0.5; white-space: pre; opacity: 1;" transform="translate(1006.29,0)">1800</text></g></g><g class="yaxislayer-above"><g class="y2tick"><text text-anchor="end" x="79" y="3.15" transform="translate(0,141.5046153846154)" style="font-family: 'Lucida Grande', 'Open Sans', verdana, arial, sans-serif; font-size: 9px; fill: rgb(0, 0, 0); fill-opacity: 0.5; white-space: pre; opacity: 1;">Occurrences  </text></g></g><g class="overaxes-above"/></g><g class="subplot x3y3"><g class="layer-subplot"><g class="shapelayer"/><g class="imagelayer"/></g><g class="minor-gridlayer"><g class="x3"/><g class="y3"/></g><g class="gridlayer"><g class="x3"><path class="x3grid crisp" transform="translate(283.98,0)" d="M0,190.76923076923077v42.230769230769226" style="stroke: rgb(0, 0, 0); stroke-opacity: 0.1; stroke-width: 1px;"/><path class="x3grid crisp" transform="translate(482.99,0)" d="M0,190.76923076923077v42.230769230769226" style="stroke: rgb(0, 0, 0); stroke-opacity: 0.1; stroke-width: 1px;"/><path class="x3grid crisp" transform="translate(681.99,0)" d="M0,190.76923076923077v42.230769230769226" style="stroke: rgb(0, 0, 0); stroke-opacity: 0.1; stroke-width: 1px;"/><path class="x3grid crisp" transform="translate(881,0)" d="M0,190.76923076923077v42.230769230769226" style="stroke: rgb(0, 0, 0); stroke-opacity: 0.1; stroke-width: 1px;"/><path class="x3grid crisp" transform="translate(1080,0)" d="M0,190.76923076923077v42.230769230769226" style="stroke: rgb(0, 0, 0); stroke-opacity: 0.1; stroke-width: 1px;"/></g><g class="y3"><path class="y3grid crisp" transform="translate(0,211.88923076923078)" d="M80,0h1005" style="stroke: rgb(0, 0, 0); stroke-opacity: 0.1; stroke-width: 1px;"/></g></g><g class="zerolinelayer"><path class="x3zl zl crisp" transform="translate(84.98,0)" d="M0,190.76923076923077v42.230769230769226" style="stroke: rgb(0, 0, 0); stroke-opacity: 0.1; stroke-width: 2px;"/></g><g class="layer-between"><g class="shapelayer"/><g class="imagelayer"/></g><path class="xlines-below"/><path class="ylines-below"/><g class="overlines-below"/><g class="xaxislayer-below"/><g class="yaxislayer-below"/><g class="overaxes-below"/><g class="overplot"><g class="x3y3" transform="translate(80,190.76923076923077)" clip-path="url(#clipdf58aax3y3plot)"><g class="violinlayer mlayer"><g class="trace violins" style="opacity: 0.5;"><path class="violin" d="M4.93,19.93Q4.94,19.22 4.95,18.81C4.96,18.29 4.96,17.69 4.97,17.07C4.98,16.35 4.98,15.53 4.99,14.72C5,13.84 5,12.89 5.01,11.98C5.02,11.08 5.02,10.14 5.03,9.31C5.04,8.59 5.04,7.83 5.05,7.28C5.06,6.9 5.06,6.33 5.07,6.33C5.08,6.33 5.09,6.49 5.1,6.63C5.12,6.91 5.11,7.47 5.12,7.95C5.13,8.52 5.13,9.18 5.14,9.81C5.15,10.45 5.15,11.12 5.16,11.74C5.17,12.32 5.17,12.89 5.18,13.42C5.19,13.89 5.19,14.34 5.2,14.76C5.21,15.14 5.21,15.49 5.22,15.84C5.23,16.16 5.24,16.47 5.25,16.78C5.26,17.08 5.26,17.37 5.27,17.65C5.28,17.92 5.28,18.19 5.29,18.44C5.3,18.66 5.3,18.89 5.31,19.08C5.32,19.24 5.32,19.39 5.33,19.51C5.34,19.6 5.34,19.68 5.35,19.73C5.36,19.76 5.36,19.79 5.37,19.79C5.38,19.79 5.38,19.76 5.39,19.75C5.4,19.73 5.41,19.72 5.42,19.7C5.43,19.69 5.43,19.67 5.44,19.66C5.45,19.65 5.45,19.64 5.46,19.64C5.47,19.64 5.47,19.64 5.48,19.64C5.49,19.64 5.49,19.64 5.5,19.65C5.51,19.66 5.51,19.67 5.52,19.69C5.53,19.71 5.53,19.74 5.54,19.77C5.55,19.8 5.56,19.84 5.57,19.88C5.58,19.91 5.58,19.95 5.59,19.98C5.6,20 5.6,20.02 5.61,20.03C5.62,20.03 5.62,20.03 5.63,20.03C5.64,20.02 5.64,19.99 5.65,19.97C5.66,19.95 5.66,19.92 5.67,19.92C5.68,19.92 5.68,19.92 5.69,19.93C5.7,19.95 5.71,19.99 5.72,20.03C5.73,20.08 5.73,20.15 5.74,20.21C5.75,20.28 5.75,20.36 5.76,20.43C5.77,20.5 5.77,20.58 5.78,20.65C5.79,20.71 5.79,20.77 5.8,20.83Q5.81,20.88 5.82,20.96L5.82,21.27Q5.81,21.35 5.8,21.4C5.79,21.46 5.79,21.52 5.78,21.58C5.77,21.65 5.77,21.73 5.76,21.8C5.75,21.87 5.75,21.95 5.74,22.02C5.73,22.09 5.73,22.16 5.72,22.21C5.71,22.25 5.7,22.29 5.69,22.3C5.68,22.31 5.68,22.31 5.67,22.31C5.66,22.31 5.66,22.28 5.65,22.26C5.64,22.24 5.64,22.21 5.63,22.2C5.62,22.2 5.62,22.2 5.61,22.2C5.6,22.21 5.6,22.23 5.59,22.25C5.58,22.28 5.58,22.32 5.57,22.36C5.56,22.39 5.55,22.43 5.54,22.46C5.53,22.49 5.53,22.52 5.52,22.54C5.51,22.56 5.51,22.57 5.5,22.58C5.49,22.59 5.49,22.59 5.48,22.59C5.47,22.59 5.47,22.59 5.46,22.59C5.45,22.59 5.45,22.58 5.44,22.57C5.43,22.56 5.43,22.54 5.42,22.53C5.41,22.51 5.4,22.5 5.39,22.48C5.38,22.47 5.38,22.44 5.37,22.44C5.36,22.44 5.36,22.47 5.35,22.5C5.34,22.55 5.34,22.63 5.33,22.72C5.32,22.84 5.32,22.99 5.31,23.15C5.3,23.34 5.3,23.57 5.29,23.79C5.28,24.04 5.28,24.31 5.27,24.58C5.26,24.86 5.26,25.15 5.25,25.45C5.24,25.76 5.23,26.07 5.22,26.39C5.21,26.74 5.21,27.09 5.2,27.47C5.19,27.89 5.19,28.34 5.18,28.81C5.17,29.34 5.17,29.91 5.16,30.49C5.15,31.11 5.15,31.78 5.14,32.42C5.13,33.05 5.13,33.71 5.12,34.28C5.11,34.76 5.12,35.32 5.1,35.6C5.09,35.74 5.08,35.9 5.07,35.9C5.06,35.9 5.06,35.33 5.05,34.96C5.04,34.41 5.04,33.65 5.03,32.92C5.02,32.09 5.02,31.15 5.01,30.25C5,29.34 5,28.39 4.99,27.51C4.98,26.7 4.98,25.88 4.97,25.16C4.96,24.54 4.96,23.94 4.95,23.42Q4.94,23.01 4.93,22.3Z" style="vector-effect: none; stroke-width: 2px; stroke: rgb(181, 181, 181); stroke-opacity: 1; fill: rgb(181, 181, 181); fill-opacity: 1;"/><path class="box" d="M5.09,24.81V17.42M5.07,24.81V17.42H5.22V24.81ZM5.07,21.12H5.05M5.22,21.12H5.41" style="vector-effect: non-scaling-stroke; stroke-width: 2px; stroke: rgb(181, 181, 181); stroke-opacity: 1; fill: rgb(181, 181, 181); fill-opacity: 1;"/><path class="mean" d="M5.17,24.81V17.42" style="fill: none; vector-effect: non-scaling-stroke; stroke-width: 2px; stroke-dasharray: 4px, 2px; stroke: rgb(181, 181, 181); stroke-opacity: 1;"/></g></g><g class="scatterlayer mlayer"><g class="trace scatter trace2659db" style="stroke-miterlimit: 2; opacity: 1;"><g class="fills"/><g class="errorbars"/><g class="lines"/><g class="points"><path class="point" transform="translate(5.12,21.12)" d="M2,0A2,2 0 1,1 0,-2A2,2 0 0,1 2,0Z" style="opacity: 1; stroke-width: 0px; fill: rgb(11, 121, 230); fill-opacity: 1;"/></g><g class="text"/></g><g class="trace scatter traceaea8f2" style="stroke-miterlimit: 2; opacity: 1;"><g class="fills"/><g class="errorbars"/><g class="lines"/><g class="points"><path class="point" transform="translate(5.1,21.12)" d="M2,0A2,2 0 1,1 0,-2A2,2 0 0,1 2,0Z" style="opacity: 1; stroke-width: 0px; fill: rgb(11, 121, 230); fill-opacity: 1;"/></g><g class="text"/></g><g class="trace scatter trace1b1d84" style="stroke-miterlimit: 2; opacity: 1;"><g class="fills"/><g class="errorbars"/><g class="lines"/><g class="points"><path class="point" transform="translate(5.09,21.12)" d="M2,0A2,2 0 1,1 0,-2A2,2 0 0,1 2,0Z" style="opacity: 1; stroke-width: 0px; fill: rgb(11, 121, 230); fill-opacity: 1;"/></g><g class="text"/></g><g class="trace scatter trace219ec2" style="stroke-miterlimit: 2; opacity: 1;"><g class="fills"/><g class="errorbars"/><g class="lines"/><g class="points"><path class="point" transform="translate(5.08,21.12)" d="M2,0A2,2 0 1,1 0,-2A2,2 0 0,1 2,0Z" style="opacity: 1; stroke-width: 0px; fill: rgb(11, 121, 230); fill-opacity: 1;"/></g><g class="text"/></g><g class="trace scatter trace12d922" style="stroke-miterlimit: 2; opacity: 1;"><g class="fills"/><g class="errorbars"/><g class="lines"/><g class="points"><path class="point" transform="translate(5.09,21.12)" d="M2,0A2,2 0 1,1 0,-2A2,2 0 0,1 2,0Z" style="opacity: 1; stroke-width: 0px; fill: rgb(11, 121, 230); fill-opacity: 1;"/></g><g class="text"/></g><g class="trace scatter trace9ae0c1" style="stroke-miterlimit: 2; opacity: 1;"><g class="fills"/><g class="errorbars"/><g class="lines"/><g class="points"><path class="point" transform="translate(5.06,21.12)" d="M2,0A2,2 0 1,1 0,-2A2,2 0 0,1 2,0Z" style="opacity: 1; stroke-width: 0px; fill: rgb(11, 121, 230); fill-opacity: 1;"/></g><g class="text"/></g><g class="trace scatter trace85e34a" style="stroke-miterlimit: 2; opacity: 1;"><g class="fills"/><g class="errorbars"/><g class="lines"/><g class="points"><path class="point" transform="translate(5.07,21.12)" d="M2,0A2,2 0 1,1 0,-2A2,2 0 0,1 2,0Z" style="opacity: 1; stroke-width: 0px; fill: rgb(11, 121, 230); fill-opacity: 1;"/></g><g class="text"/></g><g class="trace scatter trace1fb140" style="stroke-miterlimit: 2; opacity: 1;"><g class="fills"/><g class="errorbars"/><g class="lines"/><g class="points"><path class="point" transform="translate(5.07,21.12)" d="M2,0A2,2 0 1,1 0,-2A2,2 0 0,1 2,0Z" style="opacity: 1; stroke-width: 0px; fill: rgb(11, 121, 230); fill-opacity: 1;"/></g><g class="text"/></g><g class="trace scatter trace9a29e5" style="stroke-miterlimit: 2; opacity: 1;"><g class="fills"/><g class="errorbars"/><g class="lines"/><g class="points"><path class="point" transform="translate(5.05,21.12)" d="M2,0A2,2 0 1,1 0,-2A2,2 0 0,1 2,0Z" style="opacity: 1; stroke-width: 0px; fill: rgb(11, 121, 230); fill-opacity: 1;"/></g><g class="text"/></g><g class="trace scatter trace508005" style="stroke-miterlimit: 2; opacity: 1;"><g class="fills"/><g class="errorbars"/><g class="lines"/><g class="points"><path class="point" transform="translate(5.06,21.12)" d="M2,0A2,2 0 1,1 0,-2A2,2 0 0,1 2,0Z" style="opacity: 1; stroke-width: 0px; fill: rgb(11, 121, 230); fill-opacity: 1;"/></g><g class="text"/></g><g class="trace scatter trace0bec29" style="stroke-miterlimit: 2; opacity: 1;"><g class="fills"/><g class="errorbars"/><g class="lines"/><g class="points"><path class="point" transform="translate(5.05,21.12)" d="M2,0A2,2 0 1,1 0,-2A2,2 0 0,1 2,0Z" style="opacity: 1; stroke-width: 0px; fill: rgb(11, 121, 230); fill-opacity: 1;"/></g><g class="text"/></g><g class="trace scatter tracea20b96" style="stroke-miterlimit: 2; opacity: 1;"><g class="fills"/><g class="errorbars"/><g class="lines"/><g class="points"><path class="point" transform="translate(5.07,21.12)" d="M2,0A2,2 0 1,1 0,-2A2,2 0 0,1 2,0Z" style="opacity: 1; stroke-width: 0px; fill: rgb(11, 121, 230); fill-opacity: 1;"/></g><g class="text"/></g><g class="trace scatter trace479612" style="stroke-miterlimit: 2; opacity: 1;"><g class="fills"/><g class="errorbars"/><g class="lines"/><g class="points"><path class="point" transform="translate(5.06,21.12)" d="M2,0A2,2 0 1,1 0,-2A2,2 0 0,1 2,0Z" style="opacity: 1; stroke-width: 0px; fill: rgb(11, 121, 230); fill-opacity: 1;"/></g><g class="text"/></g><g class="trace scatter trace4b8a22" style="stroke-miterlimit: 2; opacity: 1;"><g class="fills"/><g class="errorbars"/><g class="lines"/><g class="points"><path class="point" transform="translate(5.69,21.12)" d="M2,0A2,2 0 1,1 0,-2A2,2 0 0,1 2,0Z" style="opacity: 1; stroke-width: 0px; fill: rgb(11, 121, 230); fill-opacity: 1;"/></g><g class="text"/></g><g class="trace scatter tracedeb60a" style="stroke-miterlimit: 2; opacity: 1;"><g class="fills"/><g class="errorbars"/><g class="lines"/><g class="points"><path class="point" transform="translate(5.53,21.12)" d="M2,0A2,2 0 1,1 0,-2A2,2 0 0,1 2,0Z" style="opacity: 1; stroke-width: 0px; fill: rgb(11, 121, 230); fill-opacity: 1;"/></g><g class="text"/></g><g class="trace scatter tracecde49f" style="stroke-miterlimit: 2; opacity: 1;"><g class="fills"/><g class="errorbars"/><g class="lines"/><g class="points"><path class="point" transform="translate(5.41,21.12)" d="M2,0A2,2 0 1,1 0,-2A2,2 0 0,1 2,0Z" style="opacity: 1; stroke-width: 0px; fill: rgb(11, 121, 230); fill-opacity: 1;"/></g><g class="text"/></g><g class="trace scatter trace1b3ffb" style="stroke-miterlimit: 2; opacity: 1;"><g class="fills"/><g class="errorbars"/><g class="lines"/><g class="points"><path class="point" transform="translate(5.26,21.12)" d="M2,0A2,2 0 1,1 0,-2A2,2 0 0,1 2,0Z" style="opacity: 1; stroke-width: 0px; fill: rgb(11, 121, 230); fill-opacity: 1;"/></g><g class="text"/></g><g class="trace scatter trace13f2eb" style="stroke-miterlimit: 2; opacity: 1;"><g class="fills"/><g class="errorbars"/><g class="lines"/><g class="points"><path class="point" transform="translate(5.22,21.12)" d="M2,0A2,2 0 1,1 0,-2A2,2 0 0,1 2,0Z" style="opacity: 1; stroke-width: 0px; fill: rgb(11, 121, 230); fill-opacity: 1;"/></g><g class="text"/></g><g class="trace scatter tracedd0fab" style="stroke-miterlimit: 2; opacity: 1;"><g class="fills"/><g class="errorbars"/><g class="lines"/><g class="points"><path class="point" transform="translate(5.21,21.12)" d="M2,0A2,2 0 1,1 0,-2A2,2 0 0,1 2,0Z" style="opacity: 1; stroke-width: 0px; fill: rgb(11, 121, 230); fill-opacity: 1;"/></g><g class="text"/></g><g class="trace scatter tracea31443" style="stroke-miterlimit: 2; opacity: 1;"><g class="fills"/><g class="errorbars"/><g class="lines"/><g class="points"><path class="point" transform="translate(5.17,21.12)" d="M2,0A2,2 0 1,1 0,-2A2,2 0 0,1 2,0Z" style="opacity: 1; stroke-width: 0px; fill: rgb(11, 121, 230); fill-opacity: 1;"/></g><g class="text"/></g></g></g></g><path class="xlines-above crisp" d="M0,0" style="fill: none;"/><path class="ylines-above crisp" d="M0,0" style="fill: none;"/><g class="overlines-above"/><g class="xaxislayer-above"><g class="x3tick"><text text-anchor="middle" x="0" y="243" transform="translate(84.98,0)" style="font-family: 'Lucida Grande', 'Open Sans', verdana, arial, sans-serif; font-size: 9px; fill: rgb(0, 0, 0); fill-opacity: 0.5; white-space: pre; opacity: 1;">0%</text></g><g class="x3tick"><text text-anchor="middle" x="0" y="243" style="font-family: 'Lucida Grande', 'Open Sans', verdana, arial, sans-serif; font-size: 9px; fill: rgb(0, 0, 0); fill-opacity: 0.5; white-space: pre; opacity: 1;" transform="translate(283.98,0)">20%</text></g><g class="x3tick"><text text-anchor="middle" x="0" y="243" style="font-family: 'Lucida Grande', 'Open Sans', verdana, arial, sans-serif; font-size: 9px; fill: rgb(0, 0, 0); fill-opacity: 0.5; white-space: pre; opacity: 1;" transform="translate(482.99,0)">40%</text></g><g class="x3tick"><text text-anchor="middle" x="0" y="243" style="font-family: 'Lucida Grande', 'Open Sans', verdana, arial, sans-serif; font-size: 9px; fill: rgb(0, 0, 0); fill-opacity: 0.5; white-space: pre; opacity: 1;" transform="translate(681.99,0)">60%</text></g><g class="x3tick"><text text-anchor="middle" x="0" y="243" style="font-family: 'Lucida Grande', 'Open Sans', verdana, arial, sans-serif; font-size: 9px; fill: rgb(0, 0, 0); fill-opacity: 0.5; white-space: pre; opacity: 1;" transform="translate(881,0)">80%</text></g><g class="x3tick"><text text-anchor="middle" x="0" y="243" style="font-family: 'Lucida Grande', 'Open Sans', verdana, arial, sans-serif; font-size: 9px; fill: rgb(0, 0, 0); fill-opacity: 0.5; white-space: pre; opacity: 1;" transform="translate(1080,0)">100%</text></g></g><g class="yaxislayer-above"><g class="y3tick"><text text-anchor="end" x="79" y="3.15" transform="translate(0,211.88923076923078)" style="font-family: 'Lucida Grande', 'Open Sans', verdana, arial, sans-serif; font-size: 9px; fill: rgb(0, 0, 0); fill-opacity: 0.5; white-space: pre; opacity: 1;">% of all reads  </text></g></g><g class="overaxes-above"/></g></g><g class="polarlayer"/><g class="smithlayer"/><g class="ternarylayer"/><g class="geolayer"/><g class="funnelarealayer"/><g class="pielayer"/><g class="iciclelayer"/><g class="treemaplayer"/><g class="sunburstlayer"/><g class="glimages"/><defs id="topdefs-df58aa"><g class="clips"/></defs><g class="layer-above"><g class="imagelayer"/><g class="shapelayer"/></g><g class="infolayer"><g class="g-gtitle"><text class="gtitle" x="550" y="25" text-anchor="middle" dy="0em" style="opacity: 1; font-family: 'Lucida Grande', 'Open Sans', verdana, arial, sans-serif; font-size: 20px; fill: rgb(42, 63, 95); fill-opacity: 1; white-space: pre;"><tspan class="line" dy="0em" x="550" y="25">FastQC: Top overrepresented sequences</tspan><tspan class="line" dy="1.3em" x="550" y="25">​<tspan style="font-size:70%" dy="-0.6em">20 samples</tspan><tspan dy="0.42em">​</tspan></tspan></text></g><g class="g-xtitle"/><g class="g-x2title"/><g class="g-x3title"/><g class="g-ytitle"/><g class="g-y2title"/><g class="g-y3title"/></g></svg>