<svg class="main-svg" xmlns="http://www.w3.org/2000/svg" xmlns:xlink="http://www.w3.org/1999/xlink" width="2200" height="1000" style="" viewBox="0 0 1100 500"><rect x="0" y="0" width="1100" height="500" style="fill: rgb(255, 255, 255); fill-opacity: 1;"/><defs id="defs-842236"><g class="clips"><clipPath id="clip842236xyplot" class="plotclip"><rect width="1014" height="385"/></clipPath><clipPath class="axesclip" id="clip842236x"><rect x="60" y="0" width="1014" height="500"/></clipPath><clipPath class="axesclip" id="clip842236y"><rect x="0" y="50" width="1100" height="385"/></clipPath><clipPath class="axesclip" id="clip842236xy"><rect x="60" y="50" width="1014" height="385"/></clipPath></g><g class="gradients"/><g class="patterns"/></defs><g class="bglayer"/><g class="layer-below"><g class="imagelayer"/><g class="shapelayer"/></g><g class="cartesianlayer"><g class="subplot xy"><g class="layer-subplot"><g class="shapelayer"/><g class="imagelayer"/></g><g class="minor-gridlayer"><g class="x"/><g class="y"/></g><g class="gridlayer"><g class="x"><path class="xgrid crisp" transform="translate(262.8,0)" d="M0,50v385" style="stroke: rgb(0, 0, 0); stroke-opacity: 0.05; stroke-width: 1px;"/><path class="xgrid crisp" transform="translate(465.6,0)" d="M0,50v385" style="stroke: rgb(0, 0, 0); stroke-opacity: 0.05; stroke-width: 1px;"/><path class="xgrid crisp" transform="translate(668.4,0)" d="M0,50v385" style="stroke: rgb(0, 0, 0); stroke-opacity: 0.05; stroke-width: 1px;"/><path class="xgrid crisp" transform="translate(871.2,0)" d="M0,50v385" style="stroke: rgb(0, 0, 0); stroke-opacity: 0.05; stroke-width: 1px;"/></g><g class="y"><path class="ygrid crisp" transform="translate(0,390.64)" d="M60,0h1014" style="stroke: rgb(0, 0, 0); stroke-opacity: 0.05; stroke-width: 1px;"/><path class="ygrid crisp" transform="translate(0,346.29)" d="M60,0h1014" style="stroke: rgb(0, 0, 0); stroke-opacity: 0.05; stroke-width: 1px;"/><path class="ygrid crisp" transform="translate(0,301.93)" d="M60,0h1014" style="stroke: rgb(0, 0, 0); stroke-opacity: 0.05; stroke-width: 1px;"/><path class="ygrid crisp" transform="translate(0,257.57)" d="M60,0h1014" style="stroke: rgb(0, 0, 0); stroke-opacity: 0.05; stroke-width: 1px;"/><path class="ygrid crisp" transform="translate(0,213.22)" d="M60,0h1014" style="stroke: rgb(0, 0, 0); stroke-opacity: 0.05; stroke-width: 1px;"/><path class="ygrid crisp" transform="translate(0,168.86)" d="M60,0h1014" style="stroke: rgb(0, 0, 0); stroke-opacity: 0.05; stroke-width: 1px;"/><path class="ygrid crisp" transform="translate(0,124.5)" d="M60,0h1014" style="stroke: rgb(0, 0, 0); stroke-opacity: 0.05; stroke-width: 1px;"/><path class="ygrid crisp" transform="translate(0,80.14)" d="M60,0h1014" style="stroke: rgb(0, 0, 0); stroke-opacity: 0.05; stroke-width: 1px;"/></g></g><g class="zerolinelayer"><path class="xzl zl crisp" transform="translate(60,0)" d="M0,50v385" style="stroke: rgb(0, 0, 0); stroke-opacity: 0.05; stroke-width: 2px;"/><path class="yzl zl crisp" transform="translate(0,435)" d="M60,0h1014" style="stroke: rgb(0, 0, 0); stroke-opacity: 0.05; stroke-width: 2px;"/></g><g class="layer-between"><g class="shapelayer"/><g class="imagelayer"/></g><path class="xlines-below"/><path class="ylines-below"/><g class="overlines-below"/><g class="xaxislayer-below"/><g class="yaxislayer-below"/><g class="overaxes-below"/><g class="overplot"><g class="xy" transform="translate(60,50)" clip-path="url(#clip842236xyplot)"><g class="scatterlayer mlayer"><g class="trace scatter trace8eb547" style="stroke-miterlimit: 2; opacity: 1;"><g class="fills"/><g class="errorbars"/><g class="lines"><path class="js-line" d="M0,385L212.94,384.43L223.08,383.9L243.36,382.73L253.5,381.7L273.78,377.97L283.92,377L294.06,375.7L304.2,373.1L324.48,364.21L334.62,356.49L365.04,313.09L375.18,288.22L385.32,255.19L395.46,209.4L405.6,155.43L415.74,87.82L425.88,25.19L436.02,19.25L446.16,46.3L456.3,55.16L466.44,68L476.58,105.18L486.72,162.3L496.86,209.54L507,220.67L517.14,243.82L527.28,280.22L537.42,302.57L547.56,317.22L557.7,324.06L567.84,324.64L577.98,340.14L588.12,362.72L598.26,369.55L618.54,369.94L628.68,374.64L638.82,378.54L648.96,380.57L669.24,382.77L679.38,383.3L719.94,384.24L730.08,384.19L780.78,384.96L790.92,384.99L1014,385" style="vector-effect: none; fill: none; stroke: rgb(240, 173, 78); stroke-opacity: 1; stroke-width: 2px; opacity: 1;"/></g><g class="points"/><g class="text"/></g><g class="trace scatter trace6b3af0" style="stroke-miterlimit: 2; opacity: 1;"><g class="fills"/><g class="errorbars"/><g class="lines"><path class="js-line" d="M0,385L212.94,384.38L223.08,384.03L243.36,382.77L253.5,381.79L283.92,376.87L294.06,375.75L304.2,373.7L314.34,370.01L324.48,364.73L334.62,357.38L354.9,331.46L365.04,315.06L375.18,286.28L385.32,254.59L395.46,210.75L405.6,153.83L415.74,90.4L425.88,33.23L436.02,27.31L446.16,45.76L456.3,48.1L466.44,67.88L476.58,106.07L486.72,158.78L496.86,202.5L507,214.67L517.14,243L527.28,280.63L537.42,302.91L547.56,317.07L557.7,324.27L567.84,326.23L577.98,340.48L588.12,361.77L598.26,368.97L608.4,369.54L618.54,369.6L628.68,373.85L638.82,378.06L648.96,380.51L669.24,382.75L679.38,382.93L709.8,384.32L719.94,384.18L892.32,385L902.46,385L1003.86,384.99L1014,383.41" style="vector-effect: none; fill: none; stroke: rgb(240, 173, 78); stroke-opacity: 1; stroke-width: 2px; opacity: 1;"/></g><g class="points"/><g class="text"/></g><g class="trace scatter traceeb8281" style="stroke-miterlimit: 2; opacity: 1;"><g class="fills"/><g class="errorbars"/><g class="lines"><path class="js-line" d="M0,385L212.94,384.31L223.08,383.93L243.36,382.97L253.5,381.25L263.64,373.92L273.78,363.74L283.92,360.78L294.06,364.55L304.2,363.11L314.34,345.95L324.48,305.92L334.62,260.44L344.76,239.19L354.9,225.05L365.04,199.3L375.18,150.56L385.32,97.55L395.46,57.1L405.6,48.11L415.74,52.66L425.88,58.69L436.02,88.69L456.3,158.41L466.44,165.51L476.58,192.77L486.72,240.18L496.86,273.84L507,302.38L517.14,323.83L527.28,341.24L557.7,371.05L567.84,376.22L577.98,377.08L588.12,376.66L598.26,378.46L608.4,382.65L618.54,384.1L628.68,384.48L689.52,384.81L699.66,384.9L912.6,385L922.74,385L1014,385" style="vector-effect: none; fill: none; stroke: rgb(92, 184, 92); stroke-opacity: 1; stroke-width: 2px; opacity: 1;"/></g><g class="points"/><g class="text"/></g><g class="trace scatter trace2ed9ff" style="stroke-miterlimit: 2; opacity: 1;"><g class="fills"/><g class="errorbars"/><g class="lines"><path class="js-line" d="M0,385L212.94,384.41L223.08,384.04L243.36,383.01L253.5,381.37L263.64,374.37L273.78,364.75L283.92,361.15L294.06,363.81L304.2,362.47L314.34,347.74L324.48,309.47L334.62,260.62L344.76,237.18L354.9,226.24L365.04,195.67L375.18,146.52L395.46,56.91L405.6,41.19L415.74,52.46L425.88,56.4L436.02,83.04L446.16,126.97L456.3,158.55L466.44,164.42L476.58,195.96L486.72,242.72L507,304.98L517.14,325.5L527.28,339.9L537.42,351.89L547.56,362.41L557.7,371.84L567.84,376.55L577.98,376.51L588.12,376.6L598.26,379.19L608.4,383.24L618.54,384.25L659.1,384.58L669.24,384.71L922.74,385L932.88,385L1003.86,385L1014,383.13" style="vector-effect: none; fill: none; stroke: rgb(92, 184, 92); stroke-opacity: 1; stroke-width: 2px; opacity: 1;"/></g><g class="points"/><g class="text"/></g><g class="trace scatter trace278e5c" style="stroke-miterlimit: 2; opacity: 1;"><g class="fills"/><g class="errorbars"/><g class="lines"><path class="js-line" d="M0,385L415.74,384.26L425.88,383.85L446.16,381.92L456.3,379.16L466.44,375.32L476.58,370.53L486.72,369.09L496.86,366.44L507,359.76L517.14,356.27L527.28,353.8L537.42,341.02L557.7,323.74L567.84,299.66L577.98,286.14L588.12,271.35L598.26,244.96L608.4,228.36L618.54,207.55L628.68,182.96L638.82,156.35L648.96,125.01L659.1,101.29L669.24,79.61L679.38,83.06L689.52,103.89L699.66,121.92L709.8,136.64L719.94,158.74L730.08,203.97L740.22,242.52L750.36,263.63L760.5,286.99L770.64,315.66L780.78,333.82L790.92,348.17L801.06,364.24L811.2,373.5L821.34,378.41L831.48,381.29L851.76,383.81L861.9,384.42L902.46,384.97L912.6,385L1014,385" style="vector-effect: none; fill: none; stroke: rgb(92, 184, 92); stroke-opacity: 1; stroke-width: 2px; opacity: 1;"/></g><g class="points"/><g class="text"/></g><g class="trace scatter trace262801" style="stroke-miterlimit: 2; opacity: 1;"><g class="fills"/><g class="errorbars"/><g class="lines"><path class="js-line" d="M0,352.94L20.28,385L30.42,385L395.46,384.27L405.6,384.17L436.02,382.64L446.16,381.3L456.3,378.6L466.44,374.89L476.58,369.71L486.72,367.82L496.86,365.45L507,359.1L527.28,352.45L537.42,339.89L547.56,330.11L557.7,322.05L567.84,299.63L577.98,285.65L588.12,272.47L598.26,246.16L618.54,210.22L628.68,187.38L638.82,162.42L648.96,133.05L659.1,109.94L669.24,90.36L679.38,94.74L689.52,113.15L709.8,141.01L719.94,163.5L730.08,207.15L740.22,244.12L750.36,263.14L760.5,285.34L770.64,314.39L780.78,332.18L790.92,345.95L801.06,362.29L811.2,372.04L821.34,377.19L831.48,380.29L841.62,382.38L861.9,384.14L872.04,384.53L943.02,384.9L953.16,384.94L1003.86,384.85L1014,383.77" style="vector-effect: none; fill: none; stroke: rgb(217, 83, 79); stroke-opacity: 1; stroke-width: 2px; opacity: 1;"/></g><g class="points"/><g class="text"/></g><g class="trace scatter trace3a169e" style="stroke-miterlimit: 2; opacity: 1;"><g class="fills"/><g class="errorbars"/><g class="lines"><path class="js-line" d="M0,385L152.1,384.49L162.24,384.16L192.66,381.6L202.8,380.1L212.94,378.16L223.08,374.73L243.36,363.84L253.5,356.68L263.64,346.95L273.78,336L294.06,307.03L304.2,291.14L324.48,250.22L334.62,227.13L375.18,133.62L385.32,114.7L395.46,103.79L405.6,100L415.74,101.99L425.88,112.42L436.02,133.08L446.16,160.74L476.58,254.17L486.72,282.72L496.86,307.05L507,325.31L517.14,339.81L527.28,352.55L537.42,362.19L547.56,369.29L557.7,373.77L567.84,376.72L588.12,381.66L598.26,382.7L638.82,384.28L648.96,384.62L699.66,384.99L709.8,384.99L1014,385" style="vector-effect: none; fill: none; stroke: rgb(92, 184, 92); stroke-opacity: 1; stroke-width: 2px; opacity: 1;"/></g><g class="points"/><g class="text"/></g><g class="trace scatter traceb1b70d" style="stroke-miterlimit: 2; opacity: 1;"><g class="fills"/><g class="errorbars"/><g class="lines"><path class="js-line" d="M0,385L152.1,384.33L162.24,384.05L182.52,382.58L192.66,381.34L212.94,377.79L223.08,374.51L233.22,369.57L243.36,363.35L253.5,355.98L263.64,346.34L273.78,334.87L283.92,321.06L294.06,307.02L304.2,290.36L334.62,225.45L344.76,202.22L354.9,181.1L365.04,155.95L375.18,130.74L385.32,114.62L395.46,104.22L405.6,98.63L415.74,102.11L425.88,115.38L436.02,138.49L446.16,165.86L486.72,283.07L496.86,308.66L507,326.8L517.14,341.42L527.28,353L537.42,362.15L547.56,369.52L557.7,374.16L588.12,381.72L598.26,382.57L628.68,384.08L638.82,384.22L669.24,384.92L679.38,384.96L1003.86,384.45L1014,382.11" style="vector-effect: none; fill: none; stroke: rgb(92, 184, 92); stroke-opacity: 1; stroke-width: 2px; opacity: 1;"/></g><g class="points"/><g class="text"/></g><g class="trace scatter trace42e8d3" style="stroke-miterlimit: 2; opacity: 1;"><g class="fills"/><g class="errorbars"/><g class="lines"><path class="js-line" d="M0,385L152.1,384.37L162.24,384.05L172.38,383.45L182.52,381.49L202.8,377L212.94,373.49L223.08,366.73L233.22,358.87L243.36,350.06L253.5,339.23L263.64,327.84L273.78,314.51L304.2,271.51L314.34,254.51L324.48,238.14L334.62,226.87L344.76,216.57L354.9,204.57L365.04,189.03L375.18,176.51L385.32,170.62L395.46,162.53L405.6,147.63L415.74,137.96L425.88,141.02L436.02,149.11L446.16,161.89L456.3,179.03L466.44,202.05L476.58,228.06L496.86,283L507,306.57L517.14,327.2L527.28,344.33L537.42,355.75L547.56,365.1L557.7,372.02L567.84,377.08L577.98,380.36L588.12,381.69L608.4,383.87L618.54,383.87L679.38,384.96L689.52,384.98L1014,385" style="vector-effect: none; fill: none; stroke: rgb(240, 173, 78); stroke-opacity: 1; stroke-width: 2px; opacity: 1;"/></g><g class="points"/><g class="text"/></g><g class="trace scatter trace4eae16" style="stroke-miterlimit: 2; opacity: 1;"><g class="fills"/><g class="errorbars"/><g class="lines"><path class="js-line" d="M0,385L152.1,384.46L162.24,384.15L172.38,383.12L182.52,380.97L192.66,379.37L202.8,376.97L223.08,367.86L233.22,361.24L263.64,329.5L273.78,315.6L294.06,287.16L304.2,269.78L334.62,225.1L344.76,213.18L365.04,190.23L375.18,180.83L385.32,170.1L395.46,161.25L405.6,148.04L415.74,136.8L425.88,138.54L436.02,147.84L456.3,180.07L466.44,204.05L476.58,230.35L486.72,253.38L507,305.78L517.14,325.24L527.28,342.69L537.42,357.31L547.56,365.84L557.7,372.5L567.84,376.91L577.98,379.82L588.12,382.3L598.26,383.39L638.82,384.44L648.96,384.68L689.52,384.96L699.66,385L1003.86,384.9L1014,382.88" style="vector-effect: none; fill: none; stroke: rgb(240, 173, 78); stroke-opacity: 1; stroke-width: 2px; opacity: 1;"/></g><g class="points"/><g class="text"/></g></g></g></g><path class="xlines-above crisp" d="M0,0" style="fill: none;"/><path class="ylines-above crisp" d="M0,0" style="fill: none;"/><g class="overlines-above"/><g class="xaxislayer-above"><g class="xtick"><text text-anchor="middle" x="0" y="451" transform="translate(60,0)" style="font-family: 'Lucida Grande', 'Open Sans', verdana, arial, sans-serif; font-size: 10px; fill: rgb(0, 0, 0); fill-opacity: 1; white-space: pre; opacity: 1;">0%</text></g><g class="xtick"><text text-anchor="middle" x="0" y="451" style="font-family: 'Lucida Grande', 'Open Sans', verdana, arial, sans-serif; font-size: 10px; fill: rgb(0, 0, 0); fill-opacity: 1; white-space: pre; opacity: 1;" transform="translate(262.8,0)">20%</text></g><g class="xtick"><text text-anchor="middle" x="0" y="451" style="font-family: 'Lucida Grande', 'Open Sans', verdana, arial, sans-serif; font-size: 10px; fill: rgb(0, 0, 0); fill-opacity: 1; white-space: pre; opacity: 1;" transform="translate(465.6,0)">40%</text></g><g class="xtick"><text text-anchor="middle" x="0" y="451" style="font-family: 'Lucida Grande', 'Open Sans', verdana, arial, sans-serif; font-size: 10px; fill: rgb(0, 0, 0); fill-opacity: 1; white-space: pre; opacity: 1;" transform="translate(668.4,0)">60%</text></g><g class="xtick"><text text-anchor="middle" x="0" y="451" style="font-family: 'Lucida Grande', 'Open Sans', verdana, arial, sans-serif; font-size: 10px; fill: rgb(0, 0, 0); fill-opacity: 1; white-space: pre; opacity: 1;" transform="translate(871.2,0)">80%</text></g><g class="xtick"><text text-anchor="middle" x="0" y="451" style="font-family: 'Lucida Grande', 'Open Sans', verdana, arial, sans-serif; font-size: 10px; fill: rgb(0, 0, 0); fill-opacity: 1; white-space: pre; opacity: 1;" transform="translate(1074,0)">100%</text></g></g><g class="yaxislayer-above"><g class="ytick"><text text-anchor="end" x="54" y="3.5" transform="translate(0,435)" style="font-family: 'Lucida Grande', 'Open Sans', verdana, arial, sans-serif; font-size: 10px; fill: rgb(0, 0, 0); fill-opacity: 1; white-space: pre; opacity: 1;">0%</text></g><g class="ytick"><text text-anchor="end" x="54" y="3.5" style="font-family: 'Lucida Grande', 'Open Sans', verdana, arial, sans-serif; font-size: 10px; fill: rgb(0, 0, 0); fill-opacity: 1; white-space: pre; opacity: 1;" transform="translate(0,390.64)">1%</text></g><g class="ytick"><text text-anchor="end" x="54" y="3.5" style="font-family: 'Lucida Grande', 'Open Sans', verdana, arial, sans-serif; font-size: 10px; fill: rgb(0, 0, 0); fill-opacity: 1; white-space: pre; opacity: 1;" transform="translate(0,346.29)">2%</text></g><g class="ytick"><text text-anchor="end" x="54" y="3.5" style="font-family: 'Lucida Grande', 'Open Sans', verdana, arial, sans-serif; font-size: 10px; fill: rgb(0, 0, 0); fill-opacity: 1; white-space: pre; opacity: 1;" transform="translate(0,301.93)">3%</text></g><g class="ytick"><text text-anchor="end" x="54" y="3.5" style="font-family: 'Lucida Grande', 'Open Sans', verdana, arial, sans-serif; font-size: 10px; fill: rgb(0, 0, 0); fill-opacity: 1; white-space: pre; opacity: 1;" transform="translate(0,257.57)">4%</text></g><g class="ytick"><text text-anchor="end" x="54" y="3.5" style="font-family: 'Lucida Grande', 'Open Sans', verdana, arial, sans-serif; font-size: 10px; fill: rgb(0, 0, 0); fill-opacity: 1; white-space: pre; opacity: 1;" transform="translate(0,213.22)">5%</text></g><g class="ytick"><text text-anchor="end" x="54" y="3.5" style="font-family: 'Lucida Grande', 'Open Sans', verdana, arial, sans-serif; font-size: 10px; fill: rgb(0, 0, 0); fill-opacity: 1; white-space: pre; opacity: 1;" transform="translate(0,168.86)">6%</text></g><g class="ytick"><text text-anchor="end" x="54" y="3.5" style="font-family: 'Lucida Grande', 'Open Sans', verdana, arial, sans-serif; font-size: 10px; fill: rgb(0, 0, 0); fill-opacity: 1; white-space: pre; opacity: 1;" transform="translate(0,124.5)">7%</text></g><g class="ytick"><text text-anchor="end" x="54" y="3.5" style="font-family: 'Lucida Grande', 'Open Sans', verdana, arial, sans-serif; font-size: 10px; fill: rgb(0, 0, 0); fill-opacity: 1; white-space: pre; opacity: 1;" transform="translate(0,80.14)">8%</text></g></g><g class="overaxes-above"/></g></g><g class="polarlayer"/><g class="smithlayer"/><g class="ternarylayer"/><g class="geolayer"/><g class="funnelarealayer"/><g class="pielayer"/><g class="iciclelayer"/><g class="treemaplayer"/><g class="sunburstlayer"/><g class="glimages"/><defs id="topdefs-842236"><g class="clips"/></defs><g class="layer-above"><g class="imagelayer"/><g class="shapelayer"/></g><g class="infolayer"><g class="g-gtitle"><text class="gtitle" x="550" y="25" text-anchor="middle" dy="0em" style="opacity: 1; font-family: 'Lucida Grande', 'Open Sans', verdana, arial, sans-serif; font-size: 20px; fill: rgb(42, 63, 95); fill-opacity: 1; white-space: pre;"><tspan class="line" dy="0em" x="550" y="25">FastQC: Per Sequence GC Content</tspan><tspan class="line" dy="1.3em" x="550" y="25">​<tspan style="font-size:70%" dy="-0.6em">Percentages, 10 samples</tspan><tspan dy="0.42em">​</tspan></tspan></text></g><g class="g-xtitle"><text class="xtitle" x="567" y="472.3" text-anchor="middle" style="opacity: 0.3; font-family: 'Lucida Grande', 'Open Sans', verdana, arial, sans-serif; font-size: 14px; fill: rgb(0, 0, 0); fill-opacity: 1; white-space: pre;">% GC</text></g><g class="g-ytitle"><text class="ytitle" transform="rotate(-90,23.725,242.5)" x="23.725" y="242.5" text-anchor="middle" style="opacity: 0.3; font-family: 'Lucida Grande', 'Open Sans', verdana, arial, sans-serif; font-size: 14px; fill: rgb(0, 0, 0); fill-opacity: 1; white-space: pre;">Percentage</text></g></g></svg>