<svg class="main-svg" xmlns="http://www.w3.org/2000/svg" xmlns:xlink="http://www.w3.org/1999/xlink" width="2200" height="1000" style="" viewBox="0 0 1100 500"><rect x="0" y="0" width="1100" height="500" style="fill: rgb(255, 255, 255); fill-opacity: 1;"/><defs id="defs-5cc85a"><g class="clips"><clipPath id="clip5cc85axyplot" class="plotclip"><rect width="1014" height="385"/></clipPath><clipPath class="axesclip" id="clip5cc85ax"><rect x="71" y="0" width="1014" height="500"/></clipPath><clipPath class="axesclip" id="clip5cc85ay"><rect x="0" y="50" width="1100" height="385"/></clipPath><clipPath class="axesclip" id="clip5cc85axy"><rect x="71" y="50" width="1014" height="385"/></clipPath></g><g class="gradients"/><g class="patterns"/></defs><g class="bglayer"/><g class="layer-below"><g class="imagelayer"/><g class="shapelayer"/></g><g class="cartesianlayer"><g class="subplot xy"><g class="layer-subplot"><g class="shapelayer"/><g class="imagelayer"/></g><g class="minor-gridlayer"><g class="x"/><g class="y"/></g><g class="gridlayer"><g class="x"><path class="xgrid crisp" transform="translate(199.44,0)" d="M0,50v385" style="stroke: rgb(0, 0, 0); stroke-opacity: 0.05; stroke-width: 1px;"/><path class="xgrid crisp" transform="translate(334.64,0)" d="M0,50v385" style="stroke: rgb(0, 0, 0); stroke-opacity: 0.05; stroke-width: 1px;"/><path class="xgrid crisp" transform="translate(469.84,0)" d="M0,50v385" style="stroke: rgb(0, 0, 0); stroke-opacity: 0.05; stroke-width: 1px;"/><path class="xgrid crisp" transform="translate(605.04,0)" d="M0,50v385" style="stroke: rgb(0, 0, 0); stroke-opacity: 0.05; stroke-width: 1px;"/><path class="xgrid crisp" transform="translate(740.24,0)" d="M0,50v385" style="stroke: rgb(0, 0, 0); stroke-opacity: 0.05; stroke-width: 1px;"/><path class="xgrid crisp" transform="translate(875.44,0)" d="M0,50v385" style="stroke: rgb(0, 0, 0); stroke-opacity: 0.05; stroke-width: 1px;"/><path class="xgrid crisp" transform="translate(1010.64,0)" d="M0,50v385" style="stroke: rgb(0, 0, 0); stroke-opacity: 0.05; stroke-width: 1px;"/></g><g class="y"><path class="ygrid crisp" transform="translate(0,358)" d="M71,0h1014" style="stroke: rgb(0, 0, 0); stroke-opacity: 0.05; stroke-width: 1px;"/><path class="ygrid crisp" transform="translate(0,281)" d="M71,0h1014" style="stroke: rgb(0, 0, 0); stroke-opacity: 0.05; stroke-width: 1px;"/><path class="ygrid crisp" transform="translate(0,204)" d="M71,0h1014" style="stroke: rgb(0, 0, 0); stroke-opacity: 0.05; stroke-width: 1px;"/><path class="ygrid crisp" transform="translate(0,127)" d="M71,0h1014" style="stroke: rgb(0, 0, 0); stroke-opacity: 0.05; stroke-width: 1px;"/></g></g><g class="zerolinelayer"><path class="yzl zl crisp" transform="translate(0,435)" d="M71,0h1014" style="stroke: rgb(0, 0, 0); stroke-opacity: 0.05; stroke-width: 2px;"/></g><g class="layer-between"><g class="shapelayer"/><g class="imagelayer"/></g><path class="xlines-below"/><path class="ylines-below"/><g class="overlines-below"/><g class="xaxislayer-below"/><g class="yaxislayer-below"/><g class="overaxes-below"/><g class="overplot"><g class="xy" transform="translate(71,50)" clip-path="url(#clip5cc85axyplot)"><g class="scatterlayer mlayer"><g class="trace scatter trace68f1d1" style="stroke-miterlimit: 2; opacity: 1;"><g class="fills"/><g class="errorbars"/><g class="lines"><path class="js-line" d="M0,111.9L6.76,220.53L13.52,212.91L20.28,202.59L27.04,284.26L33.8,213.71L40.56,225.3L47.32,218.31L54.08,147.75L60.84,247.32L67.6,181.64L74.36,215.04L81.12,194.55L87.88,189.66L94.64,206.61L101.4,224.54L108.16,225.85L114.92,226.3L121.68,223.53L128.44,215.74L135.2,214.53L141.96,220.74L148.72,219.94L162.24,214.29L169,215.94L175.76,215.7L182.52,220.46L189.28,217.58L196.04,216.56L202.8,210.87L209.56,215.78L216.32,218.89L223.08,216L229.84,214.57L236.6,217.93L250.12,218.4L256.88,221.16L263.64,213.39L270.4,216.5L283.92,218.18L290.68,216.62L297.44,215.13L304.2,210.81L310.96,220.16L317.72,212.24L324.48,219.7L331.24,216.08L338,208.65L344.76,214.71L351.52,215.98L358.28,223.39L365.04,218.9L371.8,215.86L378.56,213.44L385.32,215.25L392.08,213.58L398.84,216.8L405.6,212.7L412.36,211.67L419.12,213.4L425.88,213.8L432.64,217.78L439.4,214.49L446.16,216.13L452.92,213.86L459.68,210.05L466.44,216.22L473.2,214.24L479.96,218.43L486.72,213.07L493.48,213.8L500.24,211.31L507,211.87L513.76,216.97L520.52,215.19L527.28,213.79L534.04,214.81L547.56,210.8L554.32,213.03L561.08,219.25L567.84,218.2L574.6,221.17L581.36,214.24L588.12,218.08L594.88,211.82L601.64,215.18L608.4,219.89L615.16,214.69L621.92,211.67L628.68,215.06L635.44,215.3L642.2,217.97L648.96,214.95L655.72,215.06L662.48,219.03L669.24,211.47L676,218.65L682.76,220.29L689.52,215.96L696.28,213.22L703.04,212.72L709.8,219.85L716.56,222.22L723.32,215.12L730.08,218.53L736.84,220.22L743.6,211.93L750.36,217.18L757.12,215.8L763.88,211.5L770.64,217.23L777.4,220.77L784.16,218.97L790.92,216.48L797.68,214.89L804.44,220.64L811.2,216.83L817.96,219.79L824.72,214.96L831.48,217.98L838.24,216.91L845,218.43L851.76,218.9L858.52,218.21L865.28,215.46L872.04,210.75L878.8,216.53L885.56,218.82L892.32,217.99L899.08,216.3L905.84,211.32L912.6,213.24L919.36,218.29L926.12,215.56L932.88,214.15L939.64,217.81L946.4,217.63L953.16,219.27L959.92,210.96L966.68,217.3L973.44,217.9L980.2,220.35L986.96,217.21L993.72,212.92L1000.48,223.18L1007.24,228.07L1014,274.96" style="vector-effect: none; fill: none; stroke: rgb(124, 181, 236); stroke-opacity: 1; stroke-width: 2px; opacity: 1;"/></g><g class="points"/><g class="text"/></g><g class="trace scatter trace5d5630" style="stroke-miterlimit: 2; opacity: 1;"><g class="fills"/><g class="errorbars"/><g class="lines"><path class="js-line" d="M0,126.23L6.76,233.73L13.52,227.84L20.28,213.84L27.04,293.32L33.8,224.27L40.56,226.39L47.32,227.44L54.08,149.25L60.84,259.55L67.6,195.25L74.36,236.26L81.12,205.18L87.88,202.11L94.64,224.22L101.4,236.36L108.16,242.61L114.92,238.97L121.68,238.36L128.44,228.96L135.2,223.74L148.72,231.63L155.48,233.29L162.24,230.89L169,235.08L175.76,229.11L182.52,233.6L196.04,229.93L202.8,230.37L209.56,228.04L216.32,228.44L223.08,232.12L229.84,237.77L236.6,229.08L243.36,231.81L250.12,229.85L256.88,232.41L263.64,233.11L270.4,227.87L277.16,232.55L283.92,228.16L290.68,231.91L297.44,228.93L304.2,228.84L310.96,233.18L317.72,225.26L324.48,229.99L331.24,229.16L338,227.28L344.76,232.75L351.52,226.4L358.28,232.78L365.04,231.56L371.8,226.12L378.56,229.63L385.32,224.51L392.08,231.89L405.6,224.66L412.36,230.08L425.88,226.82L432.64,228.76L439.4,232.71L446.16,231.03L452.92,230.21L459.68,226.79L466.44,225.86L473.2,228.95L479.96,233.39L486.72,228.56L493.48,227.6L500.24,230.27L507,227.48L513.76,230.64L520.52,225.67L527.28,233.72L534.04,222.76L540.8,230.34L547.56,225.1L554.32,228.6L567.84,230.57L574.6,232.94L581.36,226.24L588.12,228.83L594.88,229.09L601.64,228.2L608.4,223.93L615.16,223.66L621.92,229.36L628.68,231.87L635.44,230.75L642.2,226.41L648.96,231.62L655.72,227.82L662.48,221.73L669.24,228.47L676,224.76L682.76,231.21L689.52,227.88L696.28,228.81L703.04,234.95L709.8,225.12L716.56,228.2L723.32,227.78L730.08,227.51L736.84,228.98L743.6,223.91L750.36,225.5L757.12,226.21L763.88,231.66L770.64,230.61L777.4,232.27L790.92,228.21L797.68,229.11L804.44,228.37L811.2,225.64L817.96,223.16L824.72,227.73L831.48,221.35L838.24,225.47L845,229.89L851.76,227.04L858.52,229.56L865.28,222.82L872.04,229.58L878.8,228.4L892.32,230.67L899.08,219.48L905.84,231.54L912.6,217.15L919.36,225.37L926.12,224.36L932.88,226.89L939.64,226.49L946.4,222.49L953.16,230.17L959.92,226.15L966.68,230.68L980.2,232.05L986.96,226.36L993.72,223.41L1000.48,226.44L1007.24,241.76L1014,281.13" style="vector-effect: none; fill: none; stroke: rgb(67, 67, 72); stroke-opacity: 1; stroke-width: 2px; opacity: 1;"/></g><g class="points"/><g class="text"/></g><g class="trace scatter trace382ef3" style="stroke-miterlimit: 2; opacity: 1;"><g class="fills"/><g class="errorbars"/><g class="lines"><path class="js-line" d="M0,76.36L6.76,145.93L13.52,150.49L20.28,147.11L27.04,207.18L33.8,151.28L40.56,139.4L47.32,147.6L54.08,88.78L60.84,164.94L67.6,120.47L74.36,147.8L81.12,118.32L87.88,112.31L94.64,126.58L101.4,132.35L108.16,139.66L114.92,139.78L121.68,136.3L128.44,134.37L135.2,136.27L141.96,132.23L148.72,134.65L155.48,137.99L162.24,132.17L169,134.72L175.76,133.39L182.52,128.89L189.28,134.47L196.04,132.68L202.8,133.49L209.56,133.9L216.32,129.82L223.08,130.5L229.84,135.44L236.6,134.77L243.36,130.58L256.88,134.03L263.64,131.1L270.4,134.87L277.16,132.01L283.92,130.69L290.68,131.54L297.44,133.75L304.2,132.45L310.96,134.93L317.72,132.89L324.48,129.52L331.24,132.85L338,133.79L344.76,129.91L351.52,137.52L358.28,133.06L365.04,130.38L371.8,131.65L378.56,133.11L385.32,133.23L398.84,135.08L405.6,131.6L412.36,135.5L419.12,135.17L425.88,132.57L432.64,133.3L439.4,134.4L446.16,130.08L452.92,135.09L459.68,134.83L466.44,131.9L473.2,134.03L479.96,135.09L486.72,131.59L493.48,132.82L500.24,135.13L507,133.67L513.76,135.74L520.52,134.22L527.28,130.33L534.04,134.09L540.8,131.42L547.56,133.89L554.32,133.62L561.08,135.67L567.84,130.42L574.6,135.51L581.36,131.24L588.12,130.16L594.88,132.2L601.64,135.92L608.4,128.37L615.16,131.35L621.92,132.95L628.68,133.54L635.44,135.26L642.2,137L648.96,129.73L655.72,134.66L662.48,138.65L669.24,134.26L676,135.17L682.76,131.13L689.52,130.87L703.04,135.75L709.8,133.26L716.56,134.62L723.32,130.05L730.08,129.3L736.84,135.24L743.6,133.84L750.36,130.58L757.12,132.48L763.88,128.93L770.64,130.1L777.4,135.12L790.92,133.45L797.68,131.35L804.44,133.18L811.2,131.46L817.96,134.68L824.72,131.96L831.48,128.72L838.24,135.58L845,137.6L851.76,130.99L865.28,132.55L872.04,131.04L878.8,135.79L885.56,135.56L892.32,128.95L899.08,131.67L905.84,129.75L912.6,133.45L919.36,133.94L926.12,135.27L932.88,128.56L939.64,132.77L946.4,132.94L953.16,127.82L959.92,134.4L966.68,130.93L973.44,128.91L980.2,134.84L986.96,131.84L993.72,133.45L1000.48,134.61L1007.24,127.48L1014,181.03" style="vector-effect: none; fill: none; stroke: rgb(144, 237, 125); stroke-opacity: 1; stroke-width: 2px; opacity: 1;"/></g><g class="points"/><g class="text"/></g><g class="trace scatter trace8ac319" style="stroke-miterlimit: 2; opacity: 1;"><g class="fills"/><g class="errorbars"/><g class="lines"><path class="js-line" d="M0,159.82L6.76,233.36L13.52,238.15L20.28,252.34L27.04,304.58L33.8,251.64L40.56,234.5L47.32,229.71L54.08,161.2L60.84,259.7L67.6,210.51L74.36,236.47L81.12,214.48L87.88,214.3L94.64,229.8L101.4,239.41L108.16,243.05L114.92,243.67L121.68,240.98L128.44,238.02L135.2,237.2L141.96,236.51L148.72,237.13L155.48,239.5L162.24,238.09L169,238.89L175.76,238.88L182.52,237.49L189.28,237.93L196.04,239.03L202.8,236.11L209.56,235.87L216.32,236.97L223.08,236.52L229.84,237.69L243.36,238.56L250.12,237.91L256.88,238.01L263.64,236.74L270.4,236.67L277.16,237.65L283.92,237.13L290.68,235.73L297.44,238.11L304.2,236.11L310.96,237.06L317.72,238.9L324.48,237.95L331.24,237.79L338,238.32L344.76,236.83L351.52,236.54L358.28,238.15L365.04,236.09L371.8,237.17L378.56,237.45L385.32,236.89L398.84,238.11L405.6,237.84L419.12,237.6L425.88,237.46L432.64,236.65L439.4,237.88L446.16,236.6L452.92,237.07L459.68,237.99L466.44,237.11L473.2,237.08L479.96,238.54L493.48,236.94L500.24,237.42L507,236.44L513.76,237.38L520.52,236.64L527.28,236.68L540.8,237.76L547.56,237.26L561.08,238.02L567.84,236.99L574.6,236.89L581.36,237.83L588.12,236.18L594.88,236.64L601.64,237.36L608.4,237.07L621.92,238.22L628.68,237.03L648.96,238.11L655.72,237.65L662.48,237.75L669.24,236.05L682.76,237.96L689.52,237.38L696.28,237.5L703.04,238.38L730.08,236.54L736.84,236.37L743.6,237.25L750.36,236.86L763.88,237.1L770.64,237.94L777.4,237.52L784.16,238.12L790.92,236.85L797.68,237.41L811.2,237.55L817.96,236.87L824.72,237.38L831.48,237.08L858.52,237.77L865.28,237.79L885.56,237.17L892.32,237.27L905.84,238L912.6,237.19L926.12,238.18L932.88,237L946.4,237.61L953.16,236.38L959.92,236.62L966.68,237.96L973.44,236.88L980.2,237.56L986.96,237.84L993.72,237.22L1000.48,234.97" style="vector-effect: none; fill: none; stroke: rgb(247, 163, 92); stroke-opacity: 1; stroke-width: 2px; opacity: 1;"/></g><g class="points"/><g class="text"/></g><g class="trace scatter trace434b4c" style="stroke-miterlimit: 2; opacity: 1;"><g class="fills"/><g class="errorbars"/><g class="lines"><path class="js-line" d="M0,144.3L6.76,236.43L13.52,246.01L20.28,243.85L27.04,284.72L33.8,244.71L40.56,240.57L47.32,233.94L54.08,166.03L60.84,258.14L67.6,218.03L74.36,242.7L81.12,217.91L87.88,218.25L94.64,231.46L101.4,236.73L108.16,240.4L114.92,242.74L121.68,239.74L128.44,237.5L135.2,238.76L141.96,236.3L148.72,236.78L155.48,238.63L162.24,237.5L169,237.31L175.76,238.56L182.52,235.9L189.28,238.28L196.04,238.35L202.8,236.34L216.32,237.64L223.08,237.17L229.84,237.37L236.6,239.2L243.36,236.83L250.12,236.96L256.88,239.07L263.64,237.88L270.4,237.42L277.16,238.07L283.92,237.95L290.68,236.48L297.44,238.04L304.2,236.75L310.96,237.21L317.72,239.53L324.48,237.27L331.24,236.73L338,239.06L344.76,237.22L351.52,235.76L358.28,238.91L371.8,236.32L378.56,239.16L385.32,237.24L392.08,238.5L398.84,240.04L405.6,237.74L419.12,238.72L425.88,237.07L432.64,236.59L439.4,237.12L446.16,237.69L452.92,236.69L459.68,238.69L466.44,237.59L473.2,238.13L479.96,239.48L486.72,238.18L493.48,237.97L500.24,239.76L507,237.89L513.76,237.08L520.52,238.62L527.28,237.21L534.04,236.85L540.8,238.86L547.56,237.98L554.32,238.08L561.08,239.1L567.84,236.87L574.6,238.02L581.36,238.78L588.12,237.52L594.88,236.93L601.64,237.96L608.4,237.1L615.16,237.16L621.92,239.81L628.68,237.76L642.2,239.23L648.96,237.15L655.72,237.67L662.48,239.13L669.24,236.86L676,236.87L682.76,239.4L689.52,237.71L703.04,239.38L709.8,236.56L723.32,238.62L730.08,237.4L743.6,239.51L750.36,237.63L757.12,236.9L763.88,239.81L777.4,238.09L784.16,240.18L790.92,237.11L797.68,238.19L804.44,239.11L811.2,236.69L817.96,238.82L824.72,239.13L831.48,236.23L838.24,237.46L845,239.22L851.76,239.22L865.28,238.3L872.04,235.85L878.8,238.9L885.56,239.45L892.32,236.98L899.08,236.61L905.84,238.25L912.6,237.21L919.36,237.35L926.12,239.6L939.64,236.86L946.4,239.53L953.16,236.74L959.92,238.23L980.2,238.1L986.96,239.38L993.72,237.98L1000.48,235.23" style="vector-effect: none; fill: none; stroke: rgb(128, 133, 233); stroke-opacity: 1; stroke-width: 2px; opacity: 1;"/></g><g class="points"/><g class="text"/></g></g></g></g><path class="xlines-above crisp" d="M0,0" style="fill: none;"/><path class="ylines-above crisp" d="M0,0" style="fill: none;"/><g class="overlines-above"/><g class="xaxislayer-above"><g class="xtick"><text text-anchor="middle" x="0" y="451" transform="translate(199.44,0)" style="font-family: 'Lucida Grande', 'Open Sans', verdana, arial, sans-serif; font-size: 10px; fill: rgb(0, 0, 0); fill-opacity: 1; white-space: pre; opacity: 1;">20</text></g><g class="xtick"><text text-anchor="middle" x="0" y="451" style="font-family: 'Lucida Grande', 'Open Sans', verdana, arial, sans-serif; font-size: 10px; fill: rgb(0, 0, 0); fill-opacity: 1; white-space: pre; opacity: 1;" transform="translate(334.64,0)">40</text></g><g class="xtick"><text text-anchor="middle" x="0" y="451" style="font-family: 'Lucida Grande', 'Open Sans', verdana, arial, sans-serif; font-size: 10px; fill: rgb(0, 0, 0); fill-opacity: 1; white-space: pre; opacity: 1;" transform="translate(469.84,0)">60</text></g><g class="xtick"><text text-anchor="middle" x="0" y="451" style="font-family: 'Lucida Grande', 'Open Sans', verdana, arial, sans-serif; font-size: 10px; fill: rgb(0, 0, 0); fill-opacity: 1; white-space: pre; opacity: 1;" transform="translate(605.04,0)">80</text></g><g class="xtick"><text text-anchor="middle" x="0" y="451" style="font-family: 'Lucida Grande', 'Open Sans', verdana, arial, sans-serif; font-size: 10px; fill: rgb(0, 0, 0); fill-opacity: 1; white-space: pre; opacity: 1;" transform="translate(740.24,0)">100</text></g><g class="xtick"><text text-anchor="middle" x="0" y="451" style="font-family: 'Lucida Grande', 'Open Sans', verdana, arial, sans-serif; font-size: 10px; fill: rgb(0, 0, 0); fill-opacity: 1; white-space: pre; opacity: 1;" transform="translate(875.44,0)">120</text></g><g class="xtick"><text text-anchor="middle" x="0" y="451" style="font-family: 'Lucida Grande', 'Open Sans', verdana, arial, sans-serif; font-size: 10px; fill: rgb(0, 0, 0); fill-opacity: 1; white-space: pre; opacity: 1;" transform="translate(1010.64,0)">140</text></g></g><g class="yaxislayer-above"><g class="ytick"><text text-anchor="end" x="65" y="3.5" transform="translate(0,435)" style="font-family: 'Lucida Grande', 'Open Sans', verdana, arial, sans-serif; font-size: 10px; fill: rgb(0, 0, 0); fill-opacity: 1; white-space: pre; opacity: 1;">0%</text></g><g class="ytick"><text text-anchor="end" x="65" y="3.5" style="font-family: 'Lucida Grande', 'Open Sans', verdana, arial, sans-serif; font-size: 10px; fill: rgb(0, 0, 0); fill-opacity: 1; white-space: pre; opacity: 1;" transform="translate(0,358)">20%</text></g><g class="ytick"><text text-anchor="end" x="65" y="3.5" style="font-family: 'Lucida Grande', 'Open Sans', verdana, arial, sans-serif; font-size: 10px; fill: rgb(0, 0, 0); fill-opacity: 1; white-space: pre; opacity: 1;" transform="translate(0,281)">40%</text></g><g class="ytick"><text text-anchor="end" x="65" y="3.5" style="font-family: 'Lucida Grande', 'Open Sans', verdana, arial, sans-serif; font-size: 10px; fill: rgb(0, 0, 0); fill-opacity: 1; white-space: pre; opacity: 1;" transform="translate(0,204)">60%</text></g><g class="ytick"><text text-anchor="end" x="65" y="3.5" style="font-family: 'Lucida Grande', 'Open Sans', verdana, arial, sans-serif; font-size: 10px; fill: rgb(0, 0, 0); fill-opacity: 1; white-space: pre; opacity: 1;" transform="translate(0,127)">80%</text></g><g class="ytick"><text text-anchor="end" x="65" y="3.5" style="font-family: 'Lucida Grande', 'Open Sans', verdana, arial, sans-serif; font-size: 10px; fill: rgb(0, 0, 0); fill-opacity: 1; white-space: pre; opacity: 1;" transform="translate(0,50)">100%</text></g></g><g class="overaxes-above"/></g></g><g class="polarlayer"/><g class="smithlayer"/><g class="ternarylayer"/><g class="geolayer"/><g class="funnelarealayer"/><g class="pielayer"/><g class="iciclelayer"/><g class="treemaplayer"/><g class="sunburstlayer"/><g class="glimages"/><defs id="topdefs-5cc85a"><g class="clips"/></defs><g class="layer-above"><g class="imagelayer"/><g class="shapelayer"/></g><g class="infolayer"><g class="g-gtitle"><text class="gtitle" x="550" y="25" text-anchor="middle" dy="0em" style="opacity: 1; font-family: 'Lucida Grande', 'Open Sans', verdana, arial, sans-serif; font-size: 20px; fill: rgb(42, 63, 95); fill-opacity: 1; white-space: pre;"><tspan class="line" dy="0em" x="550" y="25">Fastp: Read GC Content</tspan><tspan class="line" dy="1.3em" x="550" y="25">​<tspan style="font-size:70%" dy="-0.6em">Read 2: After filtering, 5 samples</tspan><tspan dy="0.42em">​</tspan></tspan></text></g><g class="g-xtitle"><text class="xtitle" x="578" y="472.3" text-anchor="middle" style="opacity: 0.3; font-family: 'Lucida Grande', 'Open Sans', verdana, arial, sans-serif; font-size: 14px; fill: rgb(0, 0, 0); fill-opacity: 1; white-space: pre;">Read Position</text></g><g class="g-ytitle"><text class="ytitle" transform="rotate(-90,22.00625,242.5)" x="22.00625" y="242.5" text-anchor="middle" style="opacity: 0.3; font-family: 'Lucida Grande', 'Open Sans', verdana, arial, sans-serif; font-size: 14px; fill: rgb(0, 0, 0); fill-opacity: 1; white-space: pre;">R2 After filtering: Base Content Percent</text></g></g></svg>