<svg class="main-svg" xmlns="http://www.w3.org/2000/svg" xmlns:xlink="http://www.w3.org/1999/xlink" width="2200" height="1000" style="" viewBox="0 0 1100 500"><rect x="0" y="0" width="1100" height="500" style="fill: rgb(255, 255, 255); fill-opacity: 1;"/><defs id="defs-3c7048"><g class="clips"><clipPath id="clip3c7048xyplot" class="plotclip"><rect width="1025" height="385"/></clipPath><clipPath class="axesclip" id="clip3c7048x"><rect x="60" y="0" width="1025" height="500"/></clipPath><clipPath class="axesclip" id="clip3c7048y"><rect x="0" y="50" width="1100" height="385"/></clipPath><clipPath class="axesclip" id="clip3c7048xy"><rect x="60" y="50" width="1025" height="385"/></clipPath></g><g class="gradients"/><g class="patterns"/></defs><g class="bglayer"/><g class="layer-below"><g class="imagelayer"/><g class="shapelayer"/></g><g class="cartesianlayer"><g class="subplot xy"><g class="layer-subplot"><g class="shapelayer"/><g class="imagelayer"/></g><g class="minor-gridlayer"><g class="x"/><g class="y"/></g><g class="gridlayer"><g class="x"><path class="xgrid crisp" transform="translate(189.83,0)" d="M0,50v385" style="stroke: rgb(0, 0, 0); stroke-opacity: 0.05; stroke-width: 1px;"/><path class="xgrid crisp" transform="translate(326.5,0)" d="M0,50v385" style="stroke: rgb(0, 0, 0); stroke-opacity: 0.05; stroke-width: 1px;"/><path class="xgrid crisp" transform="translate(463.17,0)" d="M0,50v385" style="stroke: rgb(0, 0, 0); stroke-opacity: 0.05; stroke-width: 1px;"/><path class="xgrid crisp" transform="translate(599.83,0)" d="M0,50v385" style="stroke: rgb(0, 0, 0); stroke-opacity: 0.05; stroke-width: 1px;"/><path class="xgrid crisp" transform="translate(736.5,0)" d="M0,50v385" style="stroke: rgb(0, 0, 0); stroke-opacity: 0.05; stroke-width: 1px;"/><path class="xgrid crisp" transform="translate(873.17,0)" d="M0,50v385" style="stroke: rgb(0, 0, 0); stroke-opacity: 0.05; stroke-width: 1px;"/><path class="xgrid crisp" transform="translate(1009.83,0)" d="M0,50v385" style="stroke: rgb(0, 0, 0); stroke-opacity: 0.05; stroke-width: 1px;"/></g><g class="y"><path class="ygrid crisp" transform="translate(0,358)" d="M60,0h1025" style="stroke: rgb(0, 0, 0); stroke-opacity: 0.05; stroke-width: 1px;"/><path class="ygrid crisp" transform="translate(0,281)" d="M60,0h1025" style="stroke: rgb(0, 0, 0); stroke-opacity: 0.05; stroke-width: 1px;"/><path class="ygrid crisp" transform="translate(0,204)" d="M60,0h1025" style="stroke: rgb(0, 0, 0); stroke-opacity: 0.05; stroke-width: 1px;"/><path class="ygrid crisp" transform="translate(0,127)" d="M60,0h1025" style="stroke: rgb(0, 0, 0); stroke-opacity: 0.05; stroke-width: 1px;"/></g></g><g class="zerolinelayer"><path class="yzl zl crisp" transform="translate(0,435)" d="M60,0h1025" style="stroke: rgb(0, 0, 0); stroke-opacity: 0.05; stroke-width: 2px;"/></g><g class="layer-between"><g class="shapelayer"/><g class="imagelayer"/></g><path class="xlines-below"/><path class="ylines-below"/><g class="overlines-below"/><g class="xaxislayer-below"/><g class="yaxislayer-below"/><g class="overaxes-below"/><g class="overplot"><g class="xy" transform="translate(60,50)" clip-path="url(#clip3c7048xyplot)"><g class="scatterlayer mlayer"><g class="trace scatter trace2da639" style="stroke-miterlimit: 2; opacity: 1;"><g class="fills"/><g class="errorbars"/><g class="lines"><path class="js-line" d="M0,362.26L13.67,362.26L20.5,360.74L27.33,362.26L34.17,362.26L102.5,362.26L109.33,361.3L116.17,361.4L123,362.26L129.83,362.26L136.67,360.44L143.5,362.26L150.33,362.26L157.17,360.54L164,362.26L232.33,362.26L239.17,385L273.33,385L280.17,383.68L287,385L293.83,385L307.5,385L314.33,384.13L321.17,385L328,385L389.5,385L396.33,383.87L416.83,385L423.67,385L437.33,385L444.17,383.81L451,385L457.83,384.32L464.67,384.06L471.5,385L635.5,385L642.33,382.8L649.17,385L656,384.57L669.67,385L676.5,385L758.5,385L765.33,384.06L785.83,385L792.67,384.33L806.33,385L813.17,385L847.33,385L854.17,384.03L861,383.85L867.83,385L915.67,385L922.5,382.3L929.33,385L936.17,385L1025,384.91" style="vector-effect: none; fill: none; stroke: rgb(124, 181, 236); stroke-opacity: 1; stroke-width: 2px; opacity: 1;"/></g><g class="points"/><g class="text"/></g><g class="trace scatter trace207436" style="stroke-miterlimit: 2; opacity: 1;"><g class="fills"/><g class="errorbars"/><g class="lines"><path class="js-line" d="M0,349.9L6.83,348.74L13.67,349.97L20.5,349.97L27.33,346.57L41,349.54L47.83,349.68L54.67,348.23L61.5,349.47L68.33,347.22L75.17,348.89L82,349.54L88.83,346.2L95.67,349.54L102.5,349.97L123,349.54L129.83,348.16L136.67,348.96L143.5,348.02L150.33,348.74L157.17,347L170.83,349.76L177.67,348.02L184.5,348.45L191.33,349.68L205,347.65L211.83,348.96L218.67,348.96L225.5,343.52L232.33,349.54L239.17,384.71L246,384.93L252.83,383.32L266.5,382.44L273.33,384.2L287,385L293.83,383.6L300.67,381.98L307.5,384.78L314.33,383.97L321.17,381.75L328,384.33L334.83,382.41L341.67,383.96L348.5,381.58L355.33,383.51L362.17,384.25L369,384.93L375.83,384.25L389.5,383.35L396.33,384.55L410,383.72L416.83,384.32L423.67,383.41L430.5,383.4L437.33,384.39L444.17,384.08L457.83,383.54L464.67,385L471.5,381.77L478.33,382.07L485.17,383.76L492,383.92L498.83,383.6L505.67,381.03L512.5,383.13L519.33,381.4L526.17,381.39L533,385L546.67,383.5L553.5,381.6L560.33,385L567.17,384.92L574,383.64L580.83,385L587.67,382.35L594.5,385L601.33,385L608.17,383.7L615,384.59L621.83,383.86L628.67,384.76L635.5,384.18L649.17,385L656,382.76L662.83,385L669.67,384.25L676.5,383.16L683.33,384.33L690.17,380.46L697,382.39L703.83,384.92L710.67,383.39L717.5,385L724.33,383.54L744.83,381.97L751.67,384.57L758.5,383.61L765.33,384.3L772.17,383.24L779,383.85L785.83,383.23L792.67,384.82L799.5,379.8L806.33,384.46L820,385L826.83,381.36L833.67,385L840.5,385L847.33,382.51L854.17,385L861,383.04L867.83,384.62L881.5,384.53L888.33,382.52L895.17,384.52L902,385L915.67,385L922.5,383.43L929.33,385L936.17,382.91L943,384.3L949.83,384.7L970.33,385L977.17,384.59L990.83,385L997.67,385L1004.5,385L1011.33,384.24L1025,385" style="vector-effect: none; fill: none; stroke: rgb(67, 67, 72); stroke-opacity: 1; stroke-width: 2px; opacity: 1;"/></g><g class="points"/><g class="text"/></g><g class="trace scatter tracecda919" style="stroke-miterlimit: 2; opacity: 1;"><g class="fills"/><g class="errorbars"/><g class="lines"><path class="js-line" d="M0,325.05L6.83,323.73L13.67,324.89L20.5,325.27L27.33,323.62L34.17,321.26L41,325.31L61.5,325.23L68.33,325.2L75.17,324.61L82,321.66L88.83,325.13L95.67,324.76L102.5,325L109.33,324.09L116.17,323.67L123,324.91L136.67,324.96L143.5,324.68L157.17,325.31L164,323.35L170.83,324.71L177.67,325.08L184.5,323.33L191.33,323.89L205,325.29L211.83,324.75L232.33,324.29L239.17,384.95L246,382.81L252.83,384.39L259.67,384.85L266.5,383.98L273.33,383.8L280.17,384.84L314.33,384.67L321.17,384.85L334.83,383.9L341.67,384.88L355.33,383.82L362.17,384.46L375.83,384.57L382.67,383.85L389.5,383.49L396.33,384.59L416.83,383.9L423.67,384.9L444.17,384.79L451,383.89L457.83,383.59L464.67,384.57L471.5,383.04L478.33,384.77L505.67,384.64L512.5,384.4L539.83,384.28L546.67,385L553.5,382.35L560.33,384.23L567.17,384.29L574,383.46L580.83,384.33L587.67,382.54L594.5,383.9L601.33,383.73L608.17,384.17L615,383.04L621.83,384.88L628.67,383.87L642.33,384.23L649.17,383.89L656,384.18L662.83,383.4L669.67,384.56L676.5,384.2L683.33,382.82L690.17,384.04L710.67,383.57L717.5,383.8L724.33,381.7L731.17,382.36L738,383.35L744.83,381.84L758.5,384.97L765.33,383.12L772.17,382.51L779,383.76L785.83,383.18L792.67,383.9L799.5,382.03L806.33,383.39L813.17,383.92L820,382.38L840.5,384.66L847.33,383.59L854.17,384.07L861,383.29L867.83,385L874.67,384.16L881.5,382.4L888.33,384.95L895.17,383.87L902,385L936.17,384.24L943,385L970.33,384.87L977.17,384.93L990.83,384.02L997.67,381.3L1004.5,383.82L1011.33,385L1025,384.67" style="vector-effect: none; fill: none; stroke: rgb(144, 237, 125); stroke-opacity: 1; stroke-width: 2px; opacity: 1;"/></g><g class="points"/><g class="text"/></g><g class="trace scatter trace849a9c" style="stroke-miterlimit: 2; opacity: 1;"><g class="fills"/><g class="errorbars"/><g class="lines"><path class="js-line" d="M0,384.89L13.67,384.73L20.5,384.41L34.17,383.74L41,384.57L54.67,383.83L61.5,384.75L75.17,384.06L82,384.98L88.83,384.86L95.67,383.71L102.5,384.11L109.33,383.48L116.17,384.43L123,383.97L129.83,384.02L136.67,383.17L143.5,383.95L150.33,383.76L164,383.17L170.83,383.88L177.67,384.31L184.5,383.87L191.33,384.24L198.17,383.81L205,384.29L211.83,383.83L218.67,382.98L225.5,383.53L232.33,383.16L239.17,384.06L252.83,384.41L259.67,384.4L266.5,384.65L273.33,383.99L287,383.92L293.83,383.92L300.67,383.49L307.5,384.63L314.33,384.02L321.17,384.24L328,383.65L334.83,384.84L348.5,383.79L355.33,384.08L369,384.43L375.83,383.44L382.67,383.44L389.5,384.65L396.33,383.17L403.17,384.49L423.67,383.48L430.5,383.99L498.83,384.15L505.67,383.48L519.33,384.45L526.17,383.42L533,383.26L539.83,383.9L546.67,384.22L553.5,383.65L567.17,384.63L574,382.5L580.83,384.26L587.67,383.81L621.83,384.08L628.67,383.44L635.5,382.8L642.33,384.57L669.67,384.77L676.5,383.69L683.33,384.93L690.17,384.57L724.33,384.84L731.17,384.84L738,385L744.83,384.34L758.5,385L765.33,384.91L854.17,384.86L861,383.95L867.83,385L874.67,384.54L895.17,383.21L902,384.73L922.5,383.4L929.33,383.9L956.67,383.99L963.5,383.9L984,383.26L990.83,382.59L1004.5,382.45L1011.33,383.79" style="vector-effect: none; fill: none; stroke: rgb(247, 163, 92); stroke-opacity: 1; stroke-width: 2px; opacity: 1;"/></g><g class="points"/><g class="text"/></g><g class="trace scatter tracea47521" style="stroke-miterlimit: 2; opacity: 1;"><g class="fills"/><g class="errorbars"/><g class="lines"><path class="js-line" d="M0,385L13.67,384.32L20.5,385L41,383.98L47.83,384.93L54.67,384.32L61.5,385L198.17,384.46L205,384.12L211.83,385L218.67,385L232.33,384.86L239.17,385L259.67,384.93L266.5,384.93L314.33,384.59L321.17,385L341.67,383.78L348.5,384.8L389.5,384.8L396.33,383.24L403.17,384.86L410,384.8L423.67,384.93L430.5,384.8L471.5,384.73L478.33,384.32L492,384.53L498.83,383.91L512.5,384.66L519.33,384.53L553.5,384.39L560.33,382.96L567.17,384.53L574,384.32L587.67,383.58L594.5,384.32L615,383.91L621.83,383.98L628.67,383.3L635.5,384.32L656,383.3L662.83,383.98L676.5,383.1L683.33,383.64L690.17,383.3L697,381.88L703.83,383.91L710.67,383.51L717.5,383.98L724.33,383.58L731.17,383.91L738,382.63L744.83,384.12L751.67,383.85L765.33,383.51L772.17,384.19L806.33,383.64L813.17,384.53L826.83,383.98L833.67,383.85L840.5,384.59L847.33,383.85L895.17,384.19L902,383.91L908.83,384.32L915.67,383.91L936.17,383.91L943,383.37L949.83,383.71L956.67,383.1L963.5,383.91L970.33,383.51L977.17,384.32L984,384.05L990.83,384.39L997.67,382.76L1004.5,383.98L1011.33,384.12" style="vector-effect: none; fill: none; stroke: rgb(128, 133, 233); stroke-opacity: 1; stroke-width: 2px; opacity: 1;"/></g><g class="points"/><g class="text"/></g></g></g></g><path class="xlines-above crisp" d="M0,0" style="fill: none;"/><path class="ylines-above crisp" d="M0,0" style="fill: none;"/><g class="overlines-above"/><g class="xaxislayer-above"><g class="xtick"><text text-anchor="middle" x="0" y="451" transform="translate(189.83,0)" style="font-family: 'Lucida Grande', 'Open Sans', verdana, arial, sans-serif; font-size: 10px; fill: rgb(0, 0, 0); fill-opacity: 1; white-space: pre; opacity: 1;">20</text></g><g class="xtick"><text text-anchor="middle" x="0" y="451" style="font-family: 'Lucida Grande', 'Open Sans', verdana, arial, sans-serif; font-size: 10px; fill: rgb(0, 0, 0); fill-opacity: 1; white-space: pre; opacity: 1;" transform="translate(326.5,0)">40</text></g><g class="xtick"><text text-anchor="middle" x="0" y="451" style="font-family: 'Lucida Grande', 'Open Sans', verdana, arial, sans-serif; font-size: 10px; fill: rgb(0, 0, 0); fill-opacity: 1; white-space: pre; opacity: 1;" transform="translate(463.17,0)">60</text></g><g class="xtick"><text text-anchor="middle" x="0" y="451" style="font-family: 'Lucida Grande', 'Open Sans', verdana, arial, sans-serif; font-size: 10px; fill: rgb(0, 0, 0); fill-opacity: 1; white-space: pre; opacity: 1;" transform="translate(599.83,0)">80</text></g><g class="xtick"><text text-anchor="middle" x="0" y="451" style="font-family: 'Lucida Grande', 'Open Sans', verdana, arial, sans-serif; font-size: 10px; fill: rgb(0, 0, 0); fill-opacity: 1; white-space: pre; opacity: 1;" transform="translate(736.5,0)">100</text></g><g class="xtick"><text text-anchor="middle" x="0" y="451" style="font-family: 'Lucida Grande', 'Open Sans', verdana, arial, sans-serif; font-size: 10px; fill: rgb(0, 0, 0); fill-opacity: 1; white-space: pre; opacity: 1;" transform="translate(873.17,0)">120</text></g><g class="xtick"><text text-anchor="middle" x="0" y="451" style="font-family: 'Lucida Grande', 'Open Sans', verdana, arial, sans-serif; font-size: 10px; fill: rgb(0, 0, 0); fill-opacity: 1; white-space: pre; opacity: 1;" transform="translate(1009.83,0)">140</text></g></g><g class="yaxislayer-above"><g class="ytick"><text text-anchor="end" x="54" y="3.5" transform="translate(0,435)" style="font-family: 'Lucida Grande', 'Open Sans', verdana, arial, sans-serif; font-size: 10px; fill: rgb(0, 0, 0); fill-opacity: 1; white-space: pre; opacity: 1;">0%</text></g><g class="ytick"><text text-anchor="end" x="54" y="3.5" style="font-family: 'Lucida Grande', 'Open Sans', verdana, arial, sans-serif; font-size: 10px; fill: rgb(0, 0, 0); fill-opacity: 1; white-space: pre; opacity: 1;" transform="translate(0,358)">1%</text></g><g class="ytick"><text text-anchor="end" x="54" y="3.5" style="font-family: 'Lucida Grande', 'Open Sans', verdana, arial, sans-serif; font-size: 10px; fill: rgb(0, 0, 0); fill-opacity: 1; white-space: pre; opacity: 1;" transform="translate(0,281)">2%</text></g><g class="ytick"><text text-anchor="end" x="54" y="3.5" style="font-family: 'Lucida Grande', 'Open Sans', verdana, arial, sans-serif; font-size: 10px; fill: rgb(0, 0, 0); fill-opacity: 1; white-space: pre; opacity: 1;" transform="translate(0,204)">3%</text></g><g class="ytick"><text text-anchor="end" x="54" y="3.5" style="font-family: 'Lucida Grande', 'Open Sans', verdana, arial, sans-serif; font-size: 10px; fill: rgb(0, 0, 0); fill-opacity: 1; white-space: pre; opacity: 1;" transform="translate(0,127)">4%</text></g><g class="ytick"><text text-anchor="end" x="54" y="3.5" style="font-family: 'Lucida Grande', 'Open Sans', verdana, arial, sans-serif; font-size: 10px; fill: rgb(0, 0, 0); fill-opacity: 1; white-space: pre; opacity: 1;" transform="translate(0,50)">5%</text></g></g><g class="overaxes-above"/></g></g><g class="polarlayer"/><g class="smithlayer"/><g class="ternarylayer"/><g class="geolayer"/><g class="funnelarealayer"/><g class="pielayer"/><g class="iciclelayer"/><g class="treemaplayer"/><g class="sunburstlayer"/><g class="glimages"/><defs id="topdefs-3c7048"><g class="clips"/></defs><g class="layer-above"><g class="imagelayer"/><g class="shapelayer"/></g><g class="infolayer"><g class="g-gtitle"><text class="gtitle" x="550" y="25" text-anchor="middle" dy="0em" style="opacity: 1; font-family: 'Lucida Grande', 'Open Sans', verdana, arial, sans-serif; font-size: 20px; fill: rgb(42, 63, 95); fill-opacity: 1; white-space: pre;"><tspan class="line" dy="0em" x="550" y="25">Fastp: Read N Content</tspan><tspan class="line" dy="1.3em" x="550" y="25">​<tspan style="font-size:70%" dy="-0.6em">Read 2: Before filtering, 5 samples</tspan><tspan dy="0.42em">​</tspan></tspan></text></g><g class="g-xtitle"><text class="xtitle" x="572.5" y="472.3" text-anchor="middle" style="opacity: 0.3; font-family: 'Lucida Grande', 'Open Sans', verdana, arial, sans-serif; font-size: 14px; fill: rgb(0, 0, 0); fill-opacity: 1; white-space: pre;">Read Position</text></g><g class="g-ytitle"><text class="ytitle" transform="rotate(-90,23.725,242.5)" x="23.725" y="242.5" text-anchor="middle" style="opacity: 0.3; font-family: 'Lucida Grande', 'Open Sans', verdana, arial, sans-serif; font-size: 14px; fill: rgb(0, 0, 0); fill-opacity: 1; white-space: pre;">R2 Before filtering: Base Content Percent</text></g></g></svg>