<svg class="main-svg" xmlns="http://www.w3.org/2000/svg" xmlns:xlink="http://www.w3.org/1999/xlink" width="2200" height="1000" style="" viewBox="0 0 1100 500"><rect x="0" y="0" width="1100" height="500" style="fill: rgb(255, 255, 255); fill-opacity: 1;"/><defs id="defs-f7c52a"><g class="clips"><clipPath id="clipf7c52axyplot" class="plotclip"><rect width="1014" height="385"/></clipPath><clipPath class="axesclip" id="clipf7c52ax"><rect x="71" y="0" width="1014" height="500"/></clipPath><clipPath class="axesclip" id="clipf7c52ay"><rect x="0" y="50" width="1100" height="385"/></clipPath><clipPath class="axesclip" id="clipf7c52axy"><rect x="71" y="50" width="1014" height="385"/></clipPath></g><g class="gradients"/><g class="patterns"/></defs><g class="bglayer"/><g class="layer-below"><g class="imagelayer"/><g class="shapelayer"/></g><g class="cartesianlayer"><g class="subplot xy"><g class="layer-subplot"><g class="shapelayer"/><g class="imagelayer"/></g><g class="minor-gridlayer"><g class="x"/><g class="y"/></g><g class="gridlayer"><g class="x"><path class="xgrid crisp" transform="translate(199.44,0)" d="M0,50v385" style="stroke: rgb(0, 0, 0); stroke-opacity: 0.05; stroke-width: 1px;"/><path class="xgrid crisp" transform="translate(334.64,0)" d="M0,50v385" style="stroke: rgb(0, 0, 0); stroke-opacity: 0.05; stroke-width: 1px;"/><path class="xgrid crisp" transform="translate(469.84,0)" d="M0,50v385" style="stroke: rgb(0, 0, 0); stroke-opacity: 0.05; stroke-width: 1px;"/><path class="xgrid crisp" transform="translate(605.04,0)" d="M0,50v385" style="stroke: rgb(0, 0, 0); stroke-opacity: 0.05; stroke-width: 1px;"/><path class="xgrid crisp" transform="translate(740.24,0)" d="M0,50v385" style="stroke: rgb(0, 0, 0); stroke-opacity: 0.05; stroke-width: 1px;"/><path class="xgrid crisp" transform="translate(875.44,0)" d="M0,50v385" style="stroke: rgb(0, 0, 0); stroke-opacity: 0.05; stroke-width: 1px;"/><path class="xgrid crisp" transform="translate(1010.64,0)" d="M0,50v385" style="stroke: rgb(0, 0, 0); stroke-opacity: 0.05; stroke-width: 1px;"/></g><g class="y"><path class="ygrid crisp" transform="translate(0,358)" d="M71,0h1014" style="stroke: rgb(0, 0, 0); stroke-opacity: 0.05; stroke-width: 1px;"/><path class="ygrid crisp" transform="translate(0,281)" d="M71,0h1014" style="stroke: rgb(0, 0, 0); stroke-opacity: 0.05; stroke-width: 1px;"/><path class="ygrid crisp" transform="translate(0,204)" d="M71,0h1014" style="stroke: rgb(0, 0, 0); stroke-opacity: 0.05; stroke-width: 1px;"/><path class="ygrid crisp" transform="translate(0,127)" d="M71,0h1014" style="stroke: rgb(0, 0, 0); stroke-opacity: 0.05; stroke-width: 1px;"/></g></g><g class="zerolinelayer"><path class="yzl zl crisp" transform="translate(0,435)" d="M71,0h1014" style="stroke: rgb(0, 0, 0); stroke-opacity: 0.05; stroke-width: 2px;"/></g><g class="layer-between"><g class="shapelayer"/><g class="imagelayer"/></g><path class="xlines-below"/><path class="ylines-below"/><g class="overlines-below"/><g class="xaxislayer-below"/><g class="yaxislayer-below"/><g class="overaxes-below"/><g class="overplot"><g class="xy" transform="translate(71,50)" clip-path="url(#clipf7c52axyplot)"><g class="scatterlayer mlayer"><g class="trace scatter tracec01892" style="stroke-miterlimit: 2; opacity: 1;"><g class="fills"/><g class="errorbars"/><g class="lines"><path class="js-line" d="M0,117.91L6.76,222.59L13.52,213.81L20.28,205.57L27.04,285.13L33.8,215.42L40.56,226.79L47.32,219.54L54.08,147.46L60.84,247.83L67.6,181.9L74.36,216.3L81.12,193.77L87.88,191L94.64,207.67L101.4,223.4L108.16,227.97L121.68,224.59L128.44,217.34L135.2,215.97L141.96,222.41L148.72,221.6L155.48,217.17L162.24,215.3L169,216.48L175.76,215.04L182.52,219.98L196.04,217.29L202.8,211.65L209.56,217.54L216.32,219.98L223.08,216.71L229.84,215.7L236.6,218.58L243.36,217.07L256.88,220.39L263.64,214.4L270.4,219.3L277.16,217.95L283.92,219.58L290.68,216.23L297.44,216.7L304.2,212.02L310.96,221.38L317.72,212.09L324.48,219.39L331.24,215.55L338,209.93L344.76,215.39L351.52,217.93L358.28,223.55L371.8,215.76L378.56,214.49L385.32,215.63L392.08,214.47L398.84,217.22L405.6,213.14L412.36,211.92L419.12,213.58L425.88,213.78L432.64,218.78L439.4,214.79L446.16,216.59L452.92,213.88L459.68,208.64L466.44,215.92L473.2,215.29L479.96,218.54L486.72,214.44L493.48,213.17L500.24,210.29L507,212.12L513.76,216.8L520.52,215.72L527.28,213.77L534.04,214.72L540.8,212.02L554.32,213.1L561.08,217.93L567.84,218.48L574.6,222.22L581.36,214.86L588.12,219.29L594.88,212.12L601.64,215.1L608.4,219.8L615.16,215.32L621.92,210.92L628.68,216.3L635.44,215.19L642.2,217.99L648.96,214.38L655.72,214.82L662.48,218.25L669.24,211.5L676,217.78L682.76,220.97L689.52,215.57L696.28,213.83L703.04,213.45L709.8,220.43L716.56,222.61L723.32,215.97L730.08,219.31L736.84,220.56L743.6,212.27L750.36,219.35L757.12,214.95L763.88,212L770.64,217.34L777.4,221.17L784.16,218.48L790.92,216.96L797.68,215.11L804.44,223.14L811.2,217.5L817.96,220.5L824.72,213.44L831.48,217.36L845,220.03L851.76,219.73L865.28,215.89L872.04,211.22L878.8,216.57L885.56,216.7L892.32,218.35L899.08,216.05L905.84,210.55L912.6,213.7L919.36,217.78L926.12,215.16L932.88,214.51L939.64,218.48L946.4,217.81L953.16,219.85L959.92,211.12L966.68,218.16L973.44,217.96L980.2,219.34L986.96,216.86L993.72,212.83L1000.48,222.72L1007.24,228.77L1014,278.35" style="vector-effect: none; fill: none; stroke: rgb(124, 181, 236); stroke-opacity: 1; stroke-width: 2px; opacity: 1;"/></g><g class="points"/><g class="text"/></g><g class="trace scatter trace5e5063" style="stroke-miterlimit: 2; opacity: 1;"><g class="fills"/><g class="errorbars"/><g class="lines"><path class="js-line" d="M0,132.22L6.76,234.15L13.52,231.31L20.28,214.68L27.04,293.49L33.8,225.1L40.56,227.02L47.32,227.78L54.08,151.19L60.84,260.8L67.6,196.77L74.36,237.36L81.12,206.45L87.88,203.2L94.64,225.25L101.4,237.25L108.16,241.98L114.92,239.22L121.68,239.08L128.44,230.04L135.2,225.56L141.96,229.66L148.72,231.41L155.48,234.69L162.24,231.3L169,235.67L175.76,229.84L182.52,234.9L189.28,232.65L202.8,230.73L209.56,228.44L216.32,230.39L223.08,233.71L229.84,237.78L236.6,227.8L243.36,232.85L250.12,229.88L256.88,233.27L263.64,233.83L270.4,226.39L277.16,231.77L283.92,228.76L290.68,230.43L297.44,228.13L304.2,229.16L310.96,233.45L317.72,225.68L324.48,230.79L331.24,230.67L338,226.76L344.76,233.84L351.52,227.23L358.28,233.2L365.04,232.28L371.8,226.66L378.56,228.41L385.32,225.38L392.08,230.6L398.84,228.15L405.6,226.98L412.36,230.36L425.88,227.56L432.64,229.32L439.4,231.1L446.16,231.24L452.92,230.31L459.68,227.81L466.44,226.85L473.2,228.54L479.96,232.79L486.72,225.87L493.48,225.99L500.24,230.66L507,227.15L513.76,231.11L520.52,226.09L527.28,233.16L534.04,224.23L540.8,230.55L547.56,226.52L554.32,228.65L561.08,230.2L567.84,229.07L574.6,230.98L581.36,226.01L588.12,228.58L594.88,228.36L601.64,227.7L608.4,225.68L615.16,224.49L621.92,229.98L628.68,232.6L635.44,229.52L642.2,227.12L648.96,230.96L662.48,223.27L669.24,227.3L676,224.07L682.76,231.16L696.28,228.04L703.04,235.62L709.8,224.72L716.56,227.8L730.08,228.83L736.84,228.59L743.6,224.41L750.36,224.37L757.12,226.52L763.88,232.28L770.64,230.96L777.4,232.43L784.16,231.44L790.92,227.26L804.44,227.64L811.2,227.32L817.96,223.56L824.72,227.34L831.48,220.24L838.24,226.93L845,230.67L851.76,226.16L858.52,230.69L865.28,222.85L872.04,228.84L878.8,227.36L885.56,228.76L892.32,231.09L899.08,219.13L905.84,232.32L912.6,217.83L919.36,226.46L926.12,225.15L932.88,226.26L939.64,225.86L946.4,222.27L953.16,233.42L959.92,224.77L966.68,231.82L973.44,230.15L980.2,230.83L986.96,226.35L993.72,223.66L1000.48,225.61L1007.24,241.48L1014,283.61" style="vector-effect: none; fill: none; stroke: rgb(67, 67, 72); stroke-opacity: 1; stroke-width: 2px; opacity: 1;"/></g><g class="points"/><g class="text"/></g><g class="trace scatter trace02b0fe" style="stroke-miterlimit: 2; opacity: 1;"><g class="fills"/><g class="errorbars"/><g class="lines"><path class="js-line" d="M0,84.78L6.76,150.08L13.52,155.82L20.28,152.05L27.04,206.66L33.8,152.73L40.56,141.98L47.32,148.81L54.08,90.12L60.84,168.25L67.6,121.64L74.36,149.65L81.12,121.04L87.88,113.5L94.64,127.71L101.4,135.49L108.16,140.29L114.92,141.96L121.68,137.82L128.44,135.25L135.2,137.38L141.96,135.56L148.72,135.86L155.48,138.92L162.24,134.46L169,136.07L175.76,135.2L182.52,131.8L189.28,135.94L196.04,134.28L202.8,135.87L209.56,135.14L216.32,131.54L223.08,132.94L229.84,137.34L236.6,133.97L243.36,131.75L250.12,131.98L256.88,133.26L263.64,132.2L270.4,133.82L277.16,131.58L283.92,131.76L290.68,130.69L297.44,132.8L310.96,134.46L317.72,131.81L324.48,129.76L331.24,131.78L338,133.47L344.76,130.32L351.52,137.27L358.28,132.72L365.04,131.01L371.8,130.86L385.32,134.59L392.08,133.26L398.84,134.57L405.6,132.31L412.36,134.89L419.12,134.44L425.88,132.78L432.64,132.88L439.4,133.77L446.16,131.18L452.92,134.01L459.68,134.02L466.44,132.71L473.2,133.48L479.96,134.95L486.72,132.13L493.48,132.19L500.24,134.38L507,134.9L513.76,134.19L527.28,130.75L534.04,132.96L540.8,130.95L547.56,134.12L554.32,132.41L561.08,134.68L567.84,131.48L574.6,134.27L581.36,131.43L588.12,131.6L594.88,131.46L601.64,136.45L608.4,128.78L615.16,131.28L628.68,134.44L635.44,134.23L642.2,135.93L648.96,130.52L662.48,137.34L669.24,134.69L676,134.67L682.76,130.08L696.28,132.46L703.04,134.91L716.56,134.54L723.32,129.22L730.08,130.04L736.84,134.48L750.36,131.84L757.12,132.35L763.88,128.86L770.64,131.04L777.4,134.45L784.16,134.65L790.92,134.36L797.68,131L804.44,132.65L811.2,132.14L817.96,134.48L824.72,131.81L831.48,129.44L838.24,134.68L845,136.9L851.76,131.11L858.52,130.92L865.28,132.15L872.04,131.41L878.8,134.36L885.56,134.61L892.32,129.71L899.08,130.32L905.84,129.72L912.6,133.12L919.36,133.46L926.12,134.03L932.88,129.37L939.64,132.26L946.4,132L953.16,129.27L959.92,133.19L966.68,130.36L973.44,129.58L980.2,133.63L986.96,130.84L993.72,133.98L1000.48,133.96L1007.24,126.93L1014,180.11" style="vector-effect: none; fill: none; stroke: rgb(144, 237, 125); stroke-opacity: 1; stroke-width: 2px; opacity: 1;"/></g><g class="points"/><g class="text"/></g><g class="trace scatter traced74c3c" style="stroke-miterlimit: 2; opacity: 1;"><g class="fills"/><g class="errorbars"/><g class="lines"><path class="js-line" d="M0,159.84L6.76,232.81L13.52,238.6L20.28,252.12L27.04,302.69L33.8,252.18L40.56,234.19L47.32,230.14L54.08,161.15L60.84,260.4L67.6,210.27L74.36,237.23L81.12,214.9L87.88,213.27L94.64,229.62L101.4,239.45L108.16,242.67L114.92,244.06L121.68,240.31L135.2,236.27L141.96,236.32L148.72,236.8L155.48,239.29L169,237.4L175.76,239.48L182.52,238.35L189.28,238.13L196.04,238.44L202.8,236.7L209.56,236.26L216.32,237.6L223.08,236.56L229.84,237.36L236.6,238.64L243.36,238.25L256.88,238.21L263.64,237.14L270.4,236.54L277.16,237.05L290.68,235.86L297.44,238.17L304.2,237.04L310.96,237.41L317.72,239L324.48,237.43L331.24,238.58L338,238.45L351.52,236.39L358.28,237.19L371.8,236.16L378.56,237.4L385.32,236.79L392.08,237.84L398.84,237.76L405.6,236.92L412.36,236.7L419.12,237.83L432.64,235.94L439.4,238.04L446.16,236.9L452.92,236.66L459.68,237.86L466.44,236.96L473.2,236.8L479.96,238.87L486.72,237.32L493.48,236.87L500.24,238.12L507,235.73L520.52,236.98L527.28,236.86L540.8,237.79L547.56,236.92L561.08,238.31L567.84,237.51L574.6,236.52L581.36,238.16L588.12,236.07L594.88,236.95L601.64,237.05L608.4,236.3L615.16,236.65L621.92,238.26L628.68,237.08L635.44,237.08L642.2,237.63L648.96,237.11L655.72,236.52L662.48,237.1L669.24,236.01L676,236.68L682.76,237.59L689.52,237.38L709.8,237.72L716.56,237.34L723.32,237.46L730.08,236.25L784.16,237.6L790.92,236.93L797.68,236.53L804.44,237.09L811.2,236.65L817.96,235.35L824.72,237.12L831.48,236.65L838.24,236.3L845,237.59L858.52,236.56L865.28,236.97L878.8,235.96L885.56,236.02L892.32,235.44L899.08,236.56L905.84,237.46L912.6,236.27L919.36,235.72L926.12,236.74L932.88,235.58L939.64,235.28L946.4,236.37L953.16,235.16L959.92,235.4L966.68,236.45L980.2,235.79L986.96,236.17L993.72,235.97L1000.48,234.65" style="vector-effect: none; fill: none; stroke: rgb(247, 163, 92); stroke-opacity: 1; stroke-width: 2px; opacity: 1;"/></g><g class="points"/><g class="text"/></g><g class="trace scatter trace1b2d48" style="stroke-miterlimit: 2; opacity: 1;"><g class="fills"/><g class="errorbars"/><g class="lines"><path class="js-line" d="M0,152.44L6.76,237.66L13.52,246.44L20.28,244.09L27.04,284.38L33.8,246.55L40.56,241.7L47.32,233.72L54.08,165.85L60.84,257.99L67.6,218.16L74.36,241.21L81.12,217.16L87.88,217.28L94.64,230.75L101.4,238.21L108.16,239.65L114.92,241.87L121.68,239.97L128.44,237.3L135.2,236.87L141.96,236.14L148.72,236.63L155.48,238.13L162.24,237.4L169,237.71L175.76,239.38L182.52,237.03L189.28,237.75L196.04,238.84L202.8,237.2L209.56,235.76L216.32,239.09L223.08,237.64L229.84,237.5L236.6,238.79L243.36,236.38L263.64,238.28L270.4,237.07L277.16,238.84L283.92,237.45L290.68,237.14L297.44,240.08L310.96,236.28L317.72,238.6L324.48,236.85L331.24,238.95L338,239.1L344.76,237.67L351.52,235.97L358.28,240.1L365.04,237.08L371.8,237.59L378.56,239.06L385.32,236.68L392.08,237.56L398.84,239.73L412.36,237.99L419.12,239L432.64,236.45L439.4,238.91L452.92,236.34L459.68,238.49L473.2,236.78L479.96,239.41L486.72,237.78L493.48,237.5L500.24,238.54L507,236.15L513.76,235.55L520.52,237.68L527.28,235.99L534.04,236.33L540.8,238.31L547.56,237.12L554.32,236.8L561.08,238.52L567.84,236.99L574.6,236.64L581.36,237.65L588.12,237.13L601.64,236.31L608.4,236.23L615.16,237.57L621.92,237.83L628.68,236.13L635.44,235.5L642.2,237.62L648.96,237.73L655.72,236.41L662.48,237.68L669.24,236.42L676,236.09L682.76,237.58L689.52,237.12L696.28,235.94L703.04,237.06L709.8,236.22L716.56,236.45L723.32,237.53L730.08,237.38L736.84,235.76L743.6,236.67L757.12,234.36L763.88,237.71L777.4,234.59L784.16,236.73L797.68,234.93L804.44,236.48L811.2,235.13L817.96,236.06L824.72,237.19L831.48,234.46L838.24,234.15L845,236.44L851.76,235.27L858.52,235.38L865.28,235.71L872.04,234.24L885.56,235.13L892.32,234.51L899.08,233.74L905.84,235.07L919.36,234.08L926.12,235.75L939.64,233.32L946.4,234.8L953.16,233.04L959.92,232.51L966.68,234.43L973.44,232.37L980.2,233.08L986.96,234.68L1000.48,231.07" style="vector-effect: none; fill: none; stroke: rgb(128, 133, 233); stroke-opacity: 1; stroke-width: 2px; opacity: 1;"/></g><g class="points"/><g class="text"/></g></g></g></g><path class="xlines-above crisp" d="M0,0" style="fill: none;"/><path class="ylines-above crisp" d="M0,0" style="fill: none;"/><g class="overlines-above"/><g class="xaxislayer-above"><g class="xtick"><text text-anchor="middle" x="0" y="451" transform="translate(199.44,0)" style="font-family: 'Lucida Grande', 'Open Sans', verdana, arial, sans-serif; font-size: 10px; fill: rgb(0, 0, 0); fill-opacity: 1; white-space: pre; opacity: 1;">20</text></g><g class="xtick"><text text-anchor="middle" x="0" y="451" style="font-family: 'Lucida Grande', 'Open Sans', verdana, arial, sans-serif; font-size: 10px; fill: rgb(0, 0, 0); fill-opacity: 1; white-space: pre; opacity: 1;" transform="translate(334.64,0)">40</text></g><g class="xtick"><text text-anchor="middle" x="0" y="451" style="font-family: 'Lucida Grande', 'Open Sans', verdana, arial, sans-serif; font-size: 10px; fill: rgb(0, 0, 0); fill-opacity: 1; white-space: pre; opacity: 1;" transform="translate(469.84,0)">60</text></g><g class="xtick"><text text-anchor="middle" x="0" y="451" style="font-family: 'Lucida Grande', 'Open Sans', verdana, arial, sans-serif; font-size: 10px; fill: rgb(0, 0, 0); fill-opacity: 1; white-space: pre; opacity: 1;" transform="translate(605.04,0)">80</text></g><g class="xtick"><text text-anchor="middle" x="0" y="451" style="font-family: 'Lucida Grande', 'Open Sans', verdana, arial, sans-serif; font-size: 10px; fill: rgb(0, 0, 0); fill-opacity: 1; white-space: pre; opacity: 1;" transform="translate(740.24,0)">100</text></g><g class="xtick"><text text-anchor="middle" x="0" y="451" style="font-family: 'Lucida Grande', 'Open Sans', verdana, arial, sans-serif; font-size: 10px; fill: rgb(0, 0, 0); fill-opacity: 1; white-space: pre; opacity: 1;" transform="translate(875.44,0)">120</text></g><g class="xtick"><text text-anchor="middle" x="0" y="451" style="font-family: 'Lucida Grande', 'Open Sans', verdana, arial, sans-serif; font-size: 10px; fill: rgb(0, 0, 0); fill-opacity: 1; white-space: pre; opacity: 1;" transform="translate(1010.64,0)">140</text></g></g><g class="yaxislayer-above"><g class="ytick"><text text-anchor="end" x="65" y="3.5" transform="translate(0,435)" style="font-family: 'Lucida Grande', 'Open Sans', verdana, arial, sans-serif; font-size: 10px; fill: rgb(0, 0, 0); fill-opacity: 1; white-space: pre; opacity: 1;">0%</text></g><g class="ytick"><text text-anchor="end" x="65" y="3.5" style="font-family: 'Lucida Grande', 'Open Sans', verdana, arial, sans-serif; font-size: 10px; fill: rgb(0, 0, 0); fill-opacity: 1; white-space: pre; opacity: 1;" transform="translate(0,358)">20%</text></g><g class="ytick"><text text-anchor="end" x="65" y="3.5" style="font-family: 'Lucida Grande', 'Open Sans', verdana, arial, sans-serif; font-size: 10px; fill: rgb(0, 0, 0); fill-opacity: 1; white-space: pre; opacity: 1;" transform="translate(0,281)">40%</text></g><g class="ytick"><text text-anchor="end" x="65" y="3.5" style="font-family: 'Lucida Grande', 'Open Sans', verdana, arial, sans-serif; font-size: 10px; fill: rgb(0, 0, 0); fill-opacity: 1; white-space: pre; opacity: 1;" transform="translate(0,204)">60%</text></g><g class="ytick"><text text-anchor="end" x="65" y="3.5" style="font-family: 'Lucida Grande', 'Open Sans', verdana, arial, sans-serif; font-size: 10px; fill: rgb(0, 0, 0); fill-opacity: 1; white-space: pre; opacity: 1;" transform="translate(0,127)">80%</text></g><g class="ytick"><text text-anchor="end" x="65" y="3.5" style="font-family: 'Lucida Grande', 'Open Sans', verdana, arial, sans-serif; font-size: 10px; fill: rgb(0, 0, 0); fill-opacity: 1; white-space: pre; opacity: 1;" transform="translate(0,50)">100%</text></g></g><g class="overaxes-above"/></g></g><g class="polarlayer"/><g class="smithlayer"/><g class="ternarylayer"/><g class="geolayer"/><g class="funnelarealayer"/><g class="pielayer"/><g class="iciclelayer"/><g class="treemaplayer"/><g class="sunburstlayer"/><g class="glimages"/><defs id="topdefs-f7c52a"><g class="clips"/></defs><g class="layer-above"><g class="imagelayer"/><g class="shapelayer"/></g><g class="infolayer"><g class="g-gtitle"><text class="gtitle" x="550" y="25" text-anchor="middle" dy="0em" style="opacity: 1; font-family: 'Lucida Grande', 'Open Sans', verdana, arial, sans-serif; font-size: 20px; fill: rgb(42, 63, 95); fill-opacity: 1; white-space: pre;"><tspan class="line" dy="0em" x="550" y="25">Fastp: Read GC Content</tspan><tspan class="line" dy="1.3em" x="550" y="25">​<tspan style="font-size:70%" dy="-0.6em">Read 1: Before filtering, 5 samples</tspan><tspan dy="0.42em">​</tspan></tspan></text></g><g class="g-xtitle"><text class="xtitle" x="578" y="472.3" text-anchor="middle" style="opacity: 0.3; font-family: 'Lucida Grande', 'Open Sans', verdana, arial, sans-serif; font-size: 14px; fill: rgb(0, 0, 0); fill-opacity: 1; white-space: pre;">Read Position</text></g><g class="g-ytitle"><text class="ytitle" transform="rotate(-90,22.00625,242.5)" x="22.00625" y="242.5" text-anchor="middle" style="opacity: 0.3; font-family: 'Lucida Grande', 'Open Sans', verdana, arial, sans-serif; font-size: 14px; fill: rgb(0, 0, 0); fill-opacity: 1; white-space: pre;">R1 Before filtering: Base Content Percent</text></g></g></svg>