<svg class="main-svg" xmlns="http://www.w3.org/2000/svg" xmlns:xlink="http://www.w3.org/1999/xlink" width="2200" height="1000" style="" viewBox="0 0 1100 500"><rect x="0" y="0" width="1100" height="500" style="fill: rgb(255, 255, 255); fill-opacity: 1;"/><defs id="defs-621b95"><g class="clips"><clipPath id="clip621b95xyplot" class="plotclip"><rect width="1025" height="385"/></clipPath><clipPath class="axesclip" id="clip621b95x"><rect x="60" y="0" width="1025" height="500"/></clipPath><clipPath class="axesclip" id="clip621b95y"><rect x="0" y="50" width="1100" height="385"/></clipPath><clipPath class="axesclip" id="clip621b95xy"><rect x="60" y="50" width="1025" height="385"/></clipPath></g><g class="gradients"/><g class="patterns"/></defs><g class="bglayer"/><g class="layer-below"><g class="imagelayer"/><g class="shapelayer"/></g><g class="cartesianlayer"><g class="subplot xy"><g class="layer-subplot"><g class="shapelayer"/><g class="imagelayer"/></g><g class="minor-gridlayer"><g class="x"/><g class="y"/></g><g class="gridlayer"><g class="x"><path class="xgrid crisp" transform="translate(189.83,0)" d="M0,50v385" style="stroke: rgb(0, 0, 0); stroke-opacity: 0.05; stroke-width: 1px;"/><path class="xgrid crisp" transform="translate(326.5,0)" d="M0,50v385" style="stroke: rgb(0, 0, 0); stroke-opacity: 0.05; stroke-width: 1px;"/><path class="xgrid crisp" transform="translate(463.17,0)" d="M0,50v385" style="stroke: rgb(0, 0, 0); stroke-opacity: 0.05; stroke-width: 1px;"/><path class="xgrid crisp" transform="translate(599.83,0)" d="M0,50v385" style="stroke: rgb(0, 0, 0); stroke-opacity: 0.05; stroke-width: 1px;"/><path class="xgrid crisp" transform="translate(736.5,0)" d="M0,50v385" style="stroke: rgb(0, 0, 0); stroke-opacity: 0.05; stroke-width: 1px;"/><path class="xgrid crisp" transform="translate(873.17,0)" d="M0,50v385" style="stroke: rgb(0, 0, 0); stroke-opacity: 0.05; stroke-width: 1px;"/><path class="xgrid crisp" transform="translate(1009.83,0)" d="M0,50v385" style="stroke: rgb(0, 0, 0); stroke-opacity: 0.05; stroke-width: 1px;"/></g><g class="y"><path class="ygrid crisp" transform="translate(0,358)" d="M60,0h1025" style="stroke: rgb(0, 0, 0); stroke-opacity: 0.05; stroke-width: 1px;"/><path class="ygrid crisp" transform="translate(0,281)" d="M60,0h1025" style="stroke: rgb(0, 0, 0); stroke-opacity: 0.05; stroke-width: 1px;"/><path class="ygrid crisp" transform="translate(0,204)" d="M60,0h1025" style="stroke: rgb(0, 0, 0); stroke-opacity: 0.05; stroke-width: 1px;"/><path class="ygrid crisp" transform="translate(0,127)" d="M60,0h1025" style="stroke: rgb(0, 0, 0); stroke-opacity: 0.05; stroke-width: 1px;"/></g></g><g class="zerolinelayer"><path class="yzl zl crisp" transform="translate(0,435)" d="M60,0h1025" style="stroke: rgb(0, 0, 0); stroke-opacity: 0.05; stroke-width: 2px;"/></g><g class="layer-between"><g class="shapelayer"/><g class="imagelayer"/></g><path class="xlines-below"/><path class="ylines-below"/><g class="overlines-below"/><g class="xaxislayer-below"/><g class="yaxislayer-below"/><g class="overaxes-below"/><g class="overplot"><g class="xy" transform="translate(60,50)" clip-path="url(#clip621b95xyplot)"><g class="scatterlayer mlayer"><g class="trace scatter tracee3ed5a" style="stroke-miterlimit: 2; opacity: 1;"><g class="fills"/><g class="errorbars"/><g class="lines"><path class="js-line" d="M0,361.5L27.33,361.55L34.17,356.7L41,361.55L47.83,361.2L54.67,360.64L61.5,361.5L95.67,361.55L102.5,358.67L109.33,361.25L116.17,361.55L136.67,361.55L143.5,361.55L232.33,361.55L239.17,385L293.83,385L300.67,384.13L307.5,385L314.33,385L451,384.74L457.83,383.13L464.67,385L471.5,384.74L498.83,385L505.67,385L580.83,385L587.67,383.88L594.5,385L601.33,385L628.67,385L635.5,384.14L662.83,385L669.67,384.73L676.5,383.81L683.33,385L751.67,385L758.5,383.95L765.33,385L772.17,385L833.67,385L840.5,383.29L847.33,385L854.17,385L861,384.31L867.83,385L881.5,383.38L888.33,384.83L915.67,385L922.5,384.24L929.33,385L936.17,384.59L949.83,385L956.67,385L963.5,384.34L970.33,382.84L977.17,385L984,384.94L990.83,384.09L997.67,384.15L1004.5,385L1011.33,385L1018.17,383.44L1025,384.73" style="vector-effect: none; fill: none; stroke: rgb(124, 181, 236); stroke-opacity: 1; stroke-width: 2px; opacity: 1;"/></g><g class="points"/><g class="text"/></g><g class="trace scatter traceb60389" style="stroke-miterlimit: 2; opacity: 1;"><g class="fills"/><g class="errorbars"/><g class="lines"><path class="js-line" d="M0,349.18L6.83,348.38L13.67,349.03L27.33,349.18L34.17,346.2L41,349.18L47.83,349.18L123,348.74L129.83,347.22L136.67,349.18L143.5,349.18L164,349.1L170.83,347.22L177.67,349.1L184.5,347.73L191.33,349.18L198.17,349.18L205,349.18L211.83,348.02L225.5,349.18L232.33,347.58L239.17,385L246,385L252.83,383.69L259.67,384.05L266.5,385L273.33,385L293.83,384.56L300.67,385L321.17,384.04L328,385L348.5,385L355.33,384.11L362.17,385L369,383.43L375.83,385L382.67,384.32L410,385L416.83,384.55L430.5,384.7L437.33,383.93L444.17,384.01L451,385L457.83,383.85L464.67,383.85L471.5,385L478.33,385L546.67,384.45L553.5,383.73L560.33,385L567.17,385L574,384.28L580.83,385L587.67,385L594.5,384.03L601.33,385L608.17,384.35L615,383.54L621.83,385L703.83,385L710.67,383.9L717.5,385L724.33,384.91L731.17,383.45L738,384.31L744.83,385L751.67,383.52L758.5,381.51L765.33,381.94L779,384.38L785.83,385L826.83,385L833.67,383.17L840.5,385L847.33,384.82L874.67,383.68L881.5,382.63L895.17,384.33L902,383.17L908.83,385L915.67,384.9L929.33,384.51L936.17,385L990.83,384.38L997.67,383.54L1004.5,382.99L1011.33,384.78L1018.17,384.88L1025,384.09" style="vector-effect: none; fill: none; stroke: rgb(67, 67, 72); stroke-opacity: 1; stroke-width: 2px; opacity: 1;"/></g><g class="points"/><g class="text"/></g><g class="trace scatter tracec22f62" style="stroke-miterlimit: 2; opacity: 1;"><g class="fills"/><g class="errorbars"/><g class="lines"><path class="js-line" d="M0,325.13L6.83,325.94L13.67,325.63L27.33,326.06L34.17,322.31L41,326.06L47.83,326.06L205,325.83L211.83,325.08L218.67,326.06L225.5,326.06L232.33,326.02L239.17,385L321.17,384.79L328,384.13L369,385L375.83,385L457.83,385L464.67,383.3L471.5,384.9L478.33,385L485.17,385L492,382.91L505.67,385L512.5,384.96L519.33,384.49L526.17,385L580.83,385L587.67,383.38L594.5,385L601.33,385L683.33,384.44L690.17,383.92L697,385L703.83,384.09L710.67,383.75L717.5,385L861,385L867.83,383.78L874.67,384.57L881.5,384.41L888.33,384.83L895.17,384.46L908.83,384.95L915.67,384.81L970.33,384.65L977.17,382.83L984,385L990.83,384.46L1025,384.31" style="vector-effect: none; fill: none; stroke: rgb(144, 237, 125); stroke-opacity: 1; stroke-width: 2px; opacity: 1;"/></g><g class="points"/><g class="text"/></g><g class="trace scatter trace0e7bf1" style="stroke-miterlimit: 2; opacity: 1;"><g class="fills"/><g class="errorbars"/><g class="lines"><path class="js-line" d="M0,383.79L6.83,383.42L13.67,384.08L20.5,384.98L27.33,385L34.17,380.71L41,384.86L82,385L88.83,385L580.83,384.75L587.67,383.87L594.5,385L601.33,384.93L608.17,384.4L615,385L635.5,384.26L642.33,385L840.5,384.72L847.33,383.35L861,384.77L867.83,384.96L881.5,384.56L888.33,385L908.83,385L915.67,384.08L943,384.91L949.83,384.17L977.17,385L984,384.26L1011.33,384.96" style="vector-effect: none; fill: none; stroke: rgb(247, 163, 92); stroke-opacity: 1; stroke-width: 2px; opacity: 1;"/></g><g class="points"/><g class="text"/></g><g class="trace scatter trace8ed9c7" style="stroke-miterlimit: 2; opacity: 1;"><g class="fills"/><g class="errorbars"/><g class="lines"><path class="js-line" d="M0,384.73L47.83,385L54.67,384.46L68.33,384.8L75.17,385L198.17,384.46L205,383.44L211.83,383.51L218.67,385L225.5,383.78L232.33,384.25L252.83,384.73L259.67,384.12L266.5,384.39L273.33,383.51L280.17,385L287,385L410,385L416.83,384.19L423.67,385L430.5,385L457.83,384.93L464.67,383.51L471.5,385L478.33,384.93L498.83,384.8L505.67,383.71L512.5,385L519.33,384.59L533,385L539.83,384.12L546.67,384.86L553.5,384.53L560.33,385L567.17,383.37L580.83,385L587.67,384.59L608.17,385L615,383.44L621.83,382.49L628.67,384.86L649.17,384.93L656,384.05L662.83,381.68L669.67,385L690.17,384.86L697,385L724.33,383.98L731.17,385L758.5,384.46L765.33,385L779,384.86L785.83,384.93L792.67,384.05L799.5,384.73L833.67,385L840.5,383.98L847.33,384.19L854.17,383.37L861,384.39L867.83,384.05L874.67,384.46L881.5,383.71L888.33,384.8L895.17,384.93L970.33,384.59L977.17,383.85L984,384.8L990.83,384.32L1011.33,384.73" style="vector-effect: none; fill: none; stroke: rgb(128, 133, 233); stroke-opacity: 1; stroke-width: 2px; opacity: 1;"/></g><g class="points"/><g class="text"/></g></g></g></g><path class="xlines-above crisp" d="M0,0" style="fill: none;"/><path class="ylines-above crisp" d="M0,0" style="fill: none;"/><g class="overlines-above"/><g class="xaxislayer-above"><g class="xtick"><text text-anchor="middle" x="0" y="451" transform="translate(189.83,0)" style="font-family: 'Lucida Grande', 'Open Sans', verdana, arial, sans-serif; font-size: 10px; fill: rgb(0, 0, 0); fill-opacity: 1; white-space: pre; opacity: 1;">20</text></g><g class="xtick"><text text-anchor="middle" x="0" y="451" style="font-family: 'Lucida Grande', 'Open Sans', verdana, arial, sans-serif; font-size: 10px; fill: rgb(0, 0, 0); fill-opacity: 1; white-space: pre; opacity: 1;" transform="translate(326.5,0)">40</text></g><g class="xtick"><text text-anchor="middle" x="0" y="451" style="font-family: 'Lucida Grande', 'Open Sans', verdana, arial, sans-serif; font-size: 10px; fill: rgb(0, 0, 0); fill-opacity: 1; white-space: pre; opacity: 1;" transform="translate(463.17,0)">60</text></g><g class="xtick"><text text-anchor="middle" x="0" y="451" style="font-family: 'Lucida Grande', 'Open Sans', verdana, arial, sans-serif; font-size: 10px; fill: rgb(0, 0, 0); fill-opacity: 1; white-space: pre; opacity: 1;" transform="translate(599.83,0)">80</text></g><g class="xtick"><text text-anchor="middle" x="0" y="451" style="font-family: 'Lucida Grande', 'Open Sans', verdana, arial, sans-serif; font-size: 10px; fill: rgb(0, 0, 0); fill-opacity: 1; white-space: pre; opacity: 1;" transform="translate(736.5,0)">100</text></g><g class="xtick"><text text-anchor="middle" x="0" y="451" style="font-family: 'Lucida Grande', 'Open Sans', verdana, arial, sans-serif; font-size: 10px; fill: rgb(0, 0, 0); fill-opacity: 1; white-space: pre; opacity: 1;" transform="translate(873.17,0)">120</text></g><g class="xtick"><text text-anchor="middle" x="0" y="451" style="font-family: 'Lucida Grande', 'Open Sans', verdana, arial, sans-serif; font-size: 10px; fill: rgb(0, 0, 0); fill-opacity: 1; white-space: pre; opacity: 1;" transform="translate(1009.83,0)">140</text></g></g><g class="yaxislayer-above"><g class="ytick"><text text-anchor="end" x="54" y="3.5" transform="translate(0,435)" style="font-family: 'Lucida Grande', 'Open Sans', verdana, arial, sans-serif; font-size: 10px; fill: rgb(0, 0, 0); fill-opacity: 1; white-space: pre; opacity: 1;">0%</text></g><g class="ytick"><text text-anchor="end" x="54" y="3.5" style="font-family: 'Lucida Grande', 'Open Sans', verdana, arial, sans-serif; font-size: 10px; fill: rgb(0, 0, 0); fill-opacity: 1; white-space: pre; opacity: 1;" transform="translate(0,358)">1%</text></g><g class="ytick"><text text-anchor="end" x="54" y="3.5" style="font-family: 'Lucida Grande', 'Open Sans', verdana, arial, sans-serif; font-size: 10px; fill: rgb(0, 0, 0); fill-opacity: 1; white-space: pre; opacity: 1;" transform="translate(0,281)">2%</text></g><g class="ytick"><text text-anchor="end" x="54" y="3.5" style="font-family: 'Lucida Grande', 'Open Sans', verdana, arial, sans-serif; font-size: 10px; fill: rgb(0, 0, 0); fill-opacity: 1; white-space: pre; opacity: 1;" transform="translate(0,204)">3%</text></g><g class="ytick"><text text-anchor="end" x="54" y="3.5" style="font-family: 'Lucida Grande', 'Open Sans', verdana, arial, sans-serif; font-size: 10px; fill: rgb(0, 0, 0); fill-opacity: 1; white-space: pre; opacity: 1;" transform="translate(0,127)">4%</text></g><g class="ytick"><text text-anchor="end" x="54" y="3.5" style="font-family: 'Lucida Grande', 'Open Sans', verdana, arial, sans-serif; font-size: 10px; fill: rgb(0, 0, 0); fill-opacity: 1; white-space: pre; opacity: 1;" transform="translate(0,50)">5%</text></g></g><g class="overaxes-above"/></g></g><g class="polarlayer"/><g class="smithlayer"/><g class="ternarylayer"/><g class="geolayer"/><g class="funnelarealayer"/><g class="pielayer"/><g class="iciclelayer"/><g class="treemaplayer"/><g class="sunburstlayer"/><g class="glimages"/><defs id="topdefs-621b95"><g class="clips"/></defs><g class="layer-above"><g class="imagelayer"/><g class="shapelayer"/></g><g class="infolayer"><g class="g-gtitle"><text class="gtitle" x="550" y="25" text-anchor="middle" dy="0em" style="opacity: 1; font-family: 'Lucida Grande', 'Open Sans', verdana, arial, sans-serif; font-size: 20px; fill: rgb(42, 63, 95); fill-opacity: 1; white-space: pre;"><tspan class="line" dy="0em" x="550" y="25">Fastp: Read N Content</tspan><tspan class="line" dy="1.3em" x="550" y="25">​<tspan style="font-size:70%" dy="-0.6em">Read 1: Before filtering, 5 samples</tspan><tspan dy="0.42em">​</tspan></tspan></text></g><g class="g-xtitle"><text class="xtitle" x="572.5" y="472.3" text-anchor="middle" style="opacity: 0.3; font-family: 'Lucida Grande', 'Open Sans', verdana, arial, sans-serif; font-size: 14px; fill: rgb(0, 0, 0); fill-opacity: 1; white-space: pre;">Read Position</text></g><g class="g-ytitle"><text class="ytitle" transform="rotate(-90,23.725,242.5)" x="23.725" y="242.5" text-anchor="middle" style="opacity: 0.3; font-family: 'Lucida Grande', 'Open Sans', verdana, arial, sans-serif; font-size: 14px; fill: rgb(0, 0, 0); fill-opacity: 1; white-space: pre;">R1 Before filtering: Base Content Percent</text></g></g></svg>